<svg xmlns="http://www.w3.org/2000/svg" xmlns:xlink="http://www.w3.org/1999/xlink" viewBox="0,0,256,256" width="24px" height="24px" fill-rule="nonzero"><g fill-opacity="0" fill="#dddddd" fill-rule="nonzero" stroke="none" stroke-width="1" stroke-linecap="butt" stroke-linejoin="miter" stroke-miterlimit="10" stroke-dasharray="" stroke-dashoffset="0" font-family="none" font-weight="none" font-size="none" text-anchor="none" style="mix-blend-mode: normal"><path d="M0,256v-256h256v256z" id="bgRectangle"></path></g><g fill="#ffffff" fill-rule="nonzero" stroke="none" stroke-width="1" stroke-linecap="butt" stroke-linejoin="miter" stroke-miterlimit="10" stroke-dasharray="" stroke-dashoffset="0" font-family="none" font-weight="none" font-size="none" text-anchor="none" style="mix-blend-mode: normal"><g transform="scale(10.66667,10.66667)"><path d="M17.44336,0.01172c-0.429,0 -0.45772,-0.00005 -0.88672,0.00195l-0.59375,1.45703l-0.48437,0.48438l-1.45703,0.59375v0.88672l1.45703,0.59375l0.48438,0.48633l0.59375,1.45508h0.88672l0.59375,-1.45508l0.48633,-0.48633l1.45508,-0.5957v-0.88672l-1.45703,-0.59375l-0.48437,-0.48437zM4,4c-1.09306,0 -2,0.90694 -2,2v12c0,1.09306 0.90694,2 2,2h16c1.09306,0 2,-0.90694 2,-2v-8h-2v8h-16v-12h8v-2zM21.75195,4.00391l-0.31836,0.76563c-0.123,0.297 -0.35925,0.53325 -0.65625,0.65625l-0.76562,0.31641v0.49805l0.76563,0.31836c0.297,0.123 0.53325,0.35925 0.65625,0.65625l0.31836,0.76563h0.49609l0.31836,-0.76562c0.123,-0.297 0.35925,-0.53325 0.65625,-0.65625l0.76563,-0.31836v-0.49805l-0.76562,-0.31641c-0.297,-0.123 -0.53325,-0.35925 -0.65625,-0.65625l-0.31836,-0.76562zM8.5,8c-0.82843,0 -1.5,0.67157 -1.5,1.5c0,0.82843 0.67157,1.5 1.5,1.5c0.82843,0 1.5,-0.67157 1.5,-1.5c0,-0.82843 -0.67157,-1.5 -1.5,-1.5zM14.5,11l-3.5,4l-2.5,-2.5l-2.72266,3.5h12.47266z"></path></g></g></svg>