<svg xmlns="http://www.w3.org/2000/svg" xmlns:xlink="http://www.w3.org/1999/xlink" viewBox="0,0,256,256" width="30px" height="30px" fill-rule="nonzero"><g fill-opacity="0" fill="#dddddd" fill-rule="nonzero" stroke="none" stroke-width="1" stroke-linecap="butt" stroke-linejoin="miter" stroke-miterlimit="10" stroke-dasharray="" stroke-dashoffset="0" font-family="none" font-weight="none" font-size="none" text-anchor="none" style="mix-blend-mode: normal"><path d="M0,256v-256h256v256z" id="bgRectangle"></path></g><g fill="#ffffff" fill-rule="nonzero" stroke="none" stroke-width="1" stroke-linecap="butt" stroke-linejoin="miter" stroke-miterlimit="10" stroke-dasharray="" stroke-dashoffset="0" font-family="none" font-weight="none" font-size="none" text-anchor="none" style="mix-blend-mode: normal"><g transform="scale(8.53333,8.53333)"><path d="M22,0.02344c-0.23513,0 -0.47067,0.12727 -0.57617,0.38477l-0.70508,1.73047c-0.107,0.263 -0.31608,0.47208 -0.58008,0.58008l-1.73047,0.70508c-0.515,0.211 -0.515,0.94039 0,1.15039l1.73047,0.70703c0.263,0.107 0.47208,0.31608 0.58008,0.58008l0.70508,1.72852c0.211,0.515 0.94039,0.515 1.15039,0l0.70703,-1.72852c0.107,-0.263 0.31608,-0.47208 0.58008,-0.58008l1.72852,-0.70703c0.515,-0.211 0.515,-0.94039 0,-1.15039l-1.72852,-0.70508c-0.263,-0.107 -0.47208,-0.31608 -0.58008,-0.58008l-0.70703,-1.73047c-0.105,-0.2575 -0.33909,-0.38477 -0.57422,-0.38477zM5,6c-0.36064,-0.0051 -0.69608,0.18438 -0.87789,0.49587c-0.18181,0.3115 -0.18181,0.69676 0,1.00825c0.18181,0.3115 0.51725,0.50097 0.87789,0.49587h9c0.36064,0.0051 0.69608,-0.18438 0.87789,-0.49587c0.18181,-0.3115 0.18181,-0.69676 0,-1.00825c-0.18181,-0.3115 -0.51725,-0.50097 -0.87789,-0.49587zM28,6.00195c-0.1965,0 -0.39366,0.11148 -0.47266,0.33398l-0.09375,0.26367c-0.138,0.39 -0.44498,0.69598 -0.83398,0.83398l-0.26367,0.09375c-0.445,0.157 -0.445,0.78731 0,0.94531l0.26367,0.09375c0.39,0.138 0.69599,0.44498 0.83398,0.83398l0.09375,0.26367c0.157,0.445 0.78731,0.445 0.94531,0l0.09375,-0.26367c0.138,-0.39 0.44498,-0.69598 0.83398,-0.83398l0.26367,-0.09375c0.445,-0.157 0.445,-0.78731 0,-0.94531l-0.26367,-0.09375c-0.39,-0.138 -0.69599,-0.44498 -0.83398,-0.83398l-0.09375,-0.26367c-0.079,-0.2225 -0.27616,-0.33398 -0.47266,-0.33398zM5,12c-0.36064,-0.0051 -0.69608,0.18438 -0.87789,0.49587c-0.18181,0.3115 -0.18181,0.69676 0,1.00825c0.18181,0.3115 0.51725,0.50097 0.87789,0.49587h3c0.36064,0.0051 0.69608,-0.18438 0.87789,-0.49587c0.18181,-0.3115 0.18181,-0.69676 0,-1.00825c-0.18181,-0.3115 -0.51725,-0.50097 -0.87789,-0.49587zM12,12c-0.36064,-0.0051 -0.69608,0.18438 -0.87789,0.49587c-0.18181,0.3115 -0.18181,0.69676 0,1.00825c0.18181,0.3115 0.51725,0.50097 0.87789,0.49587h13c0.36064,0.0051 0.69608,-0.18438 0.87789,-0.49587c0.18181,-0.3115 0.18181,-0.69676 0,-1.00825c-0.18181,-0.3115 -0.51725,-0.50097 -0.87789,-0.49587zM5,18c-0.36064,-0.0051 -0.69608,0.18438 -0.87789,0.49587c-0.18181,0.3115 -0.18181,0.69676 0,1.00825c0.18181,0.3115 0.51725,0.50097 0.87789,0.49587h20c0.36064,0.0051 0.69608,-0.18438 0.87789,-0.49587c0.18181,-0.3115 0.18181,-0.69676 0,-1.00825c-0.18181,-0.3115 -0.51725,-0.50097 -0.87789,-0.49587zM5,24c-0.36064,-0.0051 -0.69608,0.18438 -0.87789,0.49587c-0.18181,0.3115 -0.18181,0.69676 0,1.00825c0.18181,0.3115 0.51725,0.50097 0.87789,0.49587h12c0.36064,0.0051 0.69608,-0.18438 0.87789,-0.49587c0.18181,-0.3115 0.18181,-0.69676 0,-1.00825c-0.18181,-0.3115 -0.51725,-0.50097 -0.87789,-0.49587zM21,24c-0.36064,-0.0051 -0.69608,0.18438 -0.87789,0.49587c-0.18181,0.3115 -0.18181,0.69676 0,1.00825c0.18181,0.3115 0.51725,0.50097 0.87789,0.49587h4c0.36064,0.0051 0.69608,-0.18438 0.87789,-0.49587c0.18181,-0.3115 0.18181,-0.69676 0,-1.00825c-0.18181,-0.3115 -0.51725,-0.50097 -0.87789,-0.49587z"></path></g></g></svg>