<svg xmlns="http://www.w3.org/2000/svg" xmlns:xlink="http://www.w3.org/1999/xlink" viewBox="0,0,256,256" width="64px" height="64px" fill-rule="nonzero"><g transform=""><g fill-opacity="0" fill="#ffffff" fill-rule="nonzero" stroke="none" stroke-width="1" stroke-linecap="butt" stroke-linejoin="miter" stroke-miterlimit="10" stroke-dasharray="" stroke-dashoffset="0" font-family="none" font-weight="none" font-size="none" text-anchor="none" style="mix-blend-mode: normal"><path d="M0,256v-256h256v256z" id="bgRectangle"></path></g><g fill="none" fill-rule="nonzero" stroke="none" stroke-width="1" stroke-linecap="butt" stroke-linejoin="miter" stroke-miterlimit="10" stroke-dasharray="" stroke-dashoffset="0" font-family="none" font-weight="none" font-size="none" text-anchor="none" style="mix-blend-mode: normal"><g transform="scale(4,4)"><path d="M12,52v-10h-10v10v10h20v-10z" fill-opacity="0.12941" fill="#050505"></path><path d="M32,12v10h10v-10v-10h-20v10z" fill-opacity="0.12941" fill="#050505"></path><path d="M42,52v-10h-10h-20v10h10v10h10v-10z" fill-opacity="0.18039" fill="#1c2121"></path><path d="M12,32h10v-10h-10v-10h-10v30h10z" fill-opacity="0.2" fill="#2e2c25"></path><path d="M52,32v10h10v-30h-10z" fill-opacity="0.18039" fill="#1c2121"></path><path d="M32,52v10h30v-10zM59,58zM55,58zM51,58z" fill-opacity="0.2" fill="#2e2c25"></path><path d="M52,32h-10h-10v10h10v10h20v-10h-10z" fill-opacity="0.12941" fill="#050505"></path><path d="M12,22h10h10v-10h-10v-10h-20v10h10z" fill-opacity="0.18039" fill="#1c2121"></path><path d="M22,22v10h-10v10h20v-10h10v-10h-10z" fill-opacity="0.25098" fill="#1a1a15"></path><path d="M48,2h-6v10v10v10h10v-20h10v-10h-10z" fill-opacity="0.2" fill="#2e2c25"></path><rect x="57" y="57" width="2" height="2" fill-opacity="0.23137" fill="#151413"></rect><rect x="53" y="57" width="2" height="2" fill-opacity="0.23137" fill="#151413"></rect><rect x="49" y="57" width="2" height="2" fill-opacity="0.23137" fill="#151413"></rect></g></g></g></svg>