<svg xmlns="http://www.w3.org/2000/svg" xmlns:xlink="http://www.w3.org/1999/xlink" viewBox="0,0,256,256" width="48px" height="48px" fill-rule="nonzero"><g fill-opacity="0" fill="#dddddd" fill-rule="nonzero" stroke="none" stroke-width="1" stroke-linecap="butt" stroke-linejoin="miter" stroke-miterlimit="10" stroke-dasharray="" stroke-dashoffset="0" font-family="none" font-weight="none" font-size="none" text-anchor="none" style="mix-blend-mode: normal"><path d="M0,256v-256h256v256z" id="bgRectangle"></path></g><g fill="#ffffff" fill-rule="nonzero" stroke="none" stroke-width="1" stroke-linecap="butt" stroke-linejoin="miter" stroke-miterlimit="10" stroke-dasharray="" stroke-dashoffset="0" font-family="none" font-weight="none" font-size="none" text-anchor="none" style="mix-blend-mode: normal"><g transform="scale(5.33333,5.33333)"><path d="M23.98438,3.13477c-0.20106,0.00345 -0.3964,0.06743 -0.56055,0.18359h-0.00195c-0.73371,0.08864 -1.4755,0.20705 -2.12109,0.62109l-14,8.97852c-1.43296,0.91824 -2.30078,2.50654 -2.30078,4.20898v21.87305c0,2.74952 2.25048,5 5,5h13.83203c0.10799,0.01785 0.21818,0.01785 0.32617,0h13.8418c2.74952,0 5,-2.25048 5,-5v-11.83203c0.01785,-0.10799 0.01785,-0.21818 0,-0.32617v-9.71484c0,-1.70245 -0.86893,-3.29065 -2.30078,-4.20898l-14,-8.97852c-0.64544,-0.41394 -1.38757,-0.53044 -2.12109,-0.61914c-0.17316,-0.12339 -0.38114,-0.18839 -0.59375,-0.18555zM23,5.44141v20.55859h-13c-0.36064,-0.0051 -0.69608,0.18438 -0.87789,0.49587c-0.18181,0.3115 -0.18181,0.69676 0,1.00825c0.18181,0.3115 0.51725,0.50097 0.87789,0.49587h13v14h-13c-1.66848,0 -3,-1.33152 -3,-3v-21.87305c0,-1.02355 0.51982,-1.97363 1.38086,-2.52539l14,-8.97852c0.18912,-0.12129 0.41393,-0.10673 0.61914,-0.18164zM25,5.44141c0.2056,0.07496 0.43163,0.06013 0.62109,0.18164l14,8.97852c0.86014,0.55166 1.37891,1.50184 1.37891,2.52539v8.87305h-13c-0.36064,-0.0051 -0.69608,0.18438 -0.87789,0.49587c-0.18181,0.3115 -0.18181,0.69676 0,1.00825c0.18181,0.3115 0.51725,0.50097 0.87789,0.49587h13v11c0,1.66848 -1.33152,3 -3,3h-13v-14.83203c0.01785,-0.10799 0.01785,-0.21818 0,-0.32617zM13,16c-0.36064,-0.0051 -0.69608,0.18438 -0.87789,0.49587c-0.18181,0.3115 -0.18181,0.69676 0,1.00825c0.18181,0.3115 0.51725,0.50097 0.87789,0.49587h4c0.36064,0.0051 0.69608,-0.18438 0.87789,-0.49587c0.18181,-0.3115 0.18181,-0.69676 0,-1.00825c-0.18181,-0.3115 -0.51725,-0.50097 -0.87789,-0.49587zM31,16c-0.36064,-0.0051 -0.69608,0.18438 -0.87789,0.49587c-0.18181,0.3115 -0.18181,0.69676 0,1.00825c0.18181,0.3115 0.51725,0.50097 0.87789,0.49587h4c0.36064,0.0051 0.69608,-0.18438 0.87789,-0.49587c0.18181,-0.3115 0.18181,-0.69676 0,-1.00825c-0.18181,-0.3115 -0.51725,-0.50097 -0.87789,-0.49587zM13,32c-0.36064,-0.0051 -0.69608,0.18438 -0.87789,0.49587c-0.18181,0.3115 -0.18181,0.69676 0,1.00825c0.18181,0.3115 0.51725,0.50097 0.87789,0.49587h4c0.36064,0.0051 0.69608,-0.18438 0.87789,-0.49587c0.18181,-0.3115 0.18181,-0.69676 0,-1.00825c-0.18181,-0.3115 -0.51725,-0.50097 -0.87789,-0.49587zM31,32c-0.36064,-0.0051 -0.69608,0.18438 -0.87789,0.49587c-0.18181,0.3115 -0.18181,0.69676 0,1.00825c0.18181,0.3115 0.51725,0.50097 0.87789,0.49587h4c0.36064,0.0051 0.69608,-0.18438 0.87789,-0.49587c0.18181,-0.3115 0.18181,-0.69676 0,-1.00825c-0.18181,-0.3115 -0.51725,-0.50097 -0.87789,-0.49587z"></path></g></g></svg>