<svg xmlns="http://www.w3.org/2000/svg" xmlns:xlink="http://www.w3.org/1999/xlink" viewBox="0,0,256,256" width="48px" height="48px" fill-rule="nonzero"><g fill-opacity="0" fill="#161616" fill-rule="nonzero" stroke="none" stroke-width="1" stroke-linecap="butt" stroke-linejoin="miter" stroke-miterlimit="10" stroke-dasharray="" stroke-dashoffset="0" font-family="none" font-weight="none" font-size="none" text-anchor="none" style="mix-blend-mode: normal"><path d="M0,256v-256h256v256z" id="bgRectangle"></path></g><g fill="#ffffff" fill-rule="nonzero" stroke="none" stroke-width="1" stroke-linecap="butt" stroke-linejoin="miter" stroke-miterlimit="10" stroke-dasharray="" stroke-dashoffset="0" font-family="none" font-weight="none" font-size="none" text-anchor="none" style="mix-blend-mode: normal"><g transform="scale(5.33333,5.33333)"><path d="M14.47656,3.47852c-0.82766,0.01293 -1.48844,0.69381 -1.47656,1.52148v1h-0.5c-3.58571,0 -6.5,2.91429 -6.5,6.5v23c0,3.58571 2.91429,6.5 6.5,6.5h16.37109c0.54095,0.00765 1.04412,-0.27656 1.31683,-0.74381c0.27271,-0.46725 0.27271,-1.04514 0,-1.51238c-0.27271,-0.46725 -0.77588,-0.75146 -1.31683,-0.74381h-16.37109c-2.01429,0 -3.5,-1.48571 -3.5,-3.5v-23c0,-2.01429 1.48571,-3.5 3.5,-3.5h0.5v0.5c-0.00765,0.54095 0.27656,1.04412 0.74381,1.31683c0.46725,0.27271 1.04514,0.27271 1.51238,0c0.46725,-0.27271 0.75146,-0.77588 0.74381,-1.31683v-4.5c0.00582,-0.40562 -0.15288,-0.7963 -0.43991,-1.08296c-0.28703,-0.28666 -0.67792,-0.44486 -1.08353,-0.43852zM33.47656,3.47852c-0.82766,0.01293 -1.48844,0.69381 -1.47656,1.52148v1h-12.06445c-0.54095,-0.00765 -1.04412,0.27656 -1.31683,0.74381c-0.27271,0.46725 -0.27271,1.04514 0,1.51238c0.27271,0.46725 0.77588,0.75146 1.31683,0.74381h12.06445v0.5c-0.00765,0.54095 0.27656,1.04412 0.74381,1.31683c0.46725,0.27271 1.04514,0.27271 1.51238,0c0.46725,-0.27271 0.75146,-0.77588 0.74381,-1.31683v-0.5h0.5c2.01429,0 3.5,1.48571 3.5,3.5v1.5h-25.61719c-0.54095,-0.00765 -1.04412,0.27656 -1.31683,0.74381c-0.27271,0.46725 -0.27271,1.04514 0,1.51238c0.27271,0.46725 0.77588,0.75146 1.31683,0.74381h25.61719v18.5c0,2.01429 -1.48571,3.5 -3.5,3.5h-1.64844c-0.54095,-0.00765 -1.04412,0.27656 -1.31683,0.74381c-0.27271,0.46725 -0.27271,1.04514 0,1.51238c0.27271,0.46725 0.77588,0.75146 1.31683,0.74381h1.64844c3.58571,0 6.5,-2.91429 6.5,-6.5v-19.75391c0.02645,-0.16103 0.02645,-0.3253 0,-0.48633v-2.75977c0,-3.58571 -2.91429,-6.5 -6.5,-6.5h-0.5v-1c0.00582,-0.40562 -0.15288,-0.7963 -0.43991,-1.08296c-0.28703,-0.28666 -0.67792,-0.44486 -1.08353,-0.43852zM27.5,24c-1.91495,0 -3.5,1.58505 -3.5,3.5v4c0,1.91495 1.58505,3.5 3.5,3.5h4c1.91495,0 3.5,-1.58505 3.5,-3.5v-4c0,-1.91495 -1.58505,-3.5 -3.5,-3.5zM27.5,27h4c0.29504,0 0.5,0.20496 0.5,0.5v4c0,0.29504 -0.20496,0.5 -0.5,0.5h-4c-0.29504,0 -0.5,-0.20496 -0.5,-0.5v-4c0,-0.29504 0.20496,-0.5 0.5,-0.5z"></path></g></g></svg>