<svg xmlns="http://www.w3.org/2000/svg" xmlns:xlink="http://www.w3.org/1999/xlink" viewBox="0,0,256,256" width="48px" height="48px" fill-rule="nonzero"><g fill-opacity="0" fill="#dddddd" fill-rule="nonzero" stroke="none" stroke-width="1" stroke-linecap="butt" stroke-linejoin="miter" stroke-miterlimit="10" stroke-dasharray="" stroke-dashoffset="0" font-family="none" font-weight="none" font-size="none" text-anchor="none" style="mix-blend-mode: normal"><path d="M0,256v-256h256v256z" id="bgRectangle"></path></g><g fill="#ffffff" fill-rule="nonzero" stroke="none" stroke-width="1" stroke-linecap="butt" stroke-linejoin="miter" stroke-miterlimit="10" stroke-dasharray="" stroke-dashoffset="0" font-family="none" font-weight="none" font-size="none" text-anchor="none" style="mix-blend-mode: normal"><g transform="scale(5.33333,5.33333)"><path d="M15.4707,5.55078c-0.38956,0.01135 -0.75941,0.17386 -1.03125,0.45313l-5.375,5.375l-2.00391,-2.00391c-0.37623,-0.39185 -0.9349,-0.54969 -1.46055,-0.41265c-0.52565,0.13704 -0.93616,0.54754 -1.07319,1.07319c-0.13704,0.52565 0.02081,1.08432 0.41265,1.46055l3.06445,3.06445c0.58579,0.58555 1.5353,0.58555 2.12109,0l6.43555,-6.43555c0.4429,-0.43135 0.57582,-1.09023 0.33479,-1.65955c-0.24103,-0.56932 -0.80665,-0.93247 -1.42463,-0.91467zM20.5,9c-0.54095,-0.00765 -1.04412,0.27656 -1.31683,0.74381c-0.27271,0.46725 -0.27271,1.04514 0,1.51238c0.27271,0.46725 0.77588,0.75146 1.31683,0.74381h14.71289c0.54095,0.00765 1.04412,-0.27656 1.31683,-0.74381c0.27271,-0.46725 0.27271,-1.04514 0,-1.51238c-0.27271,-0.46725 -0.77588,-0.75146 -1.31683,-0.74381zM40.21289,9c-0.54095,-0.00765 -1.04412,0.27656 -1.31683,0.74381c-0.27271,0.46725 -0.27271,1.04514 0,1.51238c0.27271,0.46725 0.77588,0.75146 1.31683,0.74381h1.28711c0.54095,0.00765 1.04412,-0.27656 1.31683,-0.74381c0.27271,-0.46725 0.27271,-1.04514 0,-1.51238c-0.27271,-0.46725 -0.77588,-0.75146 -1.31683,-0.74381zM15.4707,18.55078c-0.38956,0.01135 -0.75941,0.17386 -1.03125,0.45313l-5.375,5.375l-2.00391,-2.00391c-0.37623,-0.39185 -0.9349,-0.54969 -1.46055,-0.41265c-0.52565,0.13704 -0.93616,0.54754 -1.07319,1.07319c-0.13704,0.52565 0.02081,1.08432 0.41265,1.46055l3.06445,3.06445c0.58579,0.58555 1.5353,0.58555 2.12109,0l6.43555,-6.43555c0.4429,-0.43135 0.57582,-1.09023 0.33479,-1.65955c-0.24103,-0.56932 -0.80665,-0.93247 -1.42463,-0.91467zM20.5,22.5c-0.54095,-0.00765 -1.04412,0.27656 -1.31683,0.74381c-0.27271,0.46725 -0.27271,1.04514 0,1.51238c0.27271,0.46725 0.77588,0.75146 1.31683,0.74381h1.9043c0.54095,0.00765 1.04412,-0.27656 1.31683,-0.74381c0.27271,-0.46725 0.27271,-1.04514 0,-1.51238c-0.27271,-0.46725 -0.77588,-0.75146 -1.31683,-0.74381zM26.80859,22.5c-0.54095,-0.00765 -1.04412,0.27656 -1.31683,0.74381c-0.27271,0.46725 -0.27271,1.04514 0,1.51238c0.27271,0.46725 0.77588,0.75146 1.31683,0.74381h14.69141c0.54095,0.00765 1.04412,-0.27656 1.31683,-0.74381c0.27271,-0.46725 0.27271,-1.04514 0,-1.51238c-0.27271,-0.46725 -0.77588,-0.75146 -1.31683,-0.74381zM7.5,32c-0.63333,0 -1.30711,0.2368 -1.78516,0.71484c-0.47805,0.47805 -0.71484,1.15182 -0.71484,1.78516v6c0,0.63333 0.2368,1.30711 0.71484,1.78516c0.47805,0.47805 1.15182,0.71484 1.78516,0.71484c0.73674,0.00775 1.37006,-0.52066 1.49442,-1.24687c0.12435,-0.72621 -0.29707,-1.43524 -0.99442,-1.67305v-5.08008h5v5.08008c-0.69735,0.23782 -1.11877,0.94684 -0.99442,1.67305c0.12435,0.72621 0.75767,1.25462 1.49442,1.24687c0.63333,0 1.30711,-0.2368 1.78516,-0.71484c0.47805,-0.47805 0.71484,-1.15182 0.71484,-1.78516v-6c0,-0.63333 -0.2368,-1.30711 -0.71484,-1.78516c-0.47805,-0.47805 -1.15182,-0.71484 -1.78516,-0.71484zM20.5,36c-0.54095,-0.00765 -1.04412,0.27656 -1.31683,0.74381c-0.27271,0.46725 -0.27271,1.04514 0,1.51238c0.27271,0.46725 0.77588,0.75146 1.31683,0.74381h14.54297c0.54095,0.00765 1.04412,-0.27656 1.31683,-0.74381c0.27271,-0.46725 0.27271,-1.04514 0,-1.51238c-0.27271,-0.46725 -0.77588,-0.75146 -1.31683,-0.74381zM39.33984,36c-0.54095,-0.00765 -1.04412,0.27656 -1.31683,0.74381c-0.27271,0.46725 -0.27271,1.04514 0,1.51238c0.27271,0.46725 0.77588,0.75146 1.31683,0.74381h2.16016c0.54095,0.00765 1.04412,-0.27656 1.31683,-0.74381c0.27271,-0.46725 0.27271,-1.04514 0,-1.51238c-0.27271,-0.46725 -0.77588,-0.75146 -1.31683,-0.74381z"></path></g></g></svg>