<svg xmlns="http://www.w3.org/2000/svg" xmlns:xlink="http://www.w3.org/1999/xlink" viewBox="0,0,256,256" width="1083px" height="1083px" fill-rule="nonzero"><g fill-opacity="0" fill="#dddddd" fill-rule="nonzero" stroke="none" stroke-width="1" stroke-linecap="butt" stroke-linejoin="miter" stroke-miterlimit="10" stroke-dasharray="" stroke-dashoffset="0" font-family="none" font-weight="none" font-size="none" text-anchor="none" style="mix-blend-mode: normal"><path d="M0,256v-256h256v256z" id="bgRectangle"></path></g><g fill="#000000" fill-rule="evenodd" stroke="none" stroke-width="1" stroke-linecap="butt" stroke-linejoin="miter" stroke-miterlimit="10" stroke-dasharray="" stroke-dashoffset="0" font-family="none" font-weight="none" font-size="none" text-anchor="none" style="mix-blend-mode: normal"><g transform="scale(0.05905,0.05905)"><path d="M1419,1998c22,18 9,-25 22,34l-36,-17c-270,-23 -357,-60 -610,52c-158,70 -298,204 -379,329c-445,687 157,1627 1032,1473c431,-75 834,-499 740,-635l-39,61c-130,341 -628,609 -1083,515c-398,-83 -739,-432 -745,-894c-6,-457 338,-828 756,-870c778,-78 1162,865 611,1305c-511,408 -1229,-101 -990,-661c39,-92 116,-184 187,-230c485,-317 949,280 625,600c-204,201 -459,90 -514,-78c-41,-124 26,-242 112,-274c134,-49 243,67 172,179c170,-88 -64,-349 -260,-179c-158,136 -75,373 61,454c366,219 733,-228 520,-596c-76,-131 -227,-245 -438,-245c-386,1 -656,390 -528,781c167,511 915,637 1253,95c152,-243 146,-547 -1,-803c-92,-160 -226,-240 -344,-339c-55,-46 -107,-117 -155,-186c-334,-479 -159,-1156 302,-1412c807,-448 1595,321 1317,1039c-317,818 -1516,574 -1457,-246c48,-660 913,-795 1137,-262c165,392 -175,790 -558,659c-147,-50 -294,-223 -239,-433c24,-93 81,-157 149,-193c85,-46 202,-46 274,12c226,181 -25,434 -135,274l-15,16c82,168 353,19 271,-209c-60,-165 -290,-237 -455,-114c-316,236 -107,755 335,722c353,-26 605,-448 394,-806c-199,-337 -628,-394 -915,-191c-670,474 -118,1567 735,1291c211,-68 280,-134 545,-132c262,2 555,129 716,302c180,194 295,461 271,754c-66,814 -1070,1136 -1551,538c-243,-302 -247,-689 -9,-997c181,-235 639,-385 963,-134c536,415 191,1193 -389,1098c-187,-31 -321,-156 -381,-302c-169,-410 300,-771 598,-509c133,117 153,351 3,449c-239,157 -432,-163 -233,-232l25,-25c-168,-2 -186,188 -80,283c219,196 563,-98 404,-404c-204,-393 -838,-197 -800,308c20,263 255,480 529,489c443,15 742,-418 613,-837c-47,-153 -116,-229 -204,-314c-178,-172 -495,-249 -784,-127c-474,201 -399,-43 -604,420c-60,-137 -27,-181 -151,-372c-28,-42 -58,-72 -73,-109c211,51 342,86 570,30c190,-47 290,-134 517,-144c400,-18 698,232 812,507c72,175 84,373 22,557c-59,176 -170,294 -283,375c-324,230 -725,131 -935,-115c-252,-296 -154,-718 112,-897c329,-221 758,-32 808,319c65,455 -475,637 -679,350c-111,-155 -42,-379 114,-425c230,-68 364,231 123,272c156,89 260,-217 38,-311c-374,-158 -567,510 -108,639c219,62 402,-58 478,-171c236,-349 -13,-736 -346,-806c-392,-82 -718,234 -735,583c-40,806 1105,1049 1442,255c163,-385 -31,-812 -244,-974c-126,-96 -261,-176 -467,-202c-253,-33 -374,32 -574,107c-768,285 -1522,-512 -1105,-1232c145,-250 504,-490 925,-346c288,98 565,429 452,839c-84,305 -429,586 -825,419c-325,-137 -471,-570 -168,-856c312,-295 828,35 654,401c-66,140 -271,250 -426,104c-174,-163 42,-429 180,-232c-13,-205 -367,-100 -280,168c51,157 266,231 435,134c302,-173 198,-718 -252,-739c-381,-17 -651,407 -468,777c140,285 541,466 900,242c470,-293 429,-1004 -91,-1265c-709,-357 -1492,434 -1095,1196c97,186 178,238 327,356c223,176 441,538 321,958c-228,802 -1303,824 -1550,119c-147,-417 94,-783 379,-898c403,-162 761,78 849,390c107,380 -209,756 -597,672c-166,-36 -301,-166 -335,-334c-101,-494 606,-603 622,-196c4,102 -44,179 -129,208c-123,41 -177,-29 -196,-129l-16,-20c-56,194 185,269 320,130c149,-152 43,-351 -73,-434c-289,-208 -710,144 -555,530c119,295 546,429 817,182c274,-250 281,-618 48,-882c-205,-232 -601,-295 -908,-92c-582,386 -337,1397 468,1432c393,17 695,-221 816,-454c158,-280 73,-500 258,-788c61,-94 49,-88 236,-108c-127,150 -255,286 -264,588c-19,704 813,1180 1486,674c34,-26 22,-17 52,-49c54,-59 68,-45 150,-178c317,-515 127,-1170 -407,-1447c-252,-131 -428,-134 -726,-100c33,-59 193,-153 265,-459c137,-585 -351,-1179 -1019,-1117c-413,38 -695,310 -829,609c-177,396 -61,861 175,1112z"></path><path d="M1109,2849l16,20l30,-53c-52,17 -18,-8 -46,34z"></path><path d="M3058,2852l52,-1c-12,-28 -3,-15 -28,-24l-25,25z"></path><path d="M1405,2015l36,17c-13,-59 -1,-16 -22,-34c4,21 8,14 -14,18z"></path><path d="M2162,1323l15,-16l-22,-9c0,23 0,12 7,25z"></path></g></g></svg>