<svg xmlns="http://www.w3.org/2000/svg" xmlns:xlink="http://www.w3.org/1999/xlink" viewBox="0,0,256,256" width="48px" height="48px" fill-rule="nonzero"><g fill-opacity="0" fill="#dddddd" fill-rule="nonzero" stroke="none" stroke-width="1" stroke-linecap="butt" stroke-linejoin="miter" stroke-miterlimit="10" stroke-dasharray="" stroke-dashoffset="0" font-family="none" font-weight="none" font-size="none" text-anchor="none" style="mix-blend-mode: normal"><path d="M0,256v-256h256v256z" id="bgRectangle"></path></g><g fill="none" fill-rule="nonzero" stroke="#ffffff" stroke-width="3" stroke-linecap="round" stroke-linejoin="round" stroke-miterlimit="10" stroke-dasharray="" stroke-dashoffset="0" font-family="none" font-weight="none" font-size="none" text-anchor="none" style="mix-blend-mode: normal"><g transform="scale(5.33333,5.33333)"><path d="M10.4,41.5h-1.9c-1.7,0 -3,-1.3 -3,-3v-29c0,-1.7 1.3,-3 3,-3h1.7"></path><path d="M42.5,38.5c0,1.7 -1.3,3 -3,3h-22c-1.7,0 -3,-1.3 -3,-3v-29c0,-1.7 1.3,-3 3,-3h7.1"></path><path d="M30.5,6.5l12,12v12.4"></path><path d="M30.5,6.5v9c0,1.7 1.3,3 3,3h2.3"></path><path d="M22.5,26.5h12"></path><path d="M22.5,33.5h9"></path></g></g></svg>