<svg xmlns="http://www.w3.org/2000/svg" xmlns:xlink="http://www.w3.org/1999/xlink" viewBox="0,0,256,256" width="64px" height="64px" fill-rule="nonzero"><g fill-opacity="0" fill="#dddddd" fill-rule="nonzero" stroke="none" stroke-width="1" stroke-linecap="butt" stroke-linejoin="miter" stroke-miterlimit="10" stroke-dasharray="" stroke-dashoffset="0" font-family="none" font-weight="none" font-size="none" text-anchor="none" style="mix-blend-mode: normal"><path d="M0,256v-256h256v256z" id="bgRectangle"></path></g><g fill="#ffffff" fill-rule="nonzero" stroke="none" stroke-width="1" stroke-linecap="butt" stroke-linejoin="miter" stroke-miterlimit="10" stroke-dasharray="" stroke-dashoffset="0" font-family="none" font-weight="none" font-size="none" text-anchor="none" style="mix-blend-mode: normal"><g transform="scale(2,2)"><path d="M16.9,91.1c0.6,0.6 1.4,0.9 2.1,0.9c0.7,0 1.5,-0.3 2.1,-0.9l15,-15c1.2,-1.2 1.2,-3.1 0,-4.2c-1.2,-1.2 -3.1,-1.2 -4.2,0l-9.9,9.9v-57.8c0,-3.9 3.1,-7 7,-7h70c1.7,0 3,-1.3 3,-3c0,-1.7 -1.3,-3 -3,-3h-70c-7.2,0 -13,5.8 -13,13v57.8l-9.9,-9.9c-1.2,-1.2 -3.1,-1.2 -4.2,0c-1.2,1.2 -1.2,3.1 0,4.2zM111.1,36.9c-1.2,-1.2 -3.1,-1.2 -4.2,0l-15,15c-1.2,1.2 -1.2,3.1 0,4.2c1.2,1.2 3.1,1.2 4.2,0l9.9,-9.9v57.8c0,3.9 -3.1,7 -7,7h-70c-1.7,0 -3,1.3 -3,3c0,1.7 1.3,3 3,3h70c7.2,0 13,-5.8 13,-13v-57.8l9.9,9.9c0.6,0.6 1.4,0.9 2.1,0.9c0.7,0 1.5,-0.3 2.1,-0.9c1.2,-1.2 1.2,-3.1 0,-4.2z"></path></g></g></svg>