<svg xmlns="http://www.w3.org/2000/svg" xmlns:xlink="http://www.w3.org/1999/xlink" viewBox="0,0,256,256" width="48px" height="48px" fill-rule="nonzero"><g fill-opacity="0" fill="#dddddd" fill-rule="nonzero" stroke="none" stroke-width="1" stroke-linecap="butt" stroke-linejoin="miter" stroke-miterlimit="10" stroke-dasharray="" stroke-dashoffset="0" font-family="none" font-weight="none" font-size="none" text-anchor="none" style="mix-blend-mode: normal"><path d="M0,256v-256h256v256z" id="bgRectangle"></path></g><g fill="none" fill-rule="nonzero" stroke="#ffffff" stroke-width="3" stroke-linecap="round" stroke-linejoin="round" stroke-miterlimit="10" stroke-dasharray="" stroke-dashoffset="0" font-family="none" font-weight="none" font-size="none" text-anchor="none" style="mix-blend-mode: normal"><g transform="scale(5.33333,5.33333)"><path d="M22.8,6.51c0.4,-0.01 0.8,-0.01 1.2,-0.01c8.56,0 15.5,2.24 15.5,5c0,2.76 -6.94,5 -15.5,5c-8.56,0 -15.5,-2.24 -15.5,-5c0,-1.83 3.06,-3.44 7.62,-4.31"></path><path d="M39.5,18.17c0,-3.8 0,-6.67 0,-6.67"></path><path d="M8.5,11.5c0,0 0,24.93 0,25c0,2.76 6.94,5 15.5,5c2.58,0 5.01,-0.2 7.15,-0.56"></path><path d="M27.74,33.05c-1.2,0.1 -2.45,0.15 -3.74,0.15c-8.56,0 -15.5,-2.24 -15.5,-5"></path><path d="M30.71,24.31c-2.03,0.31 -4.3,0.49 -6.71,0.49c-8.56,0 -15.5,-2.24 -15.5,-5"></path><path d="M39.5,45.69v-20.89"></path><path d="M33.31,31.3l6.19,-6.5l6.19,6.5"></path></g></g></svg>