<svg xmlns="http://www.w3.org/2000/svg" xmlns:xlink="http://www.w3.org/1999/xlink" viewBox="0,0,256,256" width="24px" height="24px" fill-rule="nonzero"><g fill-opacity="0" fill="#dddddd" fill-rule="nonzero" stroke="none" stroke-width="1" stroke-linecap="butt" stroke-linejoin="miter" stroke-miterlimit="10" stroke-dasharray="" stroke-dashoffset="0" font-family="none" font-weight="none" font-size="none" text-anchor="none" style="mix-blend-mode: normal"><path d="M0,256v-256h256v256z" id="bgRectangle"></path></g><g fill="#ffffff" fill-rule="nonzero" stroke="none" stroke-width="1" stroke-linecap="butt" stroke-linejoin="miter" stroke-miterlimit="10" stroke-dasharray="" stroke-dashoffset="0" font-family="none" font-weight="none" font-size="none" text-anchor="none" style="mix-blend-mode: normal"><g transform="scale(10.66667,10.66667)"><path d="M12,-0.5c-1.37479,0 -2.5,1.12521 -2.5,2.5c0,0.10761 0.0258,0.20954 0.03906,0.31445l-7.25195,7.22266c-0.096,-0.01337 -0.18141,-0.03711 -0.28711,-0.03711c-1.37479,0 -2.5,1.12521 -2.5,2.5c0,1.37479 1.12521,2.5 2.5,2.5c0.1057,0 0.19111,-0.02374 0.28711,-0.03711l7.25195,7.22266c-0.01327,0.10491 -0.03906,0.20684 -0.03906,0.31445c0,1.37479 1.12521,2.5 2.5,2.5c1.37479,0 2.5,-1.12521 2.5,-2.5c0,-0.14917 -0.04328,-0.29551 -0.06836,-0.44336l7.15234,-7.12305c0.1378,0.02501 0.26803,0.06641 0.41602,0.06641c1.37479,0 2.5,-1.12521 2.5,-2.5c0,-1.37479 -1.12521,-2.5 -2.5,-2.5c-0.14799,0 -0.27821,0.04139 -0.41602,0.06641l-7.15234,-7.12305c0.02508,-0.14785 0.06836,-0.29419 0.06836,-0.44336c0,-1.37479 -1.12521,-2.5 -2.5,-2.5zM12,0.5c0.83435,0 1.5,0.66565 1.5,1.5c0,0.17213 -0.02315,0.33066 -0.06836,0.46875l-0.0957,0.29297l7.93164,7.89844l0.28711,-0.08984c0.14693,-0.0457 0.29504,-0.07031 0.44531,-0.07031c0.83435,0 1.5,0.66565 1.5,1.5c0,0.83435 -0.66565,1.5 -1.5,1.5c-0.15027,0 -0.29838,-0.02461 -0.44531,-0.07031l-0.28711,-0.08984l-7.93164,7.89844l0.0957,0.29297c0.04521,0.13809 0.06836,0.29662 0.06836,0.46875c0,0.83435 -0.66565,1.5 -1.5,1.5c-0.83435,0 -1.5,-0.66565 -1.5,-1.5c0,-0.13126 0.01638,-0.25644 0.04688,-0.375l0.07031,-0.27734l-7.99414,-7.96094l-0.27148,0.06445c-0.12774,0.03084 -0.24284,0.04883 -0.35156,0.04883c-0.83435,0 -1.5,-0.66565 -1.5,-1.5c0,-0.83435 0.66565,-1.5 1.5,-1.5c0.10873,0 0.22382,0.01799 0.35156,0.04883l0.27148,0.06445l7.99414,-7.96094l-0.07031,-0.27734c-0.0305,-0.11856 -0.04687,-0.24373 -0.04687,-0.375c0,-0.83435 0.66565,-1.5 1.5,-1.5zM11.29297,3.375l-0.20899,0.20898l-7.70898,7.70898l0.08203,0.2832c0.02973,0.10272 0.04297,0.25007 0.04297,0.42383c0,0.17376 -0.01324,0.32111 -0.04297,0.42383l-0.08203,0.2832l7.91797,7.91797l0.2832,-0.08203c0.10272,-0.02972 0.25007,-0.04297 0.42383,-0.04297c0.14713,0 0.26322,0.0048 0.33008,0.01953l0.26758,0.05859l7.98047,-7.98047l-0.05469,-0.25c-0.0018,-0.02017 0.00375,-0.01354 -0.00195,-0.04101c-0.01495,-0.07331 -0.02148,-0.1797 -0.02148,-0.30664c0,-0.12695 0.0065,-0.23333 0.02148,-0.30664c0.0056,-0.02749 0.00009,-0.02085 0.00195,-0.04101l0.05469,-0.25l-7.98047,-7.98047l-0.26758,0.05859c-0.06691,0.01473 -0.18295,0.01953 -0.33008,0.01953c-0.17376,0 -0.32111,-0.01324 -0.42383,-0.04297zM11.625,4.45703c0.12624,0.01365 0.2612,0.04297 0.375,0.04297c0.06655,0 0.16272,-0.01624 0.24219,-0.01953l7.27734,7.27734c-0.00495,0.08061 -0.01953,0.17076 -0.01953,0.24219c0,0.07143 0.01459,0.16158 0.01953,0.24219l-7.27734,7.27734c-0.07946,-0.00329 -0.17563,-0.01953 -0.24219,-0.01953c-0.1138,0 -0.24876,0.02932 -0.375,0.04297l-7.16797,-7.16797c0.01365,-0.12624 0.04297,-0.2612 0.04297,-0.375c0,-0.1138 -0.02932,-0.24876 -0.04297,-0.375z"></path></g></g></svg>