<svg xmlns="http://www.w3.org/2000/svg" xmlns:xlink="http://www.w3.org/1999/xlink" viewBox="0,0,256,256" width="25px" height="25px" fill-rule="nonzero"><g fill-opacity="0" fill="#dddddd" fill-rule="nonzero" stroke="none" stroke-width="1" stroke-linecap="butt" stroke-linejoin="miter" stroke-miterlimit="10" stroke-dasharray="" stroke-dashoffset="0" font-family="none" font-weight="none" font-size="none" text-anchor="none" style="mix-blend-mode: normal"><path d="M0,256v-256h256v256z" id="bgRectangle"></path></g><g fill="#ffffff" fill-rule="nonzero" stroke="none" stroke-width="1" stroke-linecap="butt" stroke-linejoin="miter" stroke-miterlimit="10" stroke-dasharray="" stroke-dashoffset="0" font-family="none" font-weight="none" font-size="none" text-anchor="none" style="mix-blend-mode: normal"><g transform="translate(-0.08258,256.0314) rotate(-90) scale(5.33333,5.33333)"><path d="M9.7793,12c-3.06938,0 -4.8228,3.80907 -2.82617,6.14063l5.06641,5.91602c0.34034,0.43342 0.89091,0.64534 1.43402,0.55198c0.54311,-0.09336 0.9913,-0.47698 1.16737,-0.99917c0.17607,-0.52219 0.05166,-1.09887 -0.32404,-1.50203l-5.06641,-5.91797c-0.47137,-0.55044 -0.17579,-1.18945 0.54883,-1.18945h17.83789c0.54095,0.00765 1.04412,-0.27656 1.31683,-0.74381c0.27271,-0.46725 0.27271,-1.04514 0,-1.51238c-0.27271,-0.46725 -0.77588,-0.75146 -1.31683,-0.74381zM35.27734,12c-0.54095,-0.00765 -1.04412,0.27656 -1.31683,0.74381c-0.27271,0.46725 -0.27271,1.04514 0,1.51238c0.27271,0.46725 0.77588,0.75146 1.31683,0.74381h2.92383c0.7323,0 1.031,0.64881 0.55469,1.20508l-14.1875,16.57031c-0.31802,0.37115 -0.81987,0.37209 -1.13672,0.00195l-4.70703,-5.49805c-0.34295,-0.42602 -0.89057,-0.63164 -1.42916,-0.53663c-0.53859,0.09501 -0.9828,0.4756 -1.15928,0.99325c-0.17648,0.51765 -0.05728,1.09032 0.31111,1.49455l4.70703,5.49609c1.47715,1.72581 4.21538,1.72676 5.69336,0.00195c0,-0.00065 0,-0.0013 0,-0.00195l14.1875,-16.57031c2.00169,-2.33773 0.24372,-6.15625 -2.83398,-6.15625z"></path></g></g></svg>