<svg xmlns="http://www.w3.org/2000/svg" xmlns:xlink="http://www.w3.org/1999/xlink" viewBox="0,0,256,256" width="32px" height="32px"><g fill-opacity="0" fill="#dddddd" fill-rule="nonzero" stroke="none" stroke-width="1" stroke-linecap="butt" stroke-linejoin="miter" stroke-miterlimit="10" stroke-dasharray="" stroke-dashoffset="0" font-family="none" font-weight="none" font-size="none" text-anchor="none" style="mix-blend-mode: normal"><path d="M0,256v-256h256v256z" id="bgRectangle"></path></g><g fill="none" fill-rule="nonzero" stroke="none" stroke-width="1" stroke-linecap="butt" stroke-linejoin="miter" stroke-miterlimit="10" stroke-dasharray="" stroke-dashoffset="0" font-family="none" font-weight="none" font-size="none" text-anchor="none" style="mix-blend-mode: normal"><g transform="scale(8,8)"><path d="M27,16c0,5.728 -4.402,10.442 -10,10.949v4c7.805,-0.518 14,-7.015 14,-14.949c0,-7.934 -6.195,-14.431 -14,-14.949v4c5.598,0.507 10,5.221 10,10.949z" fill="#ed0049"></path><path d="M5,16c0,-5.728 4.402,-10.442 10,-10.949v-4c-7.805,0.518 -14,7.015 -14,14.949c0,7.934 6.195,14.431 14,14.949v-4c-5.598,-0.507 -10,-5.221 -10,-10.949z" fill="#ed0049"></path><path d="M17,14.963h-2c-0.552,0 -1,-0.448 -1,-1c0,-0.552 0.448,-1 1,-1h2c0.552,0 1,0.448 1,1h3c0,-2.206 -1.794,-4 -4,-4v-1h-2v1c-2.206,0 -4,1.794 -4,4c0,2.206 1.794,4 4,4h2c0.552,0 1,0.448 1,1c0,0.552 -0.448,1 -1,1h-2c-0.552,0 -1,-0.448 -1,-1h-3c0,2.206 1.794,4 4,4v1h2v-1c2.206,0 4,-1.794 4,-4c0,-2.206 -1.794,-4 -4,-4z" fill="#8585f5"></path></g></g></svg>