<svg xmlns="http://www.w3.org/2000/svg" xmlns:xlink="http://www.w3.org/1999/xlink" viewBox="0,0,256,256" width="25px" height="25px" fill-rule="nonzero"><g fill-opacity="0" fill="#dddddd" fill-rule="nonzero" stroke="none" stroke-width="1" stroke-linecap="butt" stroke-linejoin="miter" stroke-miterlimit="10" stroke-dasharray="" stroke-dashoffset="0" font-family="none" font-weight="none" font-size="none" text-anchor="none" style="mix-blend-mode: normal"><path d="M0,256v-256h256v256z" id="bgRectangle"></path></g><g fill="#ffffff" fill-rule="nonzero" stroke="none" stroke-width="1" stroke-linecap="butt" stroke-linejoin="miter" stroke-miterlimit="10" stroke-dasharray="" stroke-dashoffset="0" font-family="none" font-weight="none" font-size="none" text-anchor="none" style="mix-blend-mode: normal"><g transform="scale(5.33333,5.33333)"><path d="M10.5,6c-2.4675,0 -4.5,2.0325 -4.5,4.5v8c0,2.4675 2.0325,4.5 4.5,4.5h8c2.4675,0 4.5,-2.0325 4.5,-4.5v-8c0,-2.4675 -2.0325,-4.5 -4.5,-4.5h-2.39453c-0.54095,-0.00765 -1.04412,0.27656 -1.31683,0.74381c-0.27271,0.46725 -0.27271,1.04514 0,1.51238c0.27271,0.46725 0.77588,0.75146 1.31683,0.74381h2.39453c0.8465,0 1.5,0.6535 1.5,1.5v8c0,0.8465 -0.6535,1.5 -1.5,1.5h-8c-0.8465,0 -1.5,-0.6535 -1.5,-1.5v-8c0,-0.8465 0.6535,-1.5 1.5,-1.5h0.24414c0.54095,0.00765 1.04412,-0.27656 1.31683,-0.74381c0.27271,-0.46725 0.27271,-1.04514 0,-1.51238c-0.27271,-0.46725 -0.77588,-0.75146 -1.31683,-0.74381zM29.5,6c-2.4675,0 -4.5,2.0325 -4.5,4.5v8c0,2.4675 2.0325,4.5 4.5,4.5h8c2.4675,0 4.5,-2.0325 4.5,-4.5v-1.4043c0.00765,-0.54095 -0.27656,-1.04412 -0.74381,-1.31683c-0.46725,-0.27271 -1.04514,-0.27271 -1.51238,0c-0.46725,0.27271 -0.75146,0.77588 -0.74381,1.31683v1.4043c0,0.8465 -0.6535,1.5 -1.5,1.5h-8c-0.8465,0 -1.5,-0.6535 -1.5,-1.5v-8c0,-0.8465 0.6535,-1.5 1.5,-1.5h8c0.80142,0 1.42671,0.59383 1.49414,1.36523c0.03673,0.54174 0.36333,1.02135 0.85395,1.254c0.49062,0.23265 1.06866,0.18203 1.51136,-0.13237c0.44271,-0.31439 0.68097,-0.84347 0.62297,-1.38335c-0.20057,-2.2946 -2.14784,-4.10352 -4.48242,-4.10352zM10.5,25c-2.4675,0 -4.5,2.0325 -4.5,4.5v8c0,2.4675 2.0325,4.5 4.5,4.5h8c2.4675,0 4.5,-2.0325 4.5,-4.5v-2.16016c0.00765,-0.54095 -0.27656,-1.04412 -0.74381,-1.31683c-0.46725,-0.27271 -1.04514,-0.27271 -1.51238,0c-0.46725,0.27271 -0.75146,0.77588 -0.74381,1.31683v2.16016c0,0.8465 -0.6535,1.5 -1.5,1.5h-8c-0.8465,0 -1.5,-0.6535 -1.5,-1.5v-8c0,-0.8465 0.6535,-1.5 1.5,-1.5h8c0.79718,0 1.41938,0.58979 1.49219,1.35352c0.04281,0.54001 0.37342,1.015 0.86496,1.24267c0.49154,0.22767 1.06764,0.17266 1.50721,-0.14392c0.43957,-0.31658 0.67432,-0.84556 0.61416,-1.38391c-0.21719,-2.27828 -2.15569,-4.06836 -4.47852,-4.06836zM29.5,25c-2.4675,0 -4.5,2.0325 -4.5,4.5v8c0,2.4675 2.0325,4.5 4.5,4.5c0.54095,0.00765 1.04412,-0.27656 1.31683,-0.74381c0.27271,-0.46725 0.27271,-1.04514 0,-1.51238c-0.27271,-0.46725 -0.77588,-0.75146 -1.31683,-0.74381c-0.8465,0 -1.5,-0.6535 -1.5,-1.5v-8c0,-0.8465 0.6535,-1.5 1.5,-1.5h8c0.8465,0 1.5,0.6535 1.5,1.5v8c0,0.8465 -0.6535,1.5 -1.5,1.5h-0.68164c-0.54095,-0.00765 -1.04412,0.27656 -1.31683,0.74381c-0.27271,0.46725 -0.27271,1.04514 0,1.51238c0.27271,0.46725 0.77588,0.75146 1.31683,0.74381h0.68164c2.4675,0 4.5,-2.0325 4.5,-4.5v-8c0,-2.4675 -2.0325,-4.5 -4.5,-4.5z"></path></g></g></svg>