<svg xmlns="http://www.w3.org/2000/svg" xmlns:xlink="http://www.w3.org/1999/xlink" viewBox="0,0,256,256" width="64px" height="64px" fill-rule="nonzero"><defs><linearGradient x1="23" y1="39" x2="23" y2="43.382" gradientUnits="userSpaceOnUse" id="color-1"><stop offset="0" stop-color="#6dc7ff"></stop><stop offset="1" stop-color="#e6abff"></stop></linearGradient><linearGradient x1="41" y1="21" x2="41" y2="25.625" gradientUnits="userSpaceOnUse" id="color-2"><stop offset="0" stop-color="#6dc7ff"></stop><stop offset="1" stop-color="#e6abff"></stop></linearGradient><linearGradient x1="32" y1="6.833" x2="32" y2="57.522" gradientUnits="userSpaceOnUse" id="color-3"><stop offset="0" stop-color="#1a6dff"></stop><stop offset="1" stop-color="#c822ff"></stop></linearGradient><linearGradient x1="23" y1="6.833" x2="23" y2="57.522" gradientUnits="userSpaceOnUse" id="color-4"><stop offset="0" stop-color="#1a6dff"></stop><stop offset="1" stop-color="#c822ff"></stop></linearGradient><linearGradient x1="23" y1="6.833" x2="23" y2="57.522" gradientUnits="userSpaceOnUse" id="color-5"><stop offset="0" stop-color="#1a6dff"></stop><stop offset="1" stop-color="#c822ff"></stop></linearGradient><linearGradient x1="41" y1="6.833" x2="41" y2="57.522" gradientUnits="userSpaceOnUse" id="color-6"><stop offset="0" stop-color="#1a6dff"></stop><stop offset="1" stop-color="#c822ff"></stop></linearGradient><linearGradient x1="41" y1="6.833" x2="41" y2="57.522" gradientUnits="userSpaceOnUse" id="color-7"><stop offset="0" stop-color="#1a6dff"></stop><stop offset="1" stop-color="#c822ff"></stop></linearGradient><linearGradient x1="23" y1="6.833" x2="23" y2="57.522" gradientUnits="userSpaceOnUse" id="color-8"><stop offset="0" stop-color="#1a6dff"></stop><stop offset="1" stop-color="#c822ff"></stop></linearGradient><linearGradient x1="23" y1="6.833" x2="23" y2="57.522" gradientUnits="userSpaceOnUse" id="color-9"><stop offset="0" stop-color="#1a6dff"></stop><stop offset="1" stop-color="#c822ff"></stop></linearGradient><linearGradient x1="37" y1="6.833" x2="37" y2="57.522" gradientUnits="userSpaceOnUse" id="color-10"><stop offset="0" stop-color="#1a6dff"></stop><stop offset="1" stop-color="#c822ff"></stop></linearGradient><linearGradient x1="35" y1="6.833" x2="35" y2="57.522" gradientUnits="userSpaceOnUse" id="color-11"><stop offset="0" stop-color="#1a6dff"></stop><stop offset="1" stop-color="#c822ff"></stop></linearGradient><linearGradient x1="40" y1="6.833" x2="40" y2="57.522" gradientUnits="userSpaceOnUse" id="color-12"><stop offset="0" stop-color="#1a6dff"></stop><stop offset="1" stop-color="#c822ff"></stop></linearGradient><linearGradient x1="46" y1="6.833" x2="46" y2="57.522" gradientUnits="userSpaceOnUse" id="color-13"><stop offset="0" stop-color="#1a6dff"></stop><stop offset="1" stop-color="#c822ff"></stop></linearGradient><linearGradient x1="41" y1="6.833" x2="41" y2="57.522" gradientUnits="userSpaceOnUse" id="color-14"><stop offset="0" stop-color="#1a6dff"></stop><stop offset="1" stop-color="#c822ff"></stop></linearGradient><linearGradient x1="47" y1="6.833" x2="47" y2="57.522" gradientUnits="userSpaceOnUse" id="color-15"><stop offset="0" stop-color="#1a6dff"></stop><stop offset="1" stop-color="#c822ff"></stop></linearGradient><linearGradient x1="44.5" y1="6.833" x2="44.5" y2="57.522" gradientUnits="userSpaceOnUse" id="color-16"><stop offset="0" stop-color="#1a6dff"></stop><stop offset="1" stop-color="#c822ff"></stop></linearGradient><linearGradient x1="45" y1="6.833" x2="45" y2="57.522" gradientUnits="userSpaceOnUse" id="color-17"><stop offset="0" stop-color="#1a6dff"></stop><stop offset="1" stop-color="#c822ff"></stop></linearGradient><linearGradient x1="37" y1="6.833" x2="37" y2="57.522" gradientUnits="userSpaceOnUse" id="color-18"><stop offset="0" stop-color="#1a6dff"></stop><stop offset="1" stop-color="#c822ff"></stop></linearGradient><linearGradient x1="23" y1="21" x2="23" y2="25.625" gradientUnits="userSpaceOnUse" id="color-19"><stop offset="0" stop-color="#6dc7ff"></stop><stop offset="1" stop-color="#e6abff"></stop></linearGradient></defs><g fill-opacity="0" fill="#dddddd" fill-rule="nonzero" stroke="none" stroke-width="1" stroke-linecap="butt" stroke-linejoin="miter" stroke-miterlimit="10" stroke-dasharray="" stroke-dashoffset="0" font-family="none" font-weight="none" font-size="none" text-anchor="none" style="mix-blend-mode: normal"><path d="M0,256v-256h256v256z" id="bgRectangle"></path></g><g fill="none" fill-rule="nonzero" stroke="none" stroke-width="1" stroke-linecap="butt" stroke-linejoin="miter" stroke-miterlimit="10" stroke-dasharray="" stroke-dashoffset="0" font-family="none" font-weight="none" font-size="none" text-anchor="none" style="mix-blend-mode: normal"><g transform="scale(4,4)"><path d="M21,39h4v4h-4z" fill="url(#color-1)"></path><path d="M39,21h4v4h-4z" fill="url(#color-2)"></path><path d="M52,7h-40c-2.757,0 -5,2.243 -5,5v40c0,2.757 2.243,5 5,5h40c2.757,0 5,-2.243 5,-5v-40c0,-2.757 -2.243,-5 -5,-5zM55,52c0,1.654 -1.346,3 -3,3h-40c-1.654,0 -3,-1.346 -3,-3v-40c0,-1.654 1.346,-3 3,-3h40c1.654,0 3,1.346 3,3z" fill="url(#color-3)"></path><path d="M29,33h-12c-1.103,0 -2,0.897 -2,2v12c0,1.103 0.897,2 2,2h12c1.103,0 2,-0.897 2,-2v-12c0,-1.103 -0.897,-2 -2,-2zM17,47v-12h12l0.002,12z" fill="url(#color-4)"></path><path d="M25,37h-4c-1.103,0 -2,0.897 -2,2v4c0,1.103 0.897,2 2,2h4c1.103,0 2,-0.897 2,-2v-4c0,-1.103 -0.897,-2 -2,-2zM21,43v-4h4l0.002,4z" fill="url(#color-5)"></path><path d="M47,15h-12c-1.103,0 -2,0.897 -2,2v12c0,1.103 0.897,2 2,2h12c1.103,0 2,-0.897 2,-2v-12c0,-1.103 -0.897,-2 -2,-2zM35,29v-12h12l0.002,12z" fill="url(#color-6)"></path><path d="M43,19h-4c-1.103,0 -2,0.897 -2,2v4c0,1.103 0.897,2 2,2h4c1.103,0 2,-0.897 2,-2v-4c0,-1.103 -0.897,-2 -2,-2zM39,25v-4h4l0.002,4z" fill="url(#color-7)"></path><path d="M29,15h-12c-1.103,0 -2,0.897 -2,2v12c0,1.103 0.897,2 2,2h12c1.103,0 2,-0.897 2,-2v-12c0,-1.103 -0.897,-2 -2,-2zM17,29v-12h12l0.002,12z" fill="url(#color-8)"></path><path d="M25,19h-4c-1.103,0 -2,0.897 -2,2v4c0,1.103 0.897,2 2,2h4c1.103,0 2,-0.897 2,-2v-4c0,-1.103 -0.897,-2 -2,-2zM21,25v-4h4l0.002,4z" fill="url(#color-9)"></path><path d="M35,39h4v4h2v-4c0,-1.103 -0.897,-2 -2,-2h-4v-2h2v-2h-2c-1.103,0 -2,0.897 -2,2v5h2z" fill="url(#color-10)"></path><path d="M35,42h-2v5c0,1.103 0.897,2 2,2h2v-2h-2z" fill="url(#color-11)"></path><path d="M39,33h2v2h-2z" fill="url(#color-12)"></path><path d="M47,33h-4v2h4v5h2v-5c0,-1.103 -0.897,-2 -2,-2z" fill="url(#color-13)"></path><path d="M41,45h-2v2c0,1.103 0.897,2 2,2h2v-2h-2z" fill="url(#color-14)"></path><path d="M47,47h-2v2h2c1.103,0 2,-0.897 2,-2v-5h-2z" fill="url(#color-15)"></path><path d="M46,45v-2c0,-1.103 -0.897,-2 -2,-2h-1v2h1v2z" fill="url(#color-16)"></path><path d="M44,37h2v2h-2z" fill="url(#color-17)"></path><path d="M36,43h2v2h-2z" fill="url(#color-18)"></path><path d="M21,21h4v4h-4z" fill="url(#color-19)"></path></g></g></svg>