<svg xmlns="http://www.w3.org/2000/svg" xmlns:xlink="http://www.w3.org/1999/xlink" viewBox="0,0,256,256" width="128px" height="128px" fill-rule="nonzero"><g fill="#f5f5f5" fill-rule="nonzero" stroke="none" stroke-width="1" stroke-linecap="butt" stroke-linejoin="miter" stroke-miterlimit="10" stroke-dasharray="" stroke-dashoffset="0" font-family="none" font-weight="none" font-size="none" text-anchor="none" style="mix-blend-mode: normal"><g transform="scale(2,2)"><path d="M13.9082,31.69531c-0.13379,-0.00879 -0.2707,-0.00859 -0.4082,0.00391l-9.59961,0.30078c-1.7,0.1 -3.00039,1.39961 -2.90039,3.09961c0.1,1.7 1.49961,3.00039 3.09961,2.90039l7.80078,-0.30078l23.59961,40.90039c0.6,1 1.59961,1.5 2.59961,1.5c0.5,0 1,-0.10039 1.5,-0.40039c1.4,-0.8 1.89961,-2.69961 1.09961,-4.09961l-1,-1.69922l16.5,-9.40039l3.5,6c0.6,1 1.60156,1.5 2.60156,1.5c0.5,0 1,-0.10039 1.5,-0.40039c1.4,-0.8 1.89961,-2.69961 1.09961,-4.09961l-3.5,-6l16.40039,-9.40039l22,38l-32.10156,18.5c-1.2,0.7 -1.79844,2.10039 -1.39844,3.40039c0.4,1.3 1.49844,2.19922 2.89844,2.19922h5.40039c-2.7,4.1 -7.29961,6.90039 -12.59961,6.90039h-0.09961c-1.6,0 -3,1.3 -3,3c0,1.7 1.3,3 3,3h0.09961c8.7,0 16.20039,-5.30039 19.40039,-12.90039h7.79883c0.5,0 1,-0.09844 1.5,-0.39844l34.70117,-20c1.2,-0.7 1.80039,-2.10039 1.40039,-3.40039c-0.1,-0.2 -0.20078,-0.50117 -0.30078,-0.70117l-25,-43.29883c-0.5,-0.9 -1.49961,-1.5 -2.59961,-1.5l-19.90039,0.09961h-0.09961c-0.5,0 -1,0.10039 -1.5,0.40039l-40.70117,23.29883l-20.5,-35.5c-0.525,-0.875 -1.35449,-1.44238 -2.29102,-1.50391zM33.90625,31.69531c-0.13379,-0.00879 -0.26875,-0.00859 -0.40625,0.00391l-7.59961,0.30078c-1.7,0.1 -2.90039,1.49961 -2.90039,3.09961c0.1,1.7 1.49961,2.90039 3.09961,2.90039l5.80078,-0.30078l10.59961,18.30078c0.6,1 1.59961,1.5 2.59961,1.5c0.5,0 1,-0.10039 1.5,-0.40039c1.4,-0.8 1.89961,-2.69961 1.09961,-4.09961l-11.5,-19.80078c-0.525,-0.875 -1.35645,-1.44238 -2.29297,-1.50391zM97.19922,50.80078l21.5,37.29883h-13.09961l-21.5,-37.09961zM42,85c-11.5,0 -20.9,9.30039 -21,20.90039c-0.1,11.6 9.30039,20.99961 20.90039,21.09961h0.09961c11.5,0 20.9,-9.30039 21,-20.90039c0.1,-11.6 -9.30039,-20.99961 -20.90039,-21.09961zM42,91h0.09961c8.3,0 15.00039,6.79961 14.90039,15.09961c0,8.2 -6.8,14.90039 -15,14.90039h-0.09961c-8.2,0 -14.90039,-6.79961 -14.90039,-15.09961c0,-8.2 6.8,-14.90039 15,-14.90039z"></path></g></g></svg>