<svg xmlns="http://www.w3.org/2000/svg" xmlns:xlink="http://www.w3.org/1999/xlink" viewBox="0,0,256,256" width="48px" height="48px" fill-rule="nonzero"><g fill-opacity="0" fill="#dddddd" fill-rule="nonzero" stroke="none" stroke-width="1" stroke-linecap="butt" stroke-linejoin="miter" stroke-miterlimit="10" stroke-dasharray="" stroke-dashoffset="0" font-family="none" font-weight="none" font-size="none" text-anchor="none" style="mix-blend-mode: normal"><path d="M0,256v-256h256v256z" id="bgRectangle"></path></g><g fill="#ffffff" fill-rule="nonzero" stroke="none" stroke-width="1" stroke-linecap="butt" stroke-linejoin="miter" stroke-miterlimit="10" stroke-dasharray="" stroke-dashoffset="0" font-family="none" font-weight="none" font-size="none" text-anchor="none" style="mix-blend-mode: normal"><g transform="scale(5.33333,5.33333)"><path d="M4.5,7c-0.54095,-0.00765 -1.04412,0.27656 -1.31683,0.74381c-0.27271,0.46725 -0.27271,1.04514 0,1.51238c0.27271,0.46725 0.77588,0.75146 1.31683,0.74381c1.95006,0 3.5,1.54994 3.5,3.5v16c0,5.22877 4.27123,9.5 9.5,9.5h1.00195c-0.56795,0.75726 -0.6595,1.77035 -0.23651,2.61716c0.42299,0.84681 1.28797,1.3821 2.23455,1.38284c0.94658,-0.00074 1.81156,-0.53603 2.23455,-1.38284c0.42299,-0.84681 0.33144,-1.8599 -0.23651,-2.61716h13.00391c-0.56795,0.75726 -0.6595,1.77035 -0.23651,2.61716c0.42299,0.84681 1.28797,1.3821 2.23455,1.38284c0.94658,-0.00074 1.81156,-0.53603 2.23455,-1.38284c0.42299,-0.84681 0.33144,-1.8599 -0.23651,-2.61716h4.00195c0.54095,0.00765 1.04412,-0.27656 1.31683,-0.74381c0.27271,-0.46725 0.27271,-1.04514 0,-1.51238c-0.27271,-0.46725 -0.77588,-0.75146 -1.31683,-0.74381h-26c-3.60723,0 -6.5,-2.89277 -6.5,-6.5v-16c0,-3.57194 -2.92806,-6.5 -6.5,-6.5zM15.5,10c-0.82839,0.00008 -1.49992,0.67161 -1.5,1.5v17c0,2.4675 2.0325,4.5 4.5,4.5h19c2.4675,0 4.5,-2.0325 4.5,-4.5v-17c-0.00008,-0.82839 -0.67161,-1.49992 -1.5,-1.5zM17,13h22v15.5c0,0.8465 -0.6535,1.5 -1.5,1.5h-19c-0.8465,0 -1.5,-0.6535 -1.5,-1.5zM24.5,16c-0.54095,-0.00765 -1.04412,0.27656 -1.31683,0.74381c-0.27271,0.46725 -0.27271,1.04514 0,1.51238c0.27271,0.46725 0.77588,0.75146 1.31683,0.74381h7c0.54095,0.00765 1.04412,-0.27656 1.31683,-0.74381c0.27271,-0.46725 0.27271,-1.04514 0,-1.51238c-0.27271,-0.46725 -0.77588,-0.75146 -1.31683,-0.74381z"></path></g></g></svg>