<svg xmlns="http://www.w3.org/2000/svg" xmlns:xlink="http://www.w3.org/1999/xlink" viewBox="0,0,256,256" width="64px" height="64px" fill-rule="nonzero"><defs><linearGradient x1="32" y1="4.667" x2="32" y2="59.173" gradientUnits="userSpaceOnUse" id="color-1"><stop offset="0" stop-color="#1a6dff"></stop><stop offset="1" stop-color="#c822ff"></stop></linearGradient><linearGradient x1="30.835" y1="16.25" x2="30.835" y2="48.774" gradientUnits="userSpaceOnUse" id="color-2"><stop offset="0" stop-color="#6dc7ff"></stop><stop offset="1" stop-color="#e6abff"></stop></linearGradient><linearGradient x1="32.001" y1="4.667" x2="32.001" y2="59.173" gradientUnits="userSpaceOnUse" id="color-3"><stop offset="0" stop-color="#1a6dff"></stop><stop offset="1" stop-color="#c822ff"></stop></linearGradient></defs><g fill-opacity="0" fill="#dddddd" fill-rule="nonzero" stroke="none" stroke-width="1" stroke-linecap="butt" stroke-linejoin="miter" stroke-miterlimit="10" stroke-dasharray="" stroke-dashoffset="0" font-family="none" font-weight="none" font-size="none" text-anchor="none" style="mix-blend-mode: normal"><path d="M0,256v-256h256v256z" id="bgRectangle"></path></g><g fill="none" fill-rule="nonzero" stroke="none" stroke-width="1" stroke-linecap="butt" stroke-linejoin="miter" stroke-miterlimit="10" stroke-dasharray="" stroke-dashoffset="0" font-family="none" font-weight="none" font-size="none" text-anchor="none" style="mix-blend-mode: normal"><g transform="scale(4,4)"><path d="M32,58c-14.336,0 -26,-11.663 -26,-26c0,-14.337 11.664,-26 26,-26c14.336,0 26,11.663 26,26c0,14.337 -11.664,26 -26,26zM32,8c-13.233,0 -24,10.767 -24,24c0,13.233 10.767,24 24,24c13.233,0 24,-10.767 24,-24c0,-13.233 -10.767,-24 -24,-24z" fill="url(#color-1)"></path><path d="M24.291,47.02l-1.414,-1.414l13.916,-13.916l-13.291,-13.295l1.414,-1.414l13.291,13.291c0.781,0.78 0.781,2.052 0,2.832z" fill="url(#color-2)"></path><path d="M29.955,47h-8.496c-0.811,0 -1.536,-0.484 -1.846,-1.233c-0.311,-0.749 -0.141,-1.604 0.433,-2.178l10.882,-10.883c0.389,-0.39 0.389,-1.022 0,-1.412l-10.882,-10.883c-0.574,-0.573 -0.744,-1.429 -0.433,-2.178c0.31,-0.749 1.035,-1.233 1.846,-1.233h8.496c0.533,0 1.035,0.207 1.412,0.584l12.296,12.296c0.566,0.566 0.878,1.319 0.878,2.12c0,0.801 -0.312,1.554 -0.878,2.12l-12.295,12.295c-0.378,0.378 -0.88,0.585 -1.413,0.585zM29.954,19h-8.495l10.883,10.88c1.169,1.169 1.169,3.071 0,4.24l-10.882,10.883l8.495,-0.003l12.293,-12.294c0.189,-0.188 0.292,-0.439 0.292,-0.706c0,-0.267 -0.104,-0.517 -0.292,-0.706z" fill="url(#color-3)"></path></g></g></svg>