<svg xmlns="http://www.w3.org/2000/svg" xmlns:xlink="http://www.w3.org/1999/xlink" viewBox="0,0,256,256" width="64px" height="64px" fill-rule="nonzero"><defs><linearGradient x1="47" y1="44.5" x2="47" y2="53.34" gradientUnits="userSpaceOnUse" id="color-1"><stop offset="0" stop-color="#6dc7ff"></stop><stop offset="1" stop-color="#e6abff"></stop></linearGradient><linearGradient x1="29" y1="44.5" x2="29" y2="53.34" gradientUnits="userSpaceOnUse" id="color-2"><stop offset="0" stop-color="#6dc7ff"></stop><stop offset="1" stop-color="#e6abff"></stop></linearGradient><linearGradient x1="38" y1="5.468" x2="38" y2="53.918" gradientUnits="userSpaceOnUse" id="color-3"><stop offset="0" stop-color="#1a6dff"></stop><stop offset="1" stop-color="#c822ff"></stop></linearGradient><linearGradient x1="39" y1="5.468" x2="39" y2="53.918" gradientUnits="userSpaceOnUse" id="color-4"><stop offset="0" stop-color="#1a6dff"></stop><stop offset="1" stop-color="#c822ff"></stop></linearGradient><linearGradient x1="32" y1="5.468" x2="32" y2="53.918" gradientUnits="userSpaceOnUse" id="color-5"><stop offset="0" stop-color="#1a6dff"></stop><stop offset="1" stop-color="#c822ff"></stop></linearGradient><linearGradient x1="9.5" y1="5.468" x2="9.5" y2="53.918" gradientUnits="userSpaceOnUse" id="color-6"><stop offset="0" stop-color="#1a6dff"></stop><stop offset="1" stop-color="#c822ff"></stop></linearGradient><linearGradient x1="11.5" y1="5.468" x2="11.5" y2="53.918" gradientUnits="userSpaceOnUse" id="color-7"><stop offset="0" stop-color="#1a6dff"></stop><stop offset="1" stop-color="#c822ff"></stop></linearGradient><linearGradient x1="14.5" y1="5.468" x2="14.5" y2="53.918" gradientUnits="userSpaceOnUse" id="color-8"><stop offset="0" stop-color="#1a6dff"></stop><stop offset="1" stop-color="#c822ff"></stop></linearGradient></defs><g fill-opacity="0" fill="#dddddd" fill-rule="nonzero" stroke="none" stroke-width="1" stroke-linecap="butt" stroke-linejoin="miter" stroke-miterlimit="10" stroke-dasharray="" stroke-dashoffset="0" font-family="none" font-weight="none" font-size="none" text-anchor="none" style="mix-blend-mode: normal"><path d="M0,256v-256h256v256z" id="bgRectangle"></path></g><g fill="none" fill-rule="nonzero" stroke="none" stroke-width="1" stroke-linecap="butt" stroke-linejoin="miter" stroke-miterlimit="10" stroke-dasharray="" stroke-dashoffset="0" font-family="none" font-weight="none" font-size="none" text-anchor="none" style="mix-blend-mode: normal"><g transform="scale(4,4)"><path d="M51,49c0,2.2 -1.8,4 -4,4c-2.2,0 -4,-1.8 -4,-4c0,-2.2 1.8,-4 4,-4c2.2,0 4,1.8 4,4z" fill="url(#color-1)"></path><path d="M33,49c0,2.2 -1.8,4 -4,4c-2.2,0 -4,-1.8 -4,-4c0,-2.2 1.8,-4 4,-4c2.2,0 4,1.8 4,4z" fill="url(#color-2)"></path><path d="M47,44c-2.4,0 -4.4,1.7 -4.9,4h-8.2c-0.5,-2.3 -2.5,-4 -4.9,-4c-2.8,0 -5,2.2 -5,5c0,2.8 2.2,5 5,5c2.4,0 4.4,-1.7 4.9,-4h8.2c0.5,2.3 2.5,4 4.9,4c2.8,0 5,-2.2 5,-5c0,-2.8 -2.2,-5 -5,-5zM29,52c-1.7,0 -3,-1.3 -3,-3c0,-1.7 1.3,-3 3,-3c1.7,0 3,1.3 3,3c0,1.7 -1.3,3 -3,3zM47,52c-1.7,0 -3,-1.3 -3,-3c0,-1.7 1.3,-3 3,-3c1.7,0 3,1.3 3,3c0,1.7 -1.3,3 -3,3z" fill="url(#color-3)"></path><rect x="30" y="33" width="18" height="2" fill="url(#color-4)"></rect><path d="M55,19h-33.2l-1.5,-6.7c-0.3,-1.3 -1.5,-2.3 -2.9,-2.3h-8.4c-1.7,0 -3,1.3 -3,3c0,1.7 1.3,3 3,3h4c1.7,0 3,-1.3 3,-3v-1h1.4c0.5,0 0.9,0.3 1,0.8l5,22.3c0.5,2.3 2.5,3.9 4.9,3.9h21.7c2.2,0 4.2,-1.5 4.8,-3.6l3,-10.6c0.1,-0.4 0.2,-0.9 0.2,-1.4v-1.4c0,-1.7 -1.3,-3 -3,-3zM14,13c0,0.6 -0.4,1 -1,1h-4c-0.6,0 -1,-0.4 -1,-1c0,-0.6 0.4,-1 1,-1h5zM56,23.4c0,0.3 0,0.6 -0.1,0.8l-3,10.6c-0.4,1.3 -1.6,2.2 -2.9,2.2h-21.8c-1.4,0 -2.6,-1 -2.9,-2.3l-3,-13.7h32.7c0.6,0 1,0.4 1,1z" fill="url(#color-5)"></path><rect x="2" y="22" width="15" height="2" fill="url(#color-6)"></rect><rect x="4" y="28" width="15" height="2" fill="url(#color-7)"></rect><rect x="8" y="34" width="13" height="2" fill="url(#color-8)"></rect></g></g></svg>