<svg xmlns="http://www.w3.org/2000/svg" xmlns:xlink="http://www.w3.org/1999/xlink" viewBox="0,0,256,256" width="64px" height="64px" fill-rule="nonzero"><defs><linearGradient x1="26.5" y1="16.5" x2="26.5" y2="26.237" gradientUnits="userSpaceOnUse" id="color-1"><stop offset="0" stop-color="#6dc7ff"></stop><stop offset="1" stop-color="#e6abff"></stop></linearGradient><linearGradient x1="32" y1="9.553" x2="32" y2="54.562" gradientUnits="userSpaceOnUse" id="color-2"><stop offset="0" stop-color="#1a6dff"></stop><stop offset="1" stop-color="#c822ff"></stop></linearGradient><linearGradient x1="32" y1="9.553" x2="32" y2="54.562" gradientUnits="userSpaceOnUse" id="color-3"><stop offset="0" stop-color="#1a6dff"></stop><stop offset="1" stop-color="#c822ff"></stop></linearGradient><linearGradient x1="28.5" y1="9.553" x2="28.5" y2="54.562" gradientUnits="userSpaceOnUse" id="color-4"><stop offset="0" stop-color="#1a6dff"></stop><stop offset="1" stop-color="#c822ff"></stop></linearGradient><linearGradient x1="32" y1="9.553" x2="32" y2="54.562" gradientUnits="userSpaceOnUse" id="color-5"><stop offset="0" stop-color="#1a6dff"></stop><stop offset="1" stop-color="#c822ff"></stop></linearGradient></defs><g fill-opacity="0" fill="#dddddd" fill-rule="nonzero" stroke="none" stroke-width="1" stroke-linecap="butt" stroke-linejoin="miter" stroke-miterlimit="10" stroke-dasharray="" stroke-dashoffset="0" font-family="none" font-weight="none" font-size="none" text-anchor="none" style="mix-blend-mode: normal"><path d="M0,256v-256h256v256z" id="bgRectangle"></path></g><g fill="none" fill-rule="nonzero" stroke="none" stroke-width="1" stroke-linecap="butt" stroke-linejoin="miter" stroke-miterlimit="10" stroke-dasharray="" stroke-dashoffset="0" font-family="none" font-weight="none" font-size="none" text-anchor="none" style="mix-blend-mode: normal"><g transform="scale(4,4)"><path d="M32.832,25h-12.664c-0.645,0 -1.168,-0.523 -1.168,-1.168v-5.665c0,-0.644 0.523,-1.167 1.168,-1.167h12.665c0.644,0 1.167,0.523 1.167,1.168v5.665c0,0.644 -0.523,1.167 -1.168,1.167z" fill="url(#color-1)"></path><path d="M49,9h-34c-2.758,0 -5,2.242 -5,4.996v28c0,2.758 2.242,5.004 5,5.004h15c0.551,0 1,0.445 1,0.996v4.102c0,1.133 0.656,2.137 1.719,2.617c0.422,0.191 0.863,0.289 1.301,0.289c0.719,0 1.426,-0.258 1.996,-0.754l8.074,-7.008c0.183,-0.156 0.418,-0.242 0.656,-0.242h4.254c2.758,0 5,-2.246 5,-5.004v-28c0,-2.754 -2.242,-4.996 -5,-4.996zM52,41.996c0,1.656 -1.348,3.004 -3,3.004h-4.254c-0.723,0 -1.422,0.262 -1.969,0.734l-8.074,7.008c-0.383,0.328 -0.848,0.293 -1.156,0.152c-0.164,-0.074 -0.547,-0.3 -0.547,-0.796v-4.102c0,-1.652 -1.348,-2.996 -3,-2.996h-15c-1.652,0 -3,-1.348 -3,-3.004v-28c0,-1.652 1.348,-2.996 3,-2.996h34c1.652,0 3,1.344 3,2.996z" fill="url(#color-2)"></path><rect x="19" y="29" width="26" height="2" fill="url(#color-3)"></rect><rect x="19" y="33" width="19" height="2" fill="url(#color-4)"></rect><rect x="19" y="37" width="26" height="2" fill="url(#color-5)"></rect></g></g></svg>