<svg xmlns="http://www.w3.org/2000/svg" xmlns:xlink="http://www.w3.org/1999/xlink" viewBox="0,0,256,256" width="50px" height="50px" fill-rule="nonzero"><g fill-opacity="0" fill="#ffffff" fill-rule="nonzero" stroke="none" stroke-width="1" stroke-linecap="butt" stroke-linejoin="miter" stroke-miterlimit="10" stroke-dasharray="" stroke-dashoffset="0" font-family="none" font-weight="none" font-size="none" text-anchor="none" style="mix-blend-mode: normal"><path d="M0,256v-256h256v256z" id="bgRectangle"></path></g><g fill="#443a00" fill-rule="nonzero" stroke="none" stroke-width="1" stroke-linecap="butt" stroke-linejoin="miter" stroke-miterlimit="10" stroke-dasharray="" stroke-dashoffset="0" font-family="none" font-weight="none" font-size="none" text-anchor="none" style="mix-blend-mode: normal"><g transform="scale(5.12,5.12)"><path d="M41,4h-32c-2.8,0 -5,2.2 -5,5v32c0,2.8 2.2,5 5,5h32c2.8,0 5,-2.2 5,-5v-32c0,-2.8 -2.2,-5 -5,-5zM37,35h-24c-0.6,0 -1,-0.4 -1,-1c0,-0.6 0.4,-1 1,-1h24c0.6,0 1,0.4 1,1c0,0.6 -0.4,1 -1,1zM37,26h-24c-0.6,0 -1,-0.4 -1,-1c0,-0.6 0.4,-1 1,-1h24c0.6,0 1,0.4 1,1c0,0.6 -0.4,1 -1,1zM37,17h-24c-0.6,0 -1,-0.4 -1,-1c0,-0.6 0.4,-1 1,-1h24c0.6,0 1,0.4 1,1c0,0.6 -0.4,1 -1,1z"></path></g></g></svg>