<svg xmlns="http://www.w3.org/2000/svg" xmlns:xlink="http://www.w3.org/1999/xlink" viewBox="0,0,256,256" width="24px" height="24px" fill-rule="nonzero"><g fill-opacity="0" fill="#dddddd" fill-rule="nonzero" stroke="none" stroke-width="1" stroke-linecap="butt" stroke-linejoin="miter" stroke-miterlimit="10" stroke-dasharray="" stroke-dashoffset="0" font-family="none" font-weight="none" font-size="none" text-anchor="none" style="mix-blend-mode: normal"><path d="M0,256v-256h256v256z" id="bgRectangle"></path></g><g fill="#ffffff" fill-rule="nonzero" stroke="none" stroke-width="1" stroke-linecap="butt" stroke-linejoin="miter" stroke-miterlimit="10" stroke-dasharray="" stroke-dashoffset="0" font-family="none" font-weight="none" font-size="none" text-anchor="none" style="mix-blend-mode: normal"><g transform="scale(10.66667,10.66667)"><path d="M6,2c-1.105,0 -2,0.895 -2,2v16c0,1.105 0.895,2 2,2h11c-1.654,0 -3,-1.346 -3,-3c0,-0.352 0.07159,-0.686 0.18359,-1h-5.18359c-0.552,0 -1,-0.448 -1,-1c0,-0.552 0.448,-1 1,-1h9v-1c0,-0.552 0.448,-1 1,-1h1v-5.17187c0,-0.53 -0.21094,-1.03906 -0.58594,-1.41406l-4.82812,-4.82812c-0.375,-0.375 -0.88406,-0.58594 -1.41406,-0.58594zM13,3.45508l5.5,5.54492h-4.5c-0.552,0 -1,-0.448 -1,-1zM9,12h6c0.552,0 1,0.448 1,1c0,0.552 -0.448,1 -1,1h-6c-0.552,0 -1,-0.448 -1,-1c0,-0.552 0.448,-1 1,-1zM20.72461,15.80273c-0.07792,0.00749 -0.15547,0.02759 -0.23047,0.05859c-0.299,0.124 -0.49414,0.41528 -0.49414,0.73828v1.40039h-3c-0.552,0 -1,0.448 -1,1c0,0.552 0.448,1 1,1h3v1.40039c0,0.323 0.19514,0.61428 0.49414,0.73828c0.099,0.041 0.20364,0.06055 0.30664,0.06055c0.208,0 0.41145,-0.07942 0.56445,-0.23242l2.40039,-2.40039c0.312,-0.313 0.312,-0.81981 0,-1.13281l-2.40039,-2.40039c-0.17175,-0.17175 -0.40686,-0.25292 -0.64062,-0.23047z"></path></g></g></svg>