<svg xmlns="http://www.w3.org/2000/svg" xmlns:xlink="http://www.w3.org/1999/xlink" viewBox="0,0,256,256" width="64px" height="64px" fill-rule="nonzero"><defs><linearGradient x1="12.315" y1="4.167" x2="12.315" y2="59.168" gradientUnits="userSpaceOnUse" id="color-1"><stop offset="0" stop-color="#1a6dff"></stop><stop offset="1" stop-color="#c822ff"></stop></linearGradient><linearGradient x1="7.592" y1="4.167" x2="7.592" y2="59.168" gradientUnits="userSpaceOnUse" id="color-2"><stop offset="0" stop-color="#1a6dff"></stop><stop offset="1" stop-color="#c822ff"></stop></linearGradient><linearGradient x1="7.586" y1="4.167" x2="7.586" y2="59.168" gradientUnits="userSpaceOnUse" id="color-3"><stop offset="0" stop-color="#1a6dff"></stop><stop offset="1" stop-color="#c822ff"></stop></linearGradient><linearGradient x1="12.299" y1="4.167" x2="12.299" y2="59.168" gradientUnits="userSpaceOnUse" id="color-4"><stop offset="0" stop-color="#1a6dff"></stop><stop offset="1" stop-color="#c822ff"></stop></linearGradient><linearGradient x1="20.846" y1="4.167" x2="20.846" y2="59.168" gradientUnits="userSpaceOnUse" id="color-5"><stop offset="0" stop-color="#1a6dff"></stop><stop offset="1" stop-color="#c822ff"></stop></linearGradient><linearGradient x1="20.869" y1="4.167" x2="20.869" y2="59.168" gradientUnits="userSpaceOnUse" id="color-6"><stop offset="0" stop-color="#1a6dff"></stop><stop offset="1" stop-color="#c822ff"></stop></linearGradient><linearGradient x1="43.399" y1="4.167" x2="43.399" y2="59.168" gradientUnits="userSpaceOnUse" id="color-7"><stop offset="0" stop-color="#1a6dff"></stop><stop offset="1" stop-color="#c822ff"></stop></linearGradient><linearGradient x1="31.921" y1="20.667" x2="31.921" y2="45.235" gradientUnits="userSpaceOnUse" id="color-8"><stop offset="0" stop-color="#6dc7ff"></stop><stop offset="1" stop-color="#e6abff"></stop></linearGradient></defs><g fill-opacity="0" fill="#dddddd" fill-rule="nonzero" stroke="none" stroke-width="1" stroke-linecap="butt" stroke-linejoin="miter" stroke-miterlimit="10" stroke-dasharray="" stroke-dashoffset="0" font-family="none" font-weight="none" font-size="none" text-anchor="none" style="mix-blend-mode: normal"><path d="M0,256v-256h256v256z" id="bgRectangle"></path></g><g fill="none" fill-rule="nonzero" stroke="none" stroke-width="1" stroke-linecap="butt" stroke-linejoin="miter" stroke-miterlimit="10" stroke-dasharray="" stroke-dashoffset="0" font-family="none" font-weight="none" font-size="none" text-anchor="none" style="mix-blend-mode: normal"><g transform="scale(4,4)"><path d="M9.8,45.771c1.027,1.637 2.24,3.162 3.606,4.536l1.424,-1.408c-1.261,-1.269 -2.381,-2.678 -3.329,-4.188z" fill="url(#color-1)"></path><path d="M6.003,34.906c0.215,1.923 0.646,3.823 1.283,5.646l1.894,-0.658c-0.588,-1.682 -0.985,-3.435 -1.183,-5.209z" fill="url(#color-2)"></path><path d="M9.173,24.127l-1.894,-0.656c-0.636,1.824 -1.066,3.725 -1.279,5.65l1.994,0.219c0.196,-1.777 0.593,-3.53 1.179,-5.213z" fill="url(#color-3)"></path><path d="M14.813,15.115l-1.426,-1.406c-1.364,1.374 -2.576,2.901 -3.602,4.538l1.7,1.061c0.948,-1.512 2.067,-2.923 3.328,-4.193z" fill="url(#color-4)"></path><path d="M23.789,9.403l-0.676,-1.883c-1.821,0.65 -3.574,1.509 -5.211,2.551l1.079,1.686c1.512,-0.962 3.129,-1.754 4.808,-2.354z" fill="url(#color-5)"></path><path d="M17.924,53.942c1.64,1.04 3.395,1.896 5.215,2.546l0.676,-1.883c-1.68,-0.6 -3.3,-1.39 -4.813,-2.351z" fill="url(#color-6)"></path><path d="M31.921,6c-1.042,0 -2.093,0.063 -3.124,0.185l0.237,1.986c0.954,-0.113 1.924,-0.171 2.887,-0.171c13.274,0 24.073,10.767 24.073,24c0,13.233 -10.799,24 -24.073,24c-0.963,0 -1.934,-0.058 -2.887,-0.171l-0.237,1.986c1.031,0.123 2.082,0.185 3.124,0.185c14.381,0 26.079,-11.663 26.079,-26c0,-14.337 -11.698,-26 -26.079,-26z" fill="url(#color-7)"></path><path d="M27.908,41.937c-1.028,0 -2.056,-0.391 -2.839,-1.171l-7.606,-7.583l2.837,-2.828l7.606,7.583l15.636,-15.583l2.837,2.828l-15.63,15.583c-0.784,0.78 -1.812,1.171 -2.841,1.171z" fill="url(#color-8)"></path></g></g></svg>