<svg xmlns="http://www.w3.org/2000/svg" xmlns:xlink="http://www.w3.org/1999/xlink" viewBox="0,0,256,256" width="64px" height="64px" fill-rule="nonzero"><defs><linearGradient x1="32" y1="31.25" x2="32" y2="37.271" gradientUnits="userSpaceOnUse" id="color-1"><stop offset="0" stop-color="#6dc7ff"></stop><stop offset="1" stop-color="#e6abff"></stop></linearGradient><linearGradient x1="32" y1="10.5" x2="32" y2="53.721" gradientUnits="userSpaceOnUse" id="color-2"><stop offset="0" stop-color="#1a6dff"></stop><stop offset="1" stop-color="#c822ff"></stop></linearGradient><linearGradient x1="32" y1="10.5" x2="32" y2="53.721" gradientUnits="userSpaceOnUse" id="color-3"><stop offset="0" stop-color="#1a6dff"></stop><stop offset="1" stop-color="#c822ff"></stop></linearGradient><linearGradient x1="32" y1="10.5" x2="32" y2="53.721" gradientUnits="userSpaceOnUse" id="color-4"><stop offset="0" stop-color="#1a6dff"></stop><stop offset="1" stop-color="#c822ff"></stop></linearGradient><linearGradient x1="20" y1="10.5" x2="20" y2="53.721" gradientUnits="userSpaceOnUse" id="color-5"><stop offset="0" stop-color="#1a6dff"></stop><stop offset="1" stop-color="#c822ff"></stop></linearGradient><linearGradient x1="18" y1="10.5" x2="18" y2="53.721" gradientUnits="userSpaceOnUse" id="color-6"><stop offset="0" stop-color="#1a6dff"></stop><stop offset="1" stop-color="#c822ff"></stop></linearGradient><linearGradient x1="41" y1="10.5" x2="41" y2="53.721" gradientUnits="userSpaceOnUse" id="color-7"><stop offset="0" stop-color="#1a6dff"></stop><stop offset="1" stop-color="#c822ff"></stop></linearGradient><linearGradient x1="45" y1="10.5" x2="45" y2="53.721" gradientUnits="userSpaceOnUse" id="color-8"><stop offset="0" stop-color="#1a6dff"></stop><stop offset="1" stop-color="#c822ff"></stop></linearGradient><linearGradient x1="49" y1="10.5" x2="49" y2="53.721" gradientUnits="userSpaceOnUse" id="color-9"><stop offset="0" stop-color="#1a6dff"></stop><stop offset="1" stop-color="#c822ff"></stop></linearGradient></defs><g fill-opacity="0" fill="#dddddd" fill-rule="nonzero" stroke="none" stroke-width="1" stroke-linecap="butt" stroke-linejoin="miter" stroke-miterlimit="10" stroke-dasharray="" stroke-dashoffset="0" font-family="none" font-weight="none" font-size="none" text-anchor="none" style="mix-blend-mode: normal"><path d="M0,256v-256h256v256z" id="bgRectangle"></path></g><g fill="none" fill-rule="nonzero" stroke="none" stroke-width="1" stroke-linecap="butt" stroke-linejoin="miter" stroke-miterlimit="10" stroke-dasharray="" stroke-dashoffset="0" font-family="none" font-weight="none" font-size="none" text-anchor="none" style="mix-blend-mode: normal"><g transform="scale(4,4)"><path d="M39,34c0,1.105 -0.895,2 -2,2h-10c-1.105,0 -2,-0.895 -2,-2v0c0,-1.105 0.895,-2 2,-2h10c1.105,0 2,0.895 2,2z" fill="url(#color-1)"></path><path d="M55,15h-46c-1.654,0 -3,1.346 -3,3v4c0,1.654 1.346,3 3,3c0.551,0 1,0.448 1,1v22.042c0,2.733 2.225,4.958 4.958,4.958h34.083c2.734,0 4.959,-2.225 4.959,-4.958v-22.042c0,-0.552 0.449,-1 1,-1c1.654,0 3,-1.346 3,-3v-4c0,-1.654 -1.346,-3 -3,-3zM52,26v22.042c0,1.631 -1.327,2.958 -2.958,2.958h-34.084c-1.631,0 -2.958,-1.327 -2.958,-2.958v-22.042c0,-0.353 -0.072,-0.686 -0.184,-1h40.369c-0.113,0.314 -0.185,0.647 -0.185,1zM56,22c0,0.552 -0.449,1 -1,1h-17c0,-1.103 -0.897,-2 -2,-2h-8c-1.103,0 -2,0.897 -2,2h-17c-0.551,0 -1,-0.448 -1,-1v-4c0,-0.552 0.449,-1 1,-1h46c0.551,0 1,0.448 1,1z" fill="url(#color-2)"></path><path d="M12,11h40v2h-40z" fill="url(#color-3)"></path><path d="M27,37h10c1.654,0 3,-1.346 3,-3c0,-1.654 -1.346,-3 -3,-3h-10c-1.654,0 -3,1.346 -3,3c0,1.654 1.346,3 3,3zM27,33h10c0.551,0 1,0.448 1,1c0,0.552 -0.449,1 -1,1h-10c-0.551,0 -1,-0.448 -1,-1c0,-0.552 0.449,-1 1,-1z" fill="url(#color-4)"></path><path d="M14,47h12v2h-12z" fill="url(#color-5)"></path><path d="M14,43h8v2h-8z" fill="url(#color-6)"></path><path d="M40,45h2v4h-2z" fill="url(#color-7)"></path><path d="M44,45h2v4h-2z" fill="url(#color-8)"></path><path d="M48,45h2v4h-2z" fill="url(#color-9)"></path></g></g></svg>