<svg xmlns="http://www.w3.org/2000/svg" xmlns:xlink="http://www.w3.org/1999/xlink" viewBox="0,0,256,256" width="64px" height="64px" fill-rule="nonzero"><defs><linearGradient x1="19" y1="15" x2="19" y2="23" gradientUnits="userSpaceOnUse" id="color-1"><stop offset="0" stop-color="#6dc7ff"></stop><stop offset="1" stop-color="#e6abff"></stop></linearGradient><linearGradient x1="19" y1="28" x2="19" y2="36" gradientUnits="userSpaceOnUse" id="color-2"><stop offset="0" stop-color="#6dc7ff"></stop><stop offset="1" stop-color="#e6abff"></stop></linearGradient><linearGradient x1="19" y1="41" x2="19" y2="49" gradientUnits="userSpaceOnUse" id="color-3"><stop offset="0" stop-color="#6dc7ff"></stop><stop offset="1" stop-color="#e6abff"></stop></linearGradient><linearGradient x1="32" y1="9" x2="32" y2="55" gradientUnits="userSpaceOnUse" id="color-4"><stop offset="0" stop-color="#1a6dff"></stop><stop offset="1" stop-color="#c822ff"></stop></linearGradient></defs><g fill-opacity="0" fill="#dddddd" fill-rule="nonzero" stroke="none" stroke-width="1" stroke-linecap="butt" stroke-linejoin="miter" stroke-miterlimit="10" stroke-dasharray="" stroke-dashoffset="0" font-family="none" font-weight="none" font-size="none" text-anchor="none" style="mix-blend-mode: normal"><path d="M0,256v-256h256v256z" id="bgRectangle"></path></g><g fill="none" fill-rule="nonzero" stroke="none" stroke-width="1" stroke-linecap="butt" stroke-linejoin="miter" stroke-miterlimit="10" stroke-dasharray="" stroke-dashoffset="0" font-family="none" font-weight="none" font-size="none" text-anchor="none" style="mix-blend-mode: normal"><g transform="scale(4,4)"><circle cx="19" cy="19" r="4" fill="url(#color-1)"></circle><circle cx="19" cy="32" r="4" fill="url(#color-2)"></circle><circle cx="19" cy="45" r="4" fill="url(#color-3)"></circle><path d="M19,27c-2.757,0 -5,2.243 -5,5c0,2.757 2.243,5 5,5c2.757,0 5,-2.243 5,-5c0,-2.757 -2.243,-5 -5,-5zM19,35c-1.654,0 -3,-1.346 -3,-3c0,-1.654 1.346,-3 3,-3c1.654,0 3,1.346 3,3c0,1.654 -1.346,3 -3,3zM19,14c-2.757,0 -5,2.243 -5,5c0,2.757 2.243,5 5,5c2.757,0 5,-2.243 5,-5c0,-2.757 -2.243,-5 -5,-5zM19,22c-1.654,0 -3,-1.346 -3,-3c0,-1.654 1.346,-3 3,-3c1.654,0 3,1.346 3,3c0,1.654 -1.346,3 -3,3zM50,9h-36c-2.757,0 -5,2.243 -5,5v36c0,2.757 2.243,5 5,5h36c2.757,0 5,-2.243 5,-5v-36c0,-2.757 -2.243,-5 -5,-5zM53,50c0,1.654 -1.346,3 -3,3h-36c-1.654,0 -3,-1.346 -3,-3v-36c0,-1.654 1.346,-3 3,-3h36c1.654,0 3,1.346 3,3zM19,40c-2.757,0 -5,2.243 -5,5c0,2.757 2.243,5 5,5c2.757,0 5,-2.243 5,-5c0,-2.757 -2.243,-5 -5,-5zM19,48c-1.654,0 -3,-1.346 -3,-3c0,-1.654 1.346,-3 3,-3c1.654,0 3,1.346 3,3c0,1.654 -1.346,3 -3,3zM49,19c0,0.552 -0.447,1 -1,1h-19c-0.553,0 -1,-0.448 -1,-1c0,-0.552 0.447,-1 1,-1h19c0.553,0 1,0.448 1,1zM49,45c0,0.553 -0.447,1 -1,1h-19c-0.553,0 -1,-0.447 -1,-1c0,-0.553 0.447,-1 1,-1h19c0.553,0 1,0.447 1,1zM49,32c0,0.552 -0.447,1 -1,1h-19c-0.553,0 -1,-0.448 -1,-1c0,-0.552 0.447,-1 1,-1h19c0.553,0 1,0.448 1,1z" fill="url(#color-4)"></path></g></g></svg>