<svg xmlns="http://www.w3.org/2000/svg" xmlns:xlink="http://www.w3.org/1999/xlink" viewBox="0,0,256,256" width="64px" height="64px" fill-rule="nonzero"><defs><linearGradient x1="32" y1="4.75" x2="32" y2="59.764" gradientUnits="userSpaceOnUse" id="color-1"><stop offset="0" stop-color="#1a6dff"></stop><stop offset="1" stop-color="#c822ff"></stop></linearGradient><linearGradient x1="33.165" y1="16" x2="33.165" y2="48.043" gradientUnits="userSpaceOnUse" id="color-2"><stop offset="0" stop-color="#6dc7ff"></stop><stop offset="1" stop-color="#e6abff"></stop></linearGradient><linearGradient x1="32" y1="4.75" x2="32" y2="59.764" gradientUnits="userSpaceOnUse" id="color-3"><stop offset="0" stop-color="#1a6dff"></stop><stop offset="1" stop-color="#c822ff"></stop></linearGradient></defs><g fill-opacity="0" fill="#dddddd" fill-rule="nonzero" stroke="none" stroke-width="1" stroke-linecap="butt" stroke-linejoin="miter" stroke-miterlimit="10" stroke-dasharray="" stroke-dashoffset="0" font-family="none" font-weight="none" font-size="none" text-anchor="none" style="mix-blend-mode: normal"><path d="M0,256v-256h256v256z" id="bgRectangle"></path></g><g fill="none" fill-rule="nonzero" stroke="none" stroke-width="1" stroke-linecap="butt" stroke-linejoin="miter" stroke-miterlimit="10" stroke-dasharray="" stroke-dashoffset="0" font-family="none" font-weight="none" font-size="none" text-anchor="none" style="mix-blend-mode: normal"><g transform="scale(4,4)"><path d="M32,58c-14.336,0 -26,-11.664 -26,-26c0,-14.336 11.664,-26 26,-26c14.336,0 26,11.664 26,26c0,14.336 -11.664,26 -26,26zM32,8c-13.233,0 -24,10.767 -24,24c0,13.233 10.767,24 24,24c13.233,0 24,-10.767 24,-24c0,-13.233 -10.767,-24 -24,-24z" fill="url(#color-1)"></path><path d="M39.709,47.02l-13.916,-13.916c-0.781,-0.781 -0.781,-2.051 0,-2.832l13.291,-13.292l1.414,1.414l-13.291,13.292l13.916,13.92z" fill="url(#color-2)"></path><path d="M42.541,47h-8.496c-0.535,0 -1.037,-0.208 -1.414,-0.586l-12.294,-12.294v0v0c-0.566,-0.566 -0.878,-1.319 -0.878,-2.12c0,-0.801 0.312,-1.554 0.878,-2.121l12.294,-12.294c0.377,-0.377 0.879,-0.585 1.414,-0.585h8.496c0.811,0 1.536,0.484 1.846,1.234c0.311,0.75 0.141,1.604 -0.433,2.178l-10.883,10.882c-0.389,0.389 -0.389,1.023 0,1.412l10.882,10.882c0.574,0.574 0.744,1.428 0.433,2.178c-0.309,0.75 -1.034,1.234 -1.845,1.234zM42.54,18.998l-8.495,0.002l-12.294,12.294c-0.189,0.189 -0.292,0.439 -0.292,0.706c0,0.267 0.104,0.517 0.292,0.706v0l12.295,12.294h8.495l-10.884,-10.88c-1.169,-1.169 -1.169,-3.071 0,-4.24z" fill="url(#color-3)"></path></g></g></svg>