<svg xmlns="http://www.w3.org/2000/svg" xmlns:xlink="http://www.w3.org/1999/xlink" viewBox="0,0,256,256" width="48px" height="48px" fill-rule="nonzero"><g fill-opacity="0" fill="#dddddd" fill-rule="nonzero" stroke="none" stroke-width="1" stroke-linecap="butt" stroke-linejoin="miter" stroke-miterlimit="10" stroke-dasharray="" stroke-dashoffset="0" font-family="none" font-weight="none" font-size="none" text-anchor="none" style="mix-blend-mode: normal"><path d="M0,256v-256h256v256z" id="bgRectangle"></path></g><g fill="#ffffff" fill-rule="nonzero" stroke="none" stroke-width="1" stroke-linecap="butt" stroke-linejoin="miter" stroke-miterlimit="10" stroke-dasharray="" stroke-dashoffset="0" font-family="none" font-weight="none" font-size="none" text-anchor="none" style="mix-blend-mode: normal"><g transform="scale(5.33333,5.33333)"><path d="M11.5,6c-3.01977,0 -5.5,2.48023 -5.5,5.5v22c0,3.01977 2.48023,5.5 5.5,5.5h6.47656l5.00781,4.60352c0.57173,0.52619 1.45063,0.52874 2.02539,0.00586l5.5,-5c0.40072,-0.35965 0.57795,-0.90648 0.46439,-1.43282c-0.11356,-0.52634 -0.5005,-0.95144 -1.01386,-1.11387c-0.51336,-0.16243 -1.0744,-0.03728 -1.47006,0.32794l-4.48437,4.07617l-4.42773,-4.07031c-0.27683,-0.25486 -0.63934,-0.39638 -1.01562,-0.39648h-7.0625c-1.39823,0 -2.5,-1.10177 -2.5,-2.5v-22c0,-1.39823 1.10177,-2.5 2.5,-2.5h0.52148c0.54095,0.00765 1.04412,-0.27656 1.31683,-0.74381c0.27271,-0.46725 0.27271,-1.04514 0,-1.51238c-0.27271,-0.46725 -0.77588,-0.75146 -1.31683,-0.74381zM19.68164,6c-0.54095,-0.00765 -1.04412,0.27656 -1.31683,0.74381c-0.27271,0.46725 -0.27271,1.04514 0,1.51238c0.27271,0.46725 0.77588,0.75146 1.31683,0.74381h16.81836c1.39823,0 2.5,1.10177 2.5,2.5v22c0,1.39823 -1.10177,2.5 -2.5,2.5h-1.66992c-0.54095,-0.00765 -1.04412,0.27656 -1.31683,0.74381c-0.27271,0.46725 -0.27271,1.04514 0,1.51238c0.27271,0.46725 0.77588,0.75146 1.31683,0.74381h1.66992c3.01977,0 5.5,-2.48023 5.5,-5.5v-22c0,-3.01977 -2.48023,-5.5 -5.5,-5.5zM24,13c-1.10457,0 -2,0.89543 -2,2c0,1.10457 0.89543,2 2,2c1.10457,0 2,-0.89543 2,-2c0,-1.10457 -0.89543,-2 -2,-2zM23.97656,19.97852c-0.82766,0.01293 -1.48843,0.69381 -1.47656,1.52148v10c-0.00765,0.54095 0.27656,1.04412 0.74381,1.31683c0.46725,0.27271 1.04514,0.27271 1.51238,0c0.46725,-0.27271 0.75146,-0.77588 0.74381,-1.31683v-10c0.00582,-0.40562 -0.15288,-0.7963 -0.43991,-1.08296c-0.28703,-0.28666 -0.67792,-0.44486 -1.08353,-0.43852z"></path></g></g></svg>