<svg xmlns="http://www.w3.org/2000/svg" xmlns:xlink="http://www.w3.org/1999/xlink" viewBox="0,0,256,256" width="25px" height="25px" fill-rule="nonzero"><g fill-opacity="0" fill="#dddddd" fill-rule="nonzero" stroke="none" stroke-width="1" stroke-linecap="butt" stroke-linejoin="miter" stroke-miterlimit="10" stroke-dasharray="" stroke-dashoffset="0" font-family="none" font-weight="none" font-size="none" text-anchor="none" style="mix-blend-mode: normal"><path d="M0,256v-256h256v256z" id="bgRectangle"></path></g><g fill="#ffffff" fill-rule="nonzero" stroke="none" stroke-width="1" stroke-linecap="butt" stroke-linejoin="miter" stroke-miterlimit="10" stroke-dasharray="" stroke-dashoffset="0" font-family="none" font-weight="none" font-size="none" text-anchor="none" style="mix-blend-mode: normal"><g transform="translate(256,256) rotate(180) scale(5.12,5.12)"><path d="M12,3c-0.55226,0.00006 -0.99994,0.44774 -1,1v26h-1c-1.105,0 -2,0.895 -2,2c0,1.105 0.895,2 2,2h2h26h2c1.105,0 2,-0.895 2,-2c0,-1.105 -0.895,-2 -2,-2h-1v-26c-0.00006,-0.55226 -0.44774,-0.99994 -1,-1zM13,5h24v10h-24zM17,7c-0.55226,0.00006 -0.99994,0.44774 -1,1v4c0.00006,0.55226 0.44774,0.99994 1,1h4c0.55226,-0.00006 0.99994,-0.44774 1,-1v-4c-0.00006,-0.55226 -0.44774,-0.99994 -1,-1zM25,7v2h6v-2zM18,9h2v2h-2zM25,11v2h9v-2zM13,17h24v10h-24zM16,19v6h3v-6zM20,19v6h2v-6zM23,19v6h4v-6zM29,19v6h2v-6zM32,19v6h2v-6zM7,21c-2.19733,0 -4,1.80267 -4,4v20c0,1.09306 0.90694,2 2,2h40c1.09306,0 2,-0.90694 2,-2v-20c0,-2.19733 -1.80267,-4 -4,-4h-2v2h2c1.11667,0 2,0.88333 2,2v20h-40v-20c0,-1.11667 0.88333,-2 2,-2h2v-2zM13,29h24v3h-24zM40,37c-1.64501,0 -3,1.35499 -3,3c0,1.64501 1.35499,3 3,3c1.64501,0 3,-1.35499 3,-3c0,-1.64501 -1.35499,-3 -3,-3zM40,39c0.56413,0 1,0.43587 1,1c0,0.56413 -0.43587,1 -1,1c-0.56413,0 -1,-0.43587 -1,-1c0,-0.56413 0.43587,-1 1,-1z"></path></g></g></svg>