<svg xmlns="http://www.w3.org/2000/svg" xmlns:xlink="http://www.w3.org/1999/xlink" viewBox="0,0,256,256" width="64px" height="64px" fill-rule="nonzero"><g fill-opacity="0" fill="#dddddd" fill-rule="nonzero" stroke="none" stroke-width="1" stroke-linecap="butt" stroke-linejoin="miter" stroke-miterlimit="10" stroke-dasharray="" stroke-dashoffset="0" font-family="none" font-weight="none" font-size="none" text-anchor="none" style="mix-blend-mode: normal"><path d="M0,256v-256h256v256z" id="bgRectangle"></path></g><g fill="#ffffff" fill-rule="nonzero" stroke="none" stroke-width="1" stroke-linecap="butt" stroke-linejoin="miter" stroke-miterlimit="10" stroke-dasharray="" stroke-dashoffset="0" font-family="none" font-weight="none" font-size="none" text-anchor="none" style="mix-blend-mode: normal"><g transform="scale(4,4)"><path d="M28,9c-0.55226,0.00006 -0.99994,0.44774 -1,1v5c0.00006,0.55226 0.44774,0.99994 1,1h21c1.67474,0 3.00977,1.33502 3.00977,3.00977v28.79297c0,1.84752 -1.4767,3.32422 -3.32422,3.32422h-35.41406c-1.84752,0 -3.32422,-1.4767 -3.32422,-3.32422v-18.20898l12.61719,-11.73633v9.38477c0,0.7814 -0.61313,1.39453 -1.39453,1.39453h-5.83984c-0.36064,-0.0051 -0.69608,0.18438 -0.87789,0.49587c-0.18181,0.3115 -0.18181,0.69676 0,1.00825c0.18181,0.3115 0.51725,0.50097 0.87789,0.49587h5.83984c1.86259,0 3.39453,-1.53194 3.39453,-3.39453v-11.67969c0.0002,-0.39812 -0.23575,-0.75844 -0.60075,-0.91741c-0.365,-0.15897 -0.78953,-0.08632 -1.08089,0.18499l-14.61719,13.5957c-0.20322,0.18934 -0.31855,0.45467 -0.31836,0.73242v18.64453c0,2.92848 2.39574,5.32422 5.32422,5.32422h35.41406c2.92848,0 5.32422,-2.39574 5.32422,-5.32422v-28.79297c0,-2.75526 -2.25451,-5.00977 -5.00977,-5.00977h-20v-3h23c2.77367,0 5,2.22633 5,5v35c0,2.77367 -2.22633,5 -5,5h-43c-0.36064,-0.0051 -0.69608,0.18438 -0.87789,0.49587c-0.18181,0.3115 -0.18181,0.69676 0,1.00825c0.18181,0.3115 0.51725,0.50097 0.87789,0.49587h43c3.85433,0 7,-3.14567 7,-7v-35c0,-3.85433 -3.14567,-7 -7,-7z"></path></g></g></svg>