<svg xmlns="http://www.w3.org/2000/svg" xmlns:xlink="http://www.w3.org/1999/xlink" viewBox="0,0,256,256" width="48px" height="48px" fill-rule="nonzero"><g fill-opacity="0" fill="#dddddd" fill-rule="nonzero" stroke="none" stroke-width="1" stroke-linecap="butt" stroke-linejoin="miter" stroke-miterlimit="10" stroke-dasharray="" stroke-dashoffset="0" font-family="none" font-weight="none" font-size="none" text-anchor="none" style="mix-blend-mode: normal"><path d="M0,256v-256h256v256z" id="bgRectangle"></path></g><g fill="#ffffff" fill-rule="nonzero" stroke="none" stroke-width="1" stroke-linecap="butt" stroke-linejoin="miter" stroke-miterlimit="10" stroke-dasharray="" stroke-dashoffset="0" font-family="none" font-weight="none" font-size="none" text-anchor="none" style="mix-blend-mode: normal"><g transform="translate(-2.18894,255.65211) rotate(-90) scale(5.33333,5.33333)"><path d="M13,4c-2.74952,0 -5,2.25048 -5,5v31c0,2.74952 2.25048,5 5,5h13.75781c1.06066,0 2.07859,-0.421 2.82813,-1.17187l10.12109,-10.12109c0.28583,-0.28603 0.37129,-0.71604 0.21656,-1.08963c-0.15474,-0.37359 -0.51922,-0.61724 -0.92359,-0.6174h-8c-2.19733,0 -4,1.80267 -4,4v6.90039c-0.08906,0.01211 -0.15117,0.09961 -0.24219,0.09961h-13.75781c-1.66848,0 -3,-1.33152 -3,-3v-31c0,-1.66848 1.33152,-3 3,-3h22c1.66848,0 3,1.33152 3,3v20c-0.0051,0.36064 0.18438,0.69608 0.49587,0.87789c0.3115,0.18181 0.69676,0.18181 1.00825,0c0.3115,-0.18181 0.50097,-0.51725 0.49587,-0.87789v-20c0,-2.74952 -2.25048,-5 -5,-5zM31,34h5.58594l-7.58594,7.58594v-5.58594c0,-1.11667 0.88333,-2 2,-2z"></path></g></g></svg>