<svg xmlns="http://www.w3.org/2000/svg" xmlns:xlink="http://www.w3.org/1999/xlink" viewBox="0,0,256,256" width="48px" height="48px" fill-rule="nonzero"><g fill-opacity="0" fill="#dddddd" fill-rule="nonzero" stroke="none" stroke-width="1" stroke-linecap="butt" stroke-linejoin="miter" stroke-miterlimit="10" stroke-dasharray="" stroke-dashoffset="0" font-family="none" font-weight="none" font-size="none" text-anchor="none" style="mix-blend-mode: normal"><path d="M0,256v-256h256v256z" id="bgRectangle"></path></g><g fill="#ffffff" fill-rule="nonzero" stroke="none" stroke-width="1" stroke-linecap="butt" stroke-linejoin="miter" stroke-miterlimit="10" stroke-dasharray="" stroke-dashoffset="0" font-family="none" font-weight="none" font-size="none" text-anchor="none" style="mix-blend-mode: normal"><g transform="scale(5.33333,5.33333)"><path d="M24,4c-11.02771,0 -20,8.97229 -20,20c0,4.32494 1.37869,8.34522 3.71875,11.61914c0.48217,0.67418 1.41957,0.82983 2.09375,0.34766c0.67418,-0.48217 0.82983,-1.41957 0.34766,-2.09375c-1.98994,-2.78408 -3.16016,-6.18399 -3.16016,-9.87305c0,-9.40629 7.59371,-17 17,-17c0.54095,0.00765 1.04412,-0.27656 1.31683,-0.74381c0.27271,-0.46725 0.27271,-1.04514 0,-1.51238c-0.27271,-0.46725 -0.77588,-0.75146 -1.31683,-0.74381zM37.06445,9.4043c-0.61065,0.00015 -1.16026,0.37042 -1.38978,0.93629c-0.22952,0.56587 -0.09314,1.21439 0.34486,1.63988c3.07811,3.07719 4.98047,7.31589 4.98047,12.01953c0,9.40629 -7.59371,17 -17,17c-1.43001,0 -2.81327,-0.17523 -4.13672,-0.50586c-0.52311,-0.13939 -1.08073,0.01387 -1.45912,0.40103c-0.37838,0.38716 -0.51882,0.94816 -0.36747,1.46793c0.15135,0.51977 0.571,0.91768 1.09808,1.04119c1.55855,0.38937 3.18925,0.5957 4.86523,0.5957c11.02771,0 20,-8.97229 20,-20c0,-5.51436 -2.24148,-10.52577 -5.85937,-14.14258c-0.28281,-0.29018 -0.67097,-0.45362 -1.07617,-0.45312zM22.4707,16.48633c-0.38956,0.01135 -0.75941,0.17386 -1.03125,0.45313l-6,6c-0.58555,0.58579 -0.58555,1.5353 0,2.12109l6,6c0.37623,0.39185 0.9349,0.54969 1.46055,0.41265c0.52565,-0.13704 0.93616,-0.54754 1.07319,-1.07319c0.13704,-0.52565 -0.0208,-1.08432 -0.41265,-1.46055l-3.43945,-3.43945h11.37891c0.54095,0.00765 1.04412,-0.27656 1.31683,-0.74381c0.27271,-0.46725 0.27271,-1.04514 0,-1.51238c-0.27271,-0.46725 -0.77588,-0.75146 -1.31683,-0.74381h-11.37891l3.43945,-3.43945c0.4429,-0.43135 0.57582,-1.09023 0.33479,-1.65955c-0.24103,-0.56932 -0.80665,-0.93247 -1.42463,-0.91467z"></path></g></g></svg>