<svg xmlns="http://www.w3.org/2000/svg" xmlns:xlink="http://www.w3.org/1999/xlink" viewBox="0,0,256,256" width="48px" height="48px" fill-rule="nonzero"><g fill-opacity="0" fill="#dddddd" fill-rule="nonzero" stroke="none" stroke-width="1" stroke-linecap="butt" stroke-linejoin="miter" stroke-miterlimit="10" stroke-dasharray="" stroke-dashoffset="0" font-family="none" font-weight="none" font-size="none" text-anchor="none" style="mix-blend-mode: normal"><path d="M0,256v-256h256v256z" id="bgRectangle"></path></g><g fill="#ffffff" fill-rule="nonzero" stroke="none" stroke-width="1" stroke-linecap="butt" stroke-linejoin="miter" stroke-miterlimit="10" stroke-dasharray="" stroke-dashoffset="0" font-family="none" font-weight="none" font-size="none" text-anchor="none" style="mix-blend-mode: normal"><g transform="scale(5.33333,5.33333)"><path d="M24,2c-5.02628,0 -9,4.54905 -9,10c0,5.45095 3.97372,10 9,10c5.02628,0 9,-4.54905 9,-10c0,-5.45095 -3.97372,-10 -9,-10zM24,4c3.81029,0 7,3.50983 7,8c0,4.49017 -3.18971,8 -7,8c-3.81029,0 -7,-3.50983 -7,-8c0,-4.49017 3.18971,-8 7,-8zM24,24c-8.78758,0 -16.5961,5.62919 -19.375,13.96484l-0.25781,0.76953c-0.85461,2.56251 1.09393,5.26563 3.79492,5.26563h17.83789c0.36064,0.0051 0.69608,-0.18438 0.87789,-0.49587c0.18181,-0.3115 0.18181,-0.69676 0,-1.00825c-0.18181,-0.3115 -0.51725,-0.50097 -0.87789,-0.49587h-17.83789c-1.39501,0 -2.33983,-1.30932 -1.89844,-2.63281l0.25781,-0.76953c2.5091,-7.52634 9.5441,-12.59766 17.47852,-12.59766c4.42464,0 8.56191,1.58446 11.79883,4.28516c-3.89784,0.98722 -6.79883,4.51657 -6.79883,8.71484c0,4.95872 4.04128,9 9,9c4.95872,0 9,-4.04128 9,-9c0,-4.79784 -3.78638,-8.72602 -8.52344,-8.97656c-3.75022,-3.7675 -8.91573,-6.02344 -14.47656,-6.02344zM38,32c3.87784,0 7,3.12216 7,7c0,3.87784 -3.12216,7 -7,7c-3.87784,0 -7,-3.12216 -7,-7c0,-3.87784 3.12216,-7 7,-7zM41.00391,35.98828c-0.32941,0.00151 -0.63696,0.16515 -0.82227,0.4375l-2.88867,4.12695l-1.66797,-1.33398c-0.2791,-0.22341 -0.65621,-0.28091 -0.98921,-0.15085c-0.33301,0.13007 -0.5713,0.42794 -0.6251,0.78137c-0.0538,0.35343 0.08508,0.70872 0.36431,0.93197l2.5,2c0.21571,0.17244 0.49311,0.24801 0.76648,0.2088c0.27336,-0.03921 0.51834,-0.18971 0.67688,-0.41583l3.5,-5c0.22045,-0.30501 0.25102,-0.70795 0.0791,-1.04272c-0.17192,-0.33477 -0.51722,-0.54469 -0.89355,-0.54322z"></path></g></g></svg>