<svg xmlns="http://www.w3.org/2000/svg" xmlns:xlink="http://www.w3.org/1999/xlink" viewBox="0,0,256,256" width="53px" height="53px" fill-rule="nonzero"><g fill-opacity="0" fill="#dddddd" fill-rule="nonzero" stroke="none" stroke-width="1" stroke-linecap="butt" stroke-linejoin="miter" stroke-miterlimit="10" stroke-dasharray="" stroke-dashoffset="0" font-family="none" font-weight="none" font-size="none" text-anchor="none" style="mix-blend-mode: normal"><path d="M0,256v-256h256v256z" id="bgRectangle"></path></g><g fill="#ffffff" fill-rule="nonzero" stroke="none" stroke-width="1" stroke-linecap="butt" stroke-linejoin="miter" stroke-miterlimit="10" stroke-dasharray="" stroke-dashoffset="0" font-family="none" font-weight="none" font-size="none" text-anchor="none" style="mix-blend-mode: normal"><g transform="scale(3.76471,3.76471)"><path d="M36.90039,2c-5.5,0 -10.40039,3.4 -12.40039,8.5c-5.8,-2.3 -12.20078,2.29922 -11.80078,8.69922c-4.2,0.6 -7.5,4.40039 -7.5,8.90039c0,3.7 2.20156,6.90078 5.60156,8.30078c0.5,0.2 1.09883,0 1.29883,-0.5c0.2,-0.5 0,-1.10078 -0.5,-1.30078c-2.6,-1.1 -4.29883,-3.6 -4.29883,-6.5c0,-3.8 2.89922,-6.9 6.69922,-7c0.6,0 1.00039,-0.59961 0.90039,-1.09961c-0.9,-6.3 5.29883,-9.69922 9.79883,-7.19922c0.6,0.3 1.3,-0.00156 1.5,-0.60156c1.3,-4.9 5.70117,-8.19922 10.70117,-8.19922c5.8,0 10.79883,4.40078 11.29883,10.30078c0,0.6 0.60117,0.99844 1.20117,0.89844c5.8,-0.9 11.40039,3.70039 11.40039,9.90039c0,3.4 -1.80156,6.60039 -4.60156,8.40039c-0.5,0.3 -0.59883,0.90039 -0.29883,1.40039c0.3,0.5 0.90039,0.59883 1.40039,0.29883c3.4,-2.2 5.5,-5.99961 5.5,-10.09961c0,-6.6 -5.4,-12 -12,-12h-0.70117c-1.1,-6.5 -6.69922,-11.09961 -13.19922,-11.09961zM26.90039,17.30078c-0.6,0 -1,0.4 -1,1v3h-2.70117c-2.2,0 -4,1.8 -4,4v2.69922h-3c-0.6,0 -1,0.4 -1,1c0,0.6 0.4,1 1,1h3v5.09961h-3c-0.6,0 -1,0.4 -1,1c0,0.6 0.4,1 1,1h3v5.09961h-3c-0.6,0 -1,0.4 -1,1c0,0.6 0.4,1 1,1h3v2.70117c0,2.2 1.8,4 4,4h1.5v5.29883c0,0.6 -0.4,1 -1,1h-6.19922c-0.4,-1.4 -1.80078,-2.5 -3.30078,-2.5c-1.9,0 -3.5,1.6 -3.5,3.5c0,1.9 1.6,3.5 3.5,3.5c1.6,0 2.90078,-1.1 3.30078,-2.5h6.19922c1.7,0 3,-1.3 3,-3v-5.29883h6.30078v8.19922c-1.4,0.4 -2.5,1.80078 -2.5,3.30078c0,1.9 1.6,3.5 3.5,3.5c1.9,0 3.5,-1.6 3.5,-3.5c0,-1.6 -1.1,-2.90078 -2.5,-3.30078v-8.19922h6.30078v5.29883c0,1.7 1.4,3.10156 3,3.10156h6.19922c0.4,1.4 1.80078,2.5 3.30078,2.5c1.9,0 3.5,-1.6 3.5,-3.5c0,-1.9 -1.6,-3.5 -3.5,-3.5c-1.6,0 -2.90078,1.1 -3.30078,2.5h-6.19922c-0.6,0 -1,-0.4 -1,-1v-5.30078h1.5c2.2,0 4,-1.8 4,-4v-2.69922h3c0.6,0 1,-0.4 1,-1c0,-0.6 -0.4,-1 -1,-1h-3v-5.10156h3c0.6,0 1,-0.4 1,-1c0,-0.6 -0.4,-1 -1,-1h-3v-5.19922h3c0.6,0 1,-0.4 1,-1c0,-0.6 -0.4,-1 -1,-1h-3v-2.69922c0,-2.2 -1.8,-4 -4,-4h-2.70117v-3c0,-0.6 -0.4,-1 -1,-1c-0.6,0 -1,0.4 -1,1v3h-5.09961v-3c0,-0.6 -0.4,-1 -1,-1c-0.6,0 -1,0.4 -1,1v3h-5.09961v-3c0,-0.6 -0.4,-1 -1,-1zM23.19922,23.30078h21.70117c1.1,0 2,0.9 2,2v21.69922c0,1.1 -0.9,2 -2,2h-21.70117c-1.1,-0.1 -2,-0.99961 -2,-2.09961v-21.59961c0,-1.1 0.9,-2 2,-2zM34,26.44922c-0.175,0 -0.35,0.05039 -0.5,0.15039l-7.40039,4.40039c-0.3,0.2 -0.5,0.50039 -0.5,0.90039v8.5c0,0.3 0.2,0.59883 0.5,0.79883l7.40039,4.30078c0.3,0.2 0.7,0.2 1,0l7.40039,-4.30078c0.3,-0.2 0.5,-0.49844 0.5,-0.89844v-8.5c0,-0.4 -0.2,-0.70039 -0.5,-0.90039l-7.40039,-4.30078c-0.15,-0.1 -0.325,-0.15039 -0.5,-0.15039zM34,28.69922l6.40039,3.70117v7.40039l-6.40039,3.69922l-6.40039,-3.69922v-7.40039zM14.09961,56.80078c0.8,0 1.5,0.7 1.5,1.5c0,0.8 -0.7,1.5 -1.5,1.5c-0.8,0 -1.5,-0.7 -1.5,-1.5c0,-0.8 0.7,-1.5 1.5,-1.5zM53.90039,56.80078c0.8,0 1.5,0.7 1.5,1.5c0,0.8 -0.7,1.5 -1.5,1.5c-0.8,0 -1.5,-0.7 -1.5,-1.5c0,-0.8 0.7,-1.5 1.5,-1.5zM33.90039,61c1.1,0.1 1.59961,0.8 1.59961,1.5c0,0.8 -0.7,1.5 -1.5,1.5c-0.8,0 -1.5,-0.7 -1.5,-1.5c0,-0.8 0.60039,-1.5 1.40039,-1.5z"></path></g></g></svg>