<svg xmlns="http://www.w3.org/2000/svg" xmlns:xlink="http://www.w3.org/1999/xlink" viewBox="0,0,256,256" width="10px" height="10px" fill-rule="nonzero"><g fill-opacity="0" fill="#dddddd" fill-rule="nonzero" stroke="none" stroke-width="1" stroke-linecap="butt" stroke-linejoin="miter" stroke-miterlimit="10" stroke-dasharray="" stroke-dashoffset="0" font-family="none" font-weight="none" font-size="none" text-anchor="none" style="mix-blend-mode: normal"><path d="M0,256v-256h256v256z" id="bgRectangle"></path></g><g fill="#747bff" fill-rule="nonzero" stroke="none" stroke-width="1" stroke-linecap="butt" stroke-linejoin="miter" stroke-miterlimit="10" stroke-dasharray="" stroke-dashoffset="0" font-family="none" font-weight="none" font-size="none" text-anchor="none" style="mix-blend-mode: normal"><g transform="scale(5.33333,5.33333)"><path d="M24,4c-4.94332,0 -9.48505,1.8 -12.97656,4.7793c-0.63049,0.53772 -0.70569,1.48474 -0.16797,2.11523c0.53772,0.63049 1.48474,0.70569 2.11523,0.16797c2.97049,-2.53471 6.81262,-4.0625 11.0293,-4.0625c9.40629,0 17,7.59371 17,17c0,4.82346 -1.99885,9.15916 -5.2168,12.25391c-0.39019,0.37069 -0.5519,0.922 -0.42378,1.44472c0.12812,0.52273 0.52645,0.93676 1.04383,1.085c0.51738,0.14824 1.07453,0.00796 1.46002,-0.36761c3.78205,-3.63725 6.13672,-8.76148 6.13672,-14.41602c0,-11.02771 -8.97229,-20 -20,-20zM15.5,17c-0.54095,-0.00765 -1.04412,0.27656 -1.31683,0.74381c-0.27271,0.46725 -0.27271,1.04514 0,1.51238c0.27271,0.46725 0.77588,0.75146 1.31683,0.74381h17c0.54095,0.00765 1.04412,-0.27656 1.31683,-0.74381c0.27271,-0.46725 0.27271,-1.04514 0,-1.51238c-0.27271,-0.46725 -0.77588,-0.75146 -1.31683,-0.74381zM6.02539,18.21094c-0.71308,-0.01213 -1.33613,0.47945 -1.49023,1.17578c-0.35056,1.48231 -0.53516,3.02788 -0.53516,4.61328c0,11.02771 8.97229,20 20,20c1.44856,0 2.86322,-0.15427 4.22656,-0.44727c0.81009,-0.17421 1.32557,-0.97214 1.15137,-1.78223c-0.17421,-0.81009 -0.97214,-1.32557 -1.78223,-1.15137c-1.15865,0.24901 -2.36026,0.38086 -3.5957,0.38086c-9.40629,0 -17,-7.59371 -17,-17c0,-1.35259 0.15764,-2.66419 0.45508,-3.92187c0.11217,-0.44427 0.01515,-0.91544 -0.26341,-1.27925c-0.27857,-0.36381 -0.70813,-0.58036 -1.16627,-0.58794zM15.52344,23c-0.54095,-0.00765 -1.04412,0.27656 -1.31683,0.74381c-0.27271,0.46725 -0.27271,1.04514 0,1.51238c0.27271,0.46725 0.77588,0.75146 1.31683,0.74381h16.97656c0.54095,0.00765 1.04412,-0.27656 1.31683,-0.74381c0.27271,-0.46725 0.27271,-1.04514 0,-1.51238c-0.27271,-0.46725 -0.77588,-0.75146 -1.31683,-0.74381zM15.5,29c-0.54095,-0.00765 -1.04412,0.27656 -1.31683,0.74381c-0.27271,0.46725 -0.27271,1.04514 0,1.51238c0.27271,0.46725 0.77588,0.75146 1.31683,0.74381h16.97656c0.54095,0.00765 1.04412,-0.27656 1.31683,-0.74381c0.27271,-0.46725 0.27271,-1.04514 0,-1.51238c-0.27271,-0.46725 -0.77588,-0.75146 -1.31683,-0.74381z"></path></g></g></svg>