<svg xmlns="http://www.w3.org/2000/svg" xmlns:xlink="http://www.w3.org/1999/xlink" viewBox="0,0,256,256" width="24px" height="24px" fill-rule="nonzero"><g fill-opacity="0" fill="#dddddd" fill-rule="nonzero" stroke="none" stroke-width="1" stroke-linecap="butt" stroke-linejoin="miter" stroke-miterlimit="10" stroke-dasharray="" stroke-dashoffset="0" font-family="none" font-weight="none" font-size="none" text-anchor="none" style="mix-blend-mode: normal"><path d="M0,256v-256h256v256z" id="bgRectangle"></path></g><g fill="#ffffff" fill-rule="evenodd" stroke="none" stroke-width="1" stroke-linecap="butt" stroke-linejoin="miter" stroke-miterlimit="10" stroke-dasharray="" stroke-dashoffset="0" font-family="none" font-weight="none" font-size="none" text-anchor="none" style="mix-blend-mode: normal"><g transform="scale(10.66667,10.66667)"><path d="M9,10.75c0.966,0 1.75,-0.784 1.75,-1.75v-6c0,-0.966 -0.784,-1.75 -1.75,-1.75h-6c-0.966,0 -1.75,0.784 -1.75,1.75v6c0,0.966 0.784,1.75 1.75,1.75zM9,9.25h-6c-0.138,0 -0.25,-0.112 -0.25,-0.25v-6c0,-0.138 0.112,-0.25 0.25,-0.25h6c0.138,0 0.25,0.112 0.25,0.25v6c0,0.138 -0.112,0.25 -0.25,0.25zM21,10.75c0.966,0 1.75,-0.784 1.75,-1.75v-6c0,-0.966 -0.784,-1.75 -1.75,-1.75h-6c-0.966,0 -1.75,0.784 -1.75,1.75v6c0,0.966 0.784,1.75 1.75,1.75zM21,9.25h-6c-0.138,0 -0.25,-0.112 -0.25,-0.25v-6c0,-0.138 0.112,-0.25 0.25,-0.25h6c0.138,0 0.25,0.112 0.25,0.25v6c0,0.138 -0.112,0.25 -0.25,0.25zM9,22.75c0.966,0 1.75,-0.784 1.75,-1.75v-6c0,-0.966 -0.784,-1.75 -1.75,-1.75h-6c-0.966,0 -1.75,0.784 -1.75,1.75v6c0,0.966 0.784,1.75 1.75,1.75zM9,21.25h-6c-0.138,0 -0.25,-0.112 -0.25,-0.25v-6c0,-0.138 0.112,-0.25 0.25,-0.25h6c0.138,0 0.25,0.112 0.25,0.25v6c0,0.138 -0.112,0.25 -0.25,0.25zM18,22.75c2.623,0 4.75,-2.127 4.75,-4.75c0,-2.623 -2.127,-4.75 -4.75,-4.75c-2.623,0 -4.75,2.127 -4.75,4.75c0,2.623 2.127,4.75 4.75,4.75zM18,21.25c-1.795,0 -3.25,-1.455 -3.25,-3.25c0,-1.795 1.455,-3.25 3.25,-3.25c1.795,0 3.25,1.455 3.25,3.25c0,1.795 -1.455,3.25 -3.25,3.25z"></path></g></g></svg>