<svg xmlns="http://www.w3.org/2000/svg" xmlns:xlink="http://www.w3.org/1999/xlink" viewBox="0,0,256,256" width="48px" height="48px" fill-rule="nonzero"><defs><clipPath id="clip-1"><path d="M0,256v-256h256v256zM58.66667,83.42857c-24.61829,0 -44.57143,19.95314 -44.57143,44.57143c0,24.61829 19.95314,44.57143 44.57143,44.57143c24.61829,0 44.57143,-19.95314 44.57143,-44.57143c0,-24.61829 -19.95314,-44.57143 -44.57143,-44.57143z" id="overlayBgMask" fill="none"></path></clipPath></defs><g fill-opacity="0" fill="#3e3e3e" fill-rule="nonzero" stroke="none" stroke-width="1" stroke-linecap="butt" stroke-linejoin="miter" stroke-miterlimit="10" stroke-dasharray="" stroke-dashoffset="0" font-family="none" font-weight="none" font-size="none" text-anchor="none" style="mix-blend-mode: normal"><path d="M0,256v-256h256v256z" id="bgRectangle"></path></g><g clip-path="url(#clip-1)" fill="none" fill-rule="nonzero" stroke="none" stroke-width="1" stroke-linecap="butt" stroke-linejoin="miter" stroke-miterlimit="10" stroke-dasharray="" stroke-dashoffset="0" font-family="none" font-weight="none" font-size="none" text-anchor="none" style="mix-blend-mode: normal"><g transform="translate(229.88267,256.01067) rotate(180) scale(5.33333,5.33333)" fill="#ffffff"><path d="M33.29,44.71l-2.12,2.12l-15.05,-15.05l5.66,-5.66l11.51,11.52c1.96,1.95 1.96,5.11 0,7.07zM33.293,10.364l-19.293,19.293l-5.657,-5.657l22.829,-22.828l2.121,2.121c1.952,1.952 1.952,5.118 0,7.071z"></path></g></g><g fill="#ffffff" fill-rule="nonzero" stroke="none" stroke-width="1" stroke-linecap="butt" stroke-linejoin="miter" stroke-miterlimit="10" stroke-dasharray="" stroke-dashoffset="0" font-family="none" font-weight="none" font-size="none" text-anchor="none" style="mix-blend-mode: normal"><g transform="translate(24,93.33333) scale(4.95238,4.95238)" id="overlay"><g id="Layer_2" font-family="Inter, apple-system, BlinkMacSystemFont, &quot;Helvetica Neue&quot;, &quot;Segoe UI&quot;, &quot;Fira Sans&quot;, Roboto, Oxygen, Ubuntu, &quot;Droid Sans&quot;, Arial, sans-serif" font-weight="400" font-size="16" text-anchor="start"></g><g id="Layer_3" font-family="Inter, apple-system, BlinkMacSystemFont, &quot;Helvetica Neue&quot;, &quot;Segoe UI&quot;, &quot;Fira Sans&quot;, Roboto, Oxygen, Ubuntu, &quot;Droid Sans&quot;, Arial, sans-serif" font-weight="400" font-size="16" text-anchor="start"></g><g id="Layer_1"><path d="M7,0c-3.867,0 -7,3.133 -7,7c0,3.867 3.133,7 7,7c3.867,0 7,-3.133 7,-7c0,-3.867 -3.133,-7 -7,-7z"></path></g></g></g></svg>