<svg xmlns="http://www.w3.org/2000/svg" xmlns:xlink="http://www.w3.org/1999/xlink" viewBox="0,0,256,256" width="64px" height="64px" fill-rule="nonzero"><g fill-opacity="0" fill="#dddddd" fill-rule="nonzero" stroke="none" stroke-width="1" stroke-linecap="butt" stroke-linejoin="miter" stroke-miterlimit="10" stroke-dasharray="" stroke-dashoffset="0" font-family="none" font-weight="none" font-size="none" text-anchor="none" style="mix-blend-mode: normal"><path d="M0,256v-256h256v256z" id="bgRectangle"></path></g><g fill="#ffffff" fill-rule="nonzero" stroke="none" stroke-width="1" stroke-linecap="butt" stroke-linejoin="miter" stroke-miterlimit="10" stroke-dasharray="" stroke-dashoffset="0" font-family="none" font-weight="none" font-size="none" text-anchor="none" style="mix-blend-mode: normal"><g transform="scale(0.5,0.5)"><path d="M156,31v74h200v-74zM178,119v116.30469c18.48678,-24.43728 47.35784,-38.79807 78,-38.79807c30.64216,0 59.51322,14.36079 78,38.79807v-116.30469zM259.53125,210.58008c-23.11242,-0.96208 -45.61688,7.54726 -62.31054,23.56074c-16.69366,16.01348 -26.13124,38.14471 -26.13087,61.27715c0.0539,46.87193 38.03823,84.85539 84.91016,84.9082c46.20207,-0.00585 83.91994,-36.95191 84.88088,-83.14399c0.96094,-46.19208 -35.18777,-84.67479 -81.34963,-86.6021zM256,233.37109c34.26683,0.00049 62.04528,27.77946 62.04512,62.04629c-0.00016,34.26683 -27.77888,62.04554 -62.04571,62.04571c-34.26683,0.00016 -62.04581,-27.77829 -62.04629,-62.04512c0.03864,-34.25153 27.79535,-62.00824 62.04688,-62.04688zM257.99805,247.41211c-13.07831,-0.54459 -25.81266,4.27039 -35.25887,13.33173c-9.44622,9.06133 -14.78645,21.58449 -14.78606,34.67413c0.03036,26.52266 21.52422,48.01565 48.04688,48.04492c26.14888,0.00451 47.50007,-20.90354 48.0439,-47.04676c0.54383,-26.14322 -19.9194,-47.9211 -46.04585,-49.00402zM254.20508,263.00391c3.78416,0.11091 6.79443,3.21031 6.79492,6.99609v26c0,3.86599 -3.13401,7 -7,7c-3.86599,0 -7,-3.13401 -7,-7v-26c0.00024,-1.89192 0.76629,-3.70318 2.12362,-5.02114c1.35733,-1.31796 3.19035,-2.03038 5.08146,-1.97495zM70,281v200h64v-200zM378,281v200h64v-200zM30,302v157h26v-157zM148,302v157h216v-157h-9.33398c-3.44503,51.90704 -46.6451,92.19529 -98.66602,92.01562c-52.02092,0.17967 -95.22099,-40.10858 -98.66602,-92.01562zM456,302v157h26v-157z"></path></g></g></svg>