<svg xmlns="http://www.w3.org/2000/svg" xmlns:xlink="http://www.w3.org/1999/xlink" viewBox="0,0,256,256" width="48px" height="48px" fill-rule="nonzero"><g fill-opacity="0" fill="#dddddd" fill-rule="nonzero" stroke="none" stroke-width="1" stroke-linecap="butt" stroke-linejoin="miter" stroke-miterlimit="10" stroke-dasharray="" stroke-dashoffset="0" font-family="none" font-weight="none" font-size="none" text-anchor="none" style="mix-blend-mode: normal"><path d="M0,256v-256h256v256z" id="bgRectangle"></path></g><g fill="#ffffff" fill-rule="nonzero" stroke="none" stroke-width="1" stroke-linecap="butt" stroke-linejoin="miter" stroke-miterlimit="10" stroke-dasharray="" stroke-dashoffset="0" font-family="none" font-weight="none" font-size="none" text-anchor="none" style="mix-blend-mode: normal"><g transform="scale(5.33333,5.33333)"><path d="M39.97461,1.00586c-2.625,0 -4.63441,1.13322 -5.44141,3.07422c-0.246,0.533 -0.35352,0.99989 -0.35352,1.58789c0,0.711 0.38308,1.11914 1.08008,1.11914c0.615,0 0.91448,-0.25975 1.14648,-1.09375c0.452,-1.641 1.65661,-2.55664 3.47461,-2.55664c2.01,0 3.34961,1.20347 3.34961,2.98047c0,1.395 -0.61517,2.28291 -2.20117,3.25391c-1.873,1.122 -2.73437,2.33759 -2.73437,4.18359v0.38281c0,0.78 0.36684,1.41016 1.21484,1.41016c0.848,0 1.17578,-0.58822 1.17578,-1.44922c0,-1.436 0.49252,-2.20156 2.22852,-3.22656c1.75,-1.053 2.85742,-2.53173 2.85742,-4.67773c0,-2.926 -2.40588,-4.98828 -5.79687,-4.98828zM22,4c-5.02628,0 -9,4.54905 -9,10c0,5.45095 3.97372,10 9,10c5.02628,0 9,-4.54905 9,-10c0,-5.45095 -3.97372,-10 -9,-10zM22,6c3.81029,0 7,3.50983 7,8c0,4.49017 -3.18971,8 -7,8c-3.81029,0 -7,-3.50983 -7,-8c0,-4.49017 3.18971,-8 7,-8zM39.49805,17.90234c-0.875,0 -1.55859,0.67155 -1.55859,1.56055c0,0.875 0.68359,1.55859 1.55859,1.55859c0.889,0 1.55859,-0.68359 1.55859,-1.55859c0,-0.889 -0.66959,-1.56055 -1.55859,-1.56055zM22,26c-8.78758,0 -16.5961,5.62919 -19.375,13.96484l-0.25781,0.76953c-0.85461,2.56251 1.09393,5.26563 3.79492,5.26563h31.67578c2.70031,0 4.64842,-2.70186 3.79492,-5.26367l-0.25781,-0.77148c-2.77888,-8.33664 -10.58742,-13.96484 -19.375,-13.96484zM22,28c7.93442,0 14.96939,5.07029 17.47852,12.59766l0.25586,0.76953c0.4405,1.32219 -0.5028,2.63281 -1.89648,2.63281h-31.67578c-1.39501,0 -2.33983,-1.30932 -1.89844,-2.63281l0.25781,-0.76953c2.5091,-7.52634 9.5441,-12.59766 17.47852,-12.59766z"></path></g></g></svg>