<svg xmlns="http://www.w3.org/2000/svg" xmlns:xlink="http://www.w3.org/1999/xlink" viewBox="0,0,256,256" width="48px" height="48px" fill-rule="nonzero"><g fill-opacity="0" fill="#dddddd" fill-rule="nonzero" stroke="none" stroke-width="1" stroke-linecap="butt" stroke-linejoin="miter" stroke-miterlimit="10" stroke-dasharray="" stroke-dashoffset="0" font-family="none" font-weight="none" font-size="none" text-anchor="none" style="mix-blend-mode: normal"><path d="M0,256v-256h256v256z" id="bgRectangle"></path></g><g fill="#ffffff" fill-rule="nonzero" stroke="none" stroke-width="1" stroke-linecap="butt" stroke-linejoin="miter" stroke-miterlimit="10" stroke-dasharray="" stroke-dashoffset="0" font-family="none" font-weight="none" font-size="none" text-anchor="none" style="mix-blend-mode: normal"><g transform="scale(5.33333,5.33333)"><path d="M24,4.50781c-0.89641,0 -1.79236,0.32998 -2.48047,0.98828v-0.00195l-9.70508,9.2832c-1.12102,1.07242 -1.35014,2.68381 -0.84961,3.93164c0.50053,1.24783 1.77847,2.25195 3.33008,2.25195h0.61914c0.54095,0.00765 1.04412,-0.27656 1.31683,-0.74381c0.27271,-0.46725 0.27271,-1.04514 0,-1.51238c-0.27271,-0.46725 -0.77588,-0.75146 -1.31683,-0.74381h-0.61914c-0.33239,0 -0.45615,-0.14297 -0.54687,-0.36914c-0.09072,-0.22617 -0.09936,-0.4169 0.14063,-0.64648l9.70508,-9.2832c0.23979,-0.2294 0.57271,-0.2294 0.8125,0l1.35938,1.30078c0.38386,0.38861 0.9486,0.53787 1.47434,0.38965c0.52574,-0.14822 0.92936,-0.57048 1.0537,-1.10237c0.12435,-0.53189 -0.05024,-1.08932 -0.45578,-1.45526l-1.35742,-1.30078v0.00195c-0.68811,-0.65829 -1.58406,-0.98828 -2.48047,-0.98828zM30.01563,9.48438c-0.61014,0.01384 -1.15108,0.39592 -1.36809,0.96633c-0.21701,0.57041 -0.06684,1.21543 0.37981,1.63132l5.08398,4.86523c0.23998,0.22958 0.23135,0.41836 0.14063,0.64453c-0.09072,0.22617 -0.21448,0.37109 -0.54687,0.37109h-14.44922c-0.54095,-0.00765 -1.04412,0.27656 -1.31683,0.74381c-0.27271,0.46725 -0.27271,1.04514 0,1.51238c0.27271,0.46725 0.77588,0.75146 1.31683,0.74381h14.44922c1.55161,0 2.82955,-1.00607 3.33008,-2.25391c0.50053,-1.24783 0.27141,-2.85727 -0.84961,-3.92969l-5.08398,-4.86328c-0.28876,-0.28475 -0.68049,-0.44046 -1.08594,-0.43164zM14.29492,27.03711c-1.55161,0 -2.82955,1.00607 -3.33008,2.25391c-0.50053,1.24783 -0.27141,2.85727 0.84961,3.92969l2.69336,2.57617c0.59921,0.57224 1.54885,0.55038 2.12109,-0.04883c0.57224,-0.59921 0.55038,-1.54885 -0.04883,-2.12109l-2.69141,-2.57422c-0.23998,-0.22958 -0.23135,-0.41836 -0.14062,-0.64453c0.09072,-0.22617 0.21448,-0.37109 0.54688,-0.37109h12.50781c0.54095,0.00765 1.04412,-0.27656 1.31683,-0.74381c0.27271,-0.46725 0.27271,-1.04514 0,-1.51238c-0.27271,-0.46725 -0.77588,-0.75146 -1.31683,-0.74381zM32.0625,27.03711c-0.54095,-0.00765 -1.04412,0.27656 -1.31683,0.74381c-0.27271,0.46725 -0.27271,1.04514 0,1.51238c0.27271,0.46725 0.77588,0.75146 1.31683,0.74381h1.64258c0.33239,0 0.45615,0.14493 0.54688,0.37109c0.09072,0.22617 0.09936,0.41495 -0.14062,0.64453l-9.70508,9.2832c-0.23979,0.2294 -0.57271,0.2294 -0.8125,0c-0.00065,0 -0.0013,0 -0.00195,0l-3.30078,-3.15625c-0.38386,-0.38862 -0.9486,-0.53788 -1.47434,-0.38966c-0.52574,0.14822 -0.92936,0.57048 -1.05371,1.10237c-0.12435,0.53189 0.05024,1.08933 0.45578,1.45526l3.30078,3.15625c1.37621,1.3166 3.58473,1.3166 4.96094,0l9.70508,-9.2832c1.12102,-1.07242 1.35014,-2.68186 0.84961,-3.92969c-0.50053,-1.24783 -1.77847,-2.25391 -3.33008,-2.25391z"></path></g></g></svg>