<svg xmlns="http://www.w3.org/2000/svg" xmlns:xlink="http://www.w3.org/1999/xlink" viewBox="0,0,256,256" width="48px" height="48px" fill-rule="nonzero"><g fill-opacity="0" fill="#dddddd" fill-rule="nonzero" stroke="none" stroke-width="1" stroke-linecap="butt" stroke-linejoin="miter" stroke-miterlimit="10" stroke-dasharray="" stroke-dashoffset="0" font-family="none" font-weight="none" font-size="none" text-anchor="none" style="mix-blend-mode: normal"><path d="M0,256v-256h256v256z" id="bgRectangle"></path></g><g fill="none" fill-rule="nonzero" stroke="none" stroke-width="none" stroke-linecap="none" stroke-linejoin="none" stroke-miterlimit="10" stroke-dasharray="" stroke-dashoffset="0" font-family="none" font-weight="none" font-size="none" text-anchor="none" style="mix-blend-mode: normal"><g transform="scale(5.33333,5.33333)"><path d="M7.5,10.5c0,-1.7 1.3,-3 3,-3h7c1.7,0 3,1.3 3,3v7c0,1.7 -1.3,3 -3,3h-7c-1.7,0 -3,-1.3 -3,-3" fill="none" stroke="#ffffff" stroke-width="3" stroke-linecap="round" stroke-linejoin="round"></path><path d="M13,12h2c0.6,0 1,0.4 1,1v2c0,0.6 -0.4,1 -1,1h-2c-0.6,0 -1,-0.4 -1,-1v-2c0,-0.6 0.4,-1 1,-1z" fill="#ffffff" stroke="none" stroke-width="1" stroke-linecap="butt" stroke-linejoin="miter"></path><path d="M20.5,37.5c0,1.7 -1.3,3 -3,3h-7c-1.7,0 -3,-1.3 -3,-3v-7c0,-1.7 1.3,-3 3,-3h7c1.7,0 3,1.3 3,3" fill="none" stroke="#ffffff" stroke-width="3" stroke-linecap="round" stroke-linejoin="round"></path><path d="M13,32h2c0.6,0 1,0.4 1,1v2c0,0.6 -0.4,1 -1,1h-2c-0.6,0 -1,-0.4 -1,-1v-2c0,-0.6 0.4,-1 1,-1z" fill="#ffffff" stroke="none" stroke-width="1" stroke-linecap="butt" stroke-linejoin="miter"></path><path d="M30.5,20.5c-1.7,0 -3,-1.3 -3,-3v-7c0,-1.7 1.3,-3 3,-3h7c1.7,0 3,1.3 3,3v7c0,1.7 -1.3,3 -3,3h-1" fill="none" stroke="#ffffff" stroke-width="3" stroke-linecap="round" stroke-linejoin="round"></path><path d="M33,12h2c0.6,0 1,0.4 1,1v2c0,0.6 -0.4,1 -1,1h-2c-0.6,0 -1,-0.4 -1,-1v-2c0,-0.6 0.4,-1 1,-1z" fill="#ffffff" stroke="none" stroke-width="1" stroke-linecap="butt" stroke-linejoin="miter"></path><path d="M27.9,26h3.2c0.5,0 0.9,0.4 0.9,0.9v3.2c0,0.5 -0.4,0.9 -0.9,0.9h-3.2c-0.5,0 -0.9,-0.4 -0.9,-0.9v-3.2c0,-0.5 0.4,-0.9 0.9,-0.9z" fill="#ffffff" stroke="none" stroke-width="1" stroke-linecap="butt" stroke-linejoin="miter"></path><path d="M27.9,36h3.2c0.5,0 0.9,0.4 0.9,0.9v3.2c0,0.5 -0.4,0.9 -0.9,0.9h-3.2c-0.5,0 -0.9,-0.4 -0.9,-0.9v-3.2c0,-0.5 0.4,-0.9 0.9,-0.9z" fill="#ffffff" stroke="none" stroke-width="1" stroke-linecap="butt" stroke-linejoin="miter"></path><path d="M37.9,26h3.2c0.5,0 0.9,0.4 0.9,0.9v3.2c0,0.5 -0.4,0.9 -0.9,0.9h-3.2c-0.5,0 -0.9,-0.4 -0.9,-0.9v-3.2c0,-0.5 0.4,-0.9 0.9,-0.9z" fill="#ffffff" stroke="none" stroke-width="1" stroke-linecap="butt" stroke-linejoin="miter"></path><path d="M37.9,36h3.2c0.5,0 0.9,0.4 0.9,0.9v3.2c0,0.5 -0.4,0.9 -0.9,0.9h-3.2c-0.5,0 -0.9,-0.4 -0.9,-0.9v-3.2c0,-0.5 0.4,-0.9 0.9,-0.9z" fill="#ffffff" stroke="none" stroke-width="1" stroke-linecap="butt" stroke-linejoin="miter"></path><path d="M32.9,31h3.2c0.5,0 0.9,0.4 0.9,0.9v3.2c0,0.5 -0.4,0.9 -0.9,0.9h-3.2c-0.5,0 -0.9,-0.4 -0.9,-0.9v-3.2c0,-0.5 0.4,-0.9 0.9,-0.9z" fill="#ffffff" stroke="none" stroke-width="1" stroke-linecap="butt" stroke-linejoin="miter"></path></g></g></svg>