<svg xmlns="http://www.w3.org/2000/svg" xmlns:xlink="http://www.w3.org/1999/xlink" viewBox="0,0,256,256" width="48px" height="48px" fill-rule="nonzero"><g fill-opacity="0" fill="#dddddd" fill-rule="nonzero" stroke="none" stroke-width="1" stroke-linecap="butt" stroke-linejoin="miter" stroke-miterlimit="10" stroke-dasharray="" stroke-dashoffset="0" font-family="none" font-weight="none" font-size="none" text-anchor="none" style="mix-blend-mode: normal"><path d="M0,256v-256h256v256z" id="bgRectangle"></path></g><g fill="#ffffff" fill-rule="nonzero" stroke="none" stroke-width="1" stroke-linecap="butt" stroke-linejoin="miter" stroke-miterlimit="10" stroke-dasharray="" stroke-dashoffset="0" font-family="none" font-weight="none" font-size="none" text-anchor="none" style="mix-blend-mode: normal"><g transform="scale(5.33333,5.33333)"><path d="M24,4c-0.41,0 -0.81454,0.02394 -1.21289,0.07227c-0.82249,0.09978 -1.40837,0.84743 -1.30859,1.66992c0.09978,0.82249 0.84743,1.40837 1.66992,1.30859c0.27765,-0.03368 0.56156,-0.05078 0.85156,-0.05078c3.88318,0 7,3.11682 7,7c0,2.21454 -1.01887,4.17065 -2.61328,5.45508c-0.42027,0.33539 -0.6289,0.87005 -0.54686,1.40144c0.08204,0.53139 0.44221,0.97824 0.94406,1.17126c0.50185,0.19302 1.06862,0.10269 1.48561,-0.23676c2.27359,-1.83157 3.73047,-4.65156 3.73047,-7.79102c0,-5.50482 -4.49518,-10 -10,-10zM17.21875,7.42188c-0.49416,-0.01187 -0.96245,0.22045 -1.25195,0.62109c-1.2346,1.66259 -1.9668,3.73267 -1.9668,5.95703c0,5.41197 4.34141,9.84821 9.72266,9.99609c0.54496,0.0299 1.06315,-0.23852 1.35311,-0.7009c0.28996,-0.46238 0.30592,-1.04575 0.04168,-1.5233c-0.26424,-0.47754 -0.76698,-0.7739 -1.31276,-0.77385c-3.78875,-0.10412 -6.80469,-3.18001 -6.80469,-6.99805c0,-1.56964 0.5096,-3.00256 1.375,-4.16797c0.34233,-0.44831 0.40425,-1.05075 0.16027,-1.55932c-0.24398,-0.50857 -0.75262,-0.83729 -1.31652,-0.85084zM13.5,28c-3.01977,0 -5.5,2.48023 -5.5,5.5c0,3.15367 1.75471,5.71997 4.21094,7.39258c2.45623,1.6726 5.61907,2.61137 8.92773,2.95898c0.82411,0.08629 1.56214,-0.51182 1.64844,-1.33594c0.08629,-0.82411 -0.51182,-1.56214 -1.33594,-1.64844c-2.93533,-0.30839 -5.67051,-1.17468 -7.55078,-2.45508c-1.88027,-1.2804 -2.90039,-2.81578 -2.90039,-4.91211c0,-1.39823 1.10177,-2.5 2.5,-2.5h21.00195c0.6059,0 1.14296,0.20757 1.57422,0.55859c0.41471,0.34668 0.98386,0.44346 1.48984,0.25332c0.50599,-0.19013 0.87056,-0.63777 0.95434,-1.17177c0.08378,-0.534 -0.1262,-1.07178 -0.54965,-1.40773c-0.94474,-0.76898 -2.16065,-1.23242 -3.46875,-1.23242zM44.49805,28c-0.38375,0 -0.76755,0.14645 -1.06055,0.43945l-13.93945,13.93945l-5.9375,-5.93945c-0.586,-0.586 -1.53509,-0.586 -2.12109,0c-0.586,0.585 -0.586,1.53609 0,2.12109l7,7c0.293,0.293 0.67655,0.43945 1.06055,0.43945c0.384,0 0.76759,-0.14645 1.05859,-0.43945l15,-15c0.586,-0.585 0.586,-1.53609 0,-2.12109c-0.293,-0.293 -0.6768,-0.43945 -1.06055,-0.43945z"></path></g></g></svg>