<svg xmlns="http://www.w3.org/2000/svg" xmlns:xlink="http://www.w3.org/1999/xlink" viewBox="0,0,256,256" width="60px" height="60px" fill-rule="nonzero"><g fill-opacity="0" fill="#dddddd" fill-rule="nonzero" stroke="none" stroke-width="1" stroke-linecap="butt" stroke-linejoin="miter" stroke-miterlimit="10" stroke-dasharray="" stroke-dashoffset="0" font-family="none" font-weight="none" font-size="none" text-anchor="none" style="mix-blend-mode: normal"><path d="M0,256v-256h256v256z" id="bgRectangle"></path></g><g fill="#ffffff" fill-rule="nonzero" stroke="none" stroke-width="1" stroke-linecap="butt" stroke-linejoin="miter" stroke-miterlimit="10" stroke-dasharray="" stroke-dashoffset="0" font-family="none" font-weight="none" font-size="none" text-anchor="none" style="mix-blend-mode: normal"><g transform="scale(0.53333,0.53333)"><path d="M24,22c-13.233,0 -24,10.767 -24,24v388c0,13.233 10.767,24 24,24h432c13.233,0 24,-10.767 24,-24v-388c0,-13.233 -10.767,-24 -24,-24h-170c-4.418,0 -8,3.582 -8,8v202h-225.90234c-4.418,0 -8,3.582 -8,8c0,4.418 3.582,8 8,8h225.90234v152.74219c0,4.418 3.582,8 8,8c4.418,0 8,-3.582 8,-8v-362.74219h162c4.411,0 8,3.589 8,8v34h-121.58008c-4.418,0 -8,3.582 -8,8c0,4.418 3.582,8 8,8h121.58008v338c0,4.411 -3.589,8 -8,8h-432c-4.411,0 -8,-3.589 -8,-8v-86h221.51758c4.418,0 8,-3.582 8,-8c0,-4.418 -3.582,-8 -8,-8h-221.51758v-184h224c4.418,0 8,-3.582 8,-8c0,-4.418 -3.582,-8 -8,-8h-224v-86c0,-4.411 3.589,-8 8,-8h213.90234c4.418,0 8,-3.582 8,-8c0,-4.418 -3.582,-8 -8,-8zM139,72c-4.418,0 -8,3.582 -8,8c0,4.418 3.582,8 8,8h16c4.418,0 8,-3.582 8,-8c0,-4.418 -3.582,-8 -8,-8zM139,172c-4.418,0 -8,3.582 -8,8c0,4.418 3.582,8 8,8h16c4.418,0 8,-3.582 8,-8c0,-4.418 -3.582,-8 -8,-8zM139,272c-4.418,0 -8,3.582 -8,8c0,4.418 3.582,8 8,8h16c4.418,0 8,-3.582 8,-8c0,-4.418 -3.582,-8 -8,-8zM139,372c-4.418,0 -8,3.582 -8,8c0,4.418 3.582,8 8,8h16c4.418,0 8,-3.582 8,-8c0,-4.418 -3.582,-8 -8,-8z"></path></g></g></svg>