<svg xmlns="http://www.w3.org/2000/svg" xmlns:xlink="http://www.w3.org/1999/xlink" viewBox="0,0,256,256" width="48px" height="48px" fill-rule="nonzero"><g fill-opacity="0" fill="#ffffff" fill-rule="nonzero" stroke="none" stroke-width="1" stroke-linecap="butt" stroke-linejoin="miter" stroke-miterlimit="10" stroke-dasharray="" stroke-dashoffset="0" font-family="none" font-weight="none" font-size="none" text-anchor="none" style="mix-blend-mode: normal"><path d="M0,256v-256h256v256z" id="bgRectangle"></path></g><g fill="none" fill-rule="nonzero" stroke="#ffffff" stroke-width="3" stroke-linecap="round" stroke-linejoin="round" stroke-miterlimit="10" stroke-dasharray="" stroke-dashoffset="0" font-family="none" font-weight="none" font-size="none" text-anchor="none" style="mix-blend-mode: normal"><g transform="scale(5.33333,5.33333)"><path d="M39.5,34.9v2.6c0,1.7 -1.3,3 -3,3h-25c-1.7,0 -3,-1.3 -3,-3v-9.3"></path><path d="M39.5,21.5v7.4"></path><path d="M15.5,19.5v4"></path><path d="M32.5,19.5v4"></path><path d="M16.5,12.5v-3c0,-1.1 0.9,-2 2,-2h11c1.1,0 2,0.9 2,2v3"></path><path d="M31.5,12.5h7c1.7,0 3,1.3 3,3v4c0,1.1 -0.9,2 -2,2h-24"></path><path d="M15.5,21.5h-7c-1.1,0 -2,-0.9 -2,-2v-4c0,-1.7 1.3,-3 3,-3h22"></path></g></g></svg>