<svg xmlns="http://www.w3.org/2000/svg" xmlns:xlink="http://www.w3.org/1999/xlink" viewBox="0,0,256,256" width="48px" height="48px" fill-rule="nonzero"><g fill-opacity="0" fill="#ffffff" fill-rule="nonzero" stroke="none" stroke-width="1" stroke-linecap="butt" stroke-linejoin="miter" stroke-miterlimit="10" stroke-dasharray="" stroke-dashoffset="0" font-family="none" font-weight="none" font-size="none" text-anchor="none" style="mix-blend-mode: normal"><path d="M0,256v-256h256v256z" id="bgRectangle"></path></g><g fill="none" fill-rule="nonzero" stroke="#ffffff" stroke-width="3" stroke-linecap="round" stroke-linejoin="round" stroke-miterlimit="10" stroke-dasharray="" stroke-dashoffset="0" font-family="none" font-weight="none" font-size="none" text-anchor="none" style="mix-blend-mode: normal"><g transform="scale(5.33333,5.33333)"><path d="M17.7,24.5c-3.9,3.9 -8.2,8.2 -8.5,8.5c-1.8,1.8 -1.6,4.8 0.7,6.3c1.6,1.1 3.8,0.8 5.2,-0.6l5.4,-5.4"></path><path d="M37.7,23.7c0.2,-0.1 0.3,-0.3 0.5,-0.5c2.4,-2.4 3.3,-5.9 2.5,-9c-0.2,-0.8 -1.1,-1.1 -1.7,-0.5l-4.6,4.6c-1.2,1.2 -3,1.4 -4.3,0.5c-1.9,-1.2 -2.1,-3.8 -0.6,-5.3l4.7,-4.5c0.6,-0.6 0.3,-1.5 -0.5,-1.7c-3.1,-0.8 -6.6,0.1 -9,2.5c-1.3,1.3 -2.1,2.9 -2.5,4.5"></path><path d="M28,34.5l-3.2,-3.2c-1.8,-1.8 -1.8,-4.7 0,-6.4v0c1.8,-1.8 4.7,-1.8 6.4,0l7.9,8c1.8,1.8 1.8,4.7 0,6.4c-1.8,1.8 -4.7,1.8 -6.4,0l-0.9,-0.9"></path><path d="M8.9,8.1l-0.8,0.8c-0.3,0.3 -0.4,0.8 -0.1,1.2l3.4,5.4c0.7,1.1 2.2,1.3 3.1,0.4l1.4,-1.4c0.9,-0.9 0.7,-2.4 -0.4,-3.1l-5.4,-3.4c-0.3,-0.3 -0.8,-0.3 -1.2,0.1z"></path><path d="M15.4,15.4l9.1,9.1"></path></g></g></svg>