<svg xmlns="http://www.w3.org/2000/svg" xmlns:xlink="http://www.w3.org/1999/xlink" viewBox="0,0,256,256" width="48px" height="48px" fill-rule="nonzero"><g fill-opacity="0" fill="#ffffff" fill-rule="nonzero" stroke="none" stroke-width="1" stroke-linecap="butt" stroke-linejoin="miter" stroke-miterlimit="10" stroke-dasharray="" stroke-dashoffset="0" font-family="none" font-weight="none" font-size="none" text-anchor="none" style="mix-blend-mode: normal"><path d="M0,256v-256h256v256z" id="bgRectangle"></path></g><g fill="none" fill-rule="nonzero" stroke="#ffffff" stroke-width="3" stroke-linecap="none" stroke-linejoin="none" stroke-miterlimit="10" stroke-dasharray="" stroke-dashoffset="0" font-family="none" font-weight="none" font-size="none" text-anchor="none" style="mix-blend-mode: normal"><g transform="scale(5.33333,5.33333)"><path d="M42.5,23.1v13.1c0,2.3 -1.9,4.2 -4.2,4.2h-28.6" stroke-linecap="round" stroke-linejoin="round"></path><path d="M5.5,27.4v-15.7c0,-2.3 1.9,-4.2 4.2,-4.2h28.5c2.3,0 4.2,1.9 4.2,4.2v4.9" stroke-linecap="round" stroke-linejoin="round"></path><circle cx="18.8" cy="16.5" r="3" stroke-linecap="butt" stroke-linejoin="miter"></circle><path d="M27.1,29.2l2.2,-2.6c1,-1.1 2.7,-1.1 3.7,0l8.8,10.4" stroke-linecap="round" stroke-linejoin="round"></path><path d="M26.1,36.2l-8.1,-9.6c-1,-1.1 -2.7,-1.1 -3.7,0l-8,8.5c-2,2.1 -0.5,5.5 2.4,5.5h8.8" stroke-linecap="round" stroke-linejoin="round"></path></g></g></svg>