<svg xmlns="http://www.w3.org/2000/svg" xmlns:xlink="http://www.w3.org/1999/xlink" viewBox="0,0,256,256" width="48px" height="48px" fill-rule="nonzero"><g fill-opacity="0" fill="#dddddd" fill-rule="nonzero" stroke="none" stroke-width="1" stroke-linecap="butt" stroke-linejoin="miter" stroke-miterlimit="10" stroke-dasharray="" stroke-dashoffset="0" font-family="none" font-weight="none" font-size="none" text-anchor="none" style="mix-blend-mode: normal"><path d="M0,256v-256h256v256z" id="bgRectangle"></path></g><g fill="none" fill-rule="nonzero" stroke="#ffffff" stroke-width="3" stroke-linecap="round" stroke-linejoin="round" stroke-miterlimit="10" stroke-dasharray="" stroke-dashoffset="0" font-family="none" font-weight="none" font-size="none" text-anchor="none" style="mix-blend-mode: normal"><g transform="scale(5.33333,5.33333)"><path d="M38.6,34l-1.1,3.7c-0.5,1.7 -2.1,2.8 -3.8,2.8h-22.2c-2,0 -3.5,-2 -2.9,-3.9l0.4,-1.4"></path><path d="M23.5,30.5h-12c-2,0 -3.5,-2 -2.9,-3.9l0.5,-1.6"></path><path d="M38.8,23.1l-1.4,4.6c-0.5,1.7 -2.1,2.8 -3.8,2.8h-3.7"></path><path d="M29.1,7.5h7.4c2,0 3.5,2 2.9,3.9l-1.9,6.3c-0.5,1.7 -2.1,2.8 -3.8,2.8h-22.2c-2,0 -3.5,-2 -2.9,-3.9l1.9,-6.3c0.5,-1.7 2.1,-2.8 3.8,-2.8h6.1"></path></g></g></svg>