<svg xmlns="http://www.w3.org/2000/svg" xmlns:xlink="http://www.w3.org/1999/xlink" viewBox="0,0,256,256" width="48px" height="48px" fill-rule="nonzero"><g fill-opacity="0" fill="#dddddd" fill-rule="nonzero" stroke="none" stroke-width="1" stroke-linecap="butt" stroke-linejoin="miter" stroke-miterlimit="10" stroke-dasharray="" stroke-dashoffset="0" font-family="none" font-weight="none" font-size="none" text-anchor="none" style="mix-blend-mode: normal"><path d="M0,256v-256h256v256z" id="bgRectangle"></path></g><g fill="#ffffff" fill-rule="nonzero" stroke="none" stroke-width="1" stroke-linecap="butt" stroke-linejoin="miter" stroke-miterlimit="10" stroke-dasharray="" stroke-dashoffset="0" font-family="none" font-weight="none" font-size="none" text-anchor="none" style="mix-blend-mode: normal"><g transform="scale(5.33333,5.33333)"><path d="M18,2c-2.2151,0 -4.27787,0.72634 -5.9375,1.95313c-0.44328,0.31398 -0.6822,0.84307 -0.6246,1.38323c0.0576,0.54016 0.4027,1.00697 0.90223,1.22043c0.49952,0.21345 1.07541,0.14018 1.50558,-0.19155c1.16237,-0.85921 2.59139,-1.36523 4.1543,-1.36523c3.88318,0 7,3.11682 7,7c0,3.88318 -3.11682,7 -7,7c-3.88318,0 -7,-3.11682 -7,-7c0.00765,-0.54095 -0.27656,-1.04412 -0.74381,-1.31683c-0.46725,-0.27271 -1.04514,-0.27271 -1.51238,0c-0.46725,0.27271 -0.75146,0.77588 -0.74381,1.31683c0,5.50482 4.49518,10 10,10c5.50482,0 10,-4.49518 10,-10c0,-5.50482 -4.49518,-10 -10,-10zM36.01172,24.10156c-2.05863,-0.03717 -4.01574,0.53968 -5.68359,1.55078c-0.47602,0.26913 -0.76789,0.77597 -0.76173,1.32277c0.00616,0.5468 0.30936,1.04694 0.79132,1.30529c0.48196,0.25835 1.06632,0.23398 1.5251,-0.06361c1.21725,-0.73793 2.61915,-1.14628 4.08789,-1.11719c0.00977,0.0001 0.01953,0.0001 0.0293,0c4.35385,0 7.98354,3.73026 7.90039,7.9707c-0.01056,0.53596 0.26564,1.03683 0.72455,1.3139c0.45891,0.27707 1.03078,0.28824 1.50015,0.0293c0.46937,-0.25894 0.76493,-0.74865 0.7753,-1.28461c0.11677,-5.9555 -4.8481,-11.02045 -10.88867,-11.02734zM7.5,26c-3.01977,0 -5.5,2.48023 -5.5,5.5c0,3.72483 2.42904,6.56701 5.61328,8.22852c3.18425,1.6615 7.19956,2.37114 11.15625,2.26172c0.53599,-0.01452 1.02351,-0.31393 1.27885,-0.78542c0.25534,-0.47149 0.2397,-1.04339 -0.04102,-1.50022c-0.28073,-0.45683 -0.78387,-0.72915 -1.31986,-0.71436c-3.52831,0.09758 -7.12704,-0.58688 -9.68555,-1.92187c-2.5585,-1.335 -4.00195,-3.09219 -4.00195,-5.56836c0,-1.39823 1.10177,-2.5 2.5,-2.5h15.81836c0.54095,0.00765 1.04412,-0.27656 1.31683,-0.74381c0.27271,-0.46725 0.27271,-1.04514 0,-1.51238c-0.27271,-0.46725 -0.77588,-0.75146 -1.31683,-0.74381zM35.97656,30.17969c-0.82689,0.01293 -1.48735,0.69261 -1.47656,1.51953v1.80078h-1.80078c-0.54095,-0.00765 -1.04412,0.27656 -1.31683,0.74381c-0.27271,0.46725 -0.27271,1.04514 0,1.51238c0.27271,0.46725 0.77588,0.75146 1.31683,0.74381h1.80078v1.80078c-0.00765,0.54095 0.27656,1.04412 0.74381,1.31683c0.46725,0.27271 1.04514,0.27271 1.51238,0c0.46725,-0.27271 0.75146,-0.77588 0.74381,-1.31683v-1.80078h1.80078c0.54095,0.00765 1.04412,-0.27656 1.31683,-0.74381c0.27271,-0.46725 0.27271,-1.04514 0,-1.51238c-0.27271,-0.46725 -0.77588,-0.75146 -1.31683,-0.74381h-1.80078v-1.80078c0.00529,-0.40528 -0.15365,-0.79546 -0.44062,-1.08169c-0.28697,-0.28623 -0.67755,-0.44417 -1.08282,-0.43784zM26.75586,31.06445c-0.65645,0.03244 -1.21534,0.48842 -1.37891,1.125c-0.24374,0.89295 -0.37337,1.83066 -0.375,2.79297c-0.10977,5.95423 4.85645,11.01758 10.89844,11.01758c3.07037,0 5.9766,-1.13745 7.99023,-3.26953c0.36818,-0.3897 0.50047,-0.94623 0.34702,-1.45991c-0.15345,-0.51369 -0.56932,-0.90647 -1.09092,-1.03037c-0.5216,-0.1239 -1.06968,0.03992 -1.43774,0.42973c-1.38637,1.46792 -3.47896,2.33008 -5.80859,2.33008c-4.35385,0 -7.98354,-3.73026 -7.90039,-7.9707c0.0001,-0.00977 0.0001,-0.01953 0,-0.0293c0,-0.69735 0.09476,-1.37404 0.27148,-2.02148c0.13427,-0.4655 0.03546,-0.9672 -0.2653,-1.34702c-0.30076,-0.37982 -0.76644,-0.59102 -1.25033,-0.56704z"></path></g></g></svg>