<svg xmlns="http://www.w3.org/2000/svg" xmlns:xlink="http://www.w3.org/1999/xlink" viewBox="0,0,256,256" width="48px" height="48px" fill-rule="nonzero"><g fill-opacity="0" fill="#dddddd" fill-rule="nonzero" stroke="none" stroke-width="1" stroke-linecap="butt" stroke-linejoin="miter" stroke-miterlimit="10" stroke-dasharray="" stroke-dashoffset="0" font-family="none" font-weight="none" font-size="none" text-anchor="none" style="mix-blend-mode: normal"><path d="M0,256v-256h256v256z" id="bgRectangle"></path></g><g fill="#ffffff" fill-rule="nonzero" stroke="none" stroke-width="1" stroke-linecap="butt" stroke-linejoin="miter" stroke-miterlimit="10" stroke-dasharray="" stroke-dashoffset="0" font-family="none" font-weight="none" font-size="none" text-anchor="none" style="mix-blend-mode: normal"><g transform="scale(5.33333,5.33333)"><path d="M23.83008,7c-0.54095,-0.00765 -1.04412,0.27656 -1.31683,0.74381c-0.27271,0.46725 -0.27271,1.04514 0,1.51238c0.27271,0.46725 0.77588,0.75146 1.31683,0.74381h9.66992c1.90185,0 3.41228,1.4775 3.48633,3.35938c-0.01165,0.12702 -0.00706,0.255 0.01367,0.38086v4.02539c-0.00765,0.54095 0.27656,1.04412 0.74381,1.31683c0.46725,0.27271 1.04514,0.27271 1.51238,0c0.46725,-0.27271 0.75146,-0.77588 0.74381,-1.31683v-2.42187c1.18462,0.55749 2,1.74724 2,3.15625v17c0,1.95006 -1.54994,3.5 -3.5,3.5h-24c-0.54095,-0.00765 -1.04412,0.27656 -1.31683,0.74381c-0.27271,0.46725 -0.27271,1.04514 0,1.51238c0.27271,0.46725 0.77588,0.75146 1.31683,0.74381h24c3.57194,0 6.5,-2.92806 6.5,-6.5v-17c0,-3.1078 -2.21783,-5.725 -5.14648,-6.35352c-0.62851,-2.92866 -3.24571,-5.14648 -6.35352,-5.14648zM16.41602,8.42578c-0.12092,0.00468 -0.24286,0.01735 -0.36328,0.03906c-0.4817,0.08687 -0.94914,0.31047 -1.32031,0.68164l-10.41406,10.41406c-0.84481,0.84331 -1.31836,1.98866 -1.31836,3.18164v7.75781c0,3.57194 2.92806,6.5 6.5,6.5h24c3.57194,0 6.5,-2.92806 6.5,-6.5v-4.43555c0.00765,-0.54095 -0.27656,-1.04412 -0.74381,-1.31683c-0.46725,-0.27271 -1.04514,-0.27271 -1.51238,0c-0.46725,0.27271 -0.75146,0.77588 -0.74381,1.31683v4.43555c0,1.95006 -1.54994,3.5 -3.5,3.5h-24c-1.95006,0 -3.5,-1.54994 -3.5,-3.5v-7.75781c0,-0.39902 0.15826,-0.7779 0.43945,-1.05859l9.56055,-9.56055v6.37695c0,0.8465 -0.6535,1.5 -1.5,1.5h-4.13867c-0.54095,-0.00765 -1.04412,0.27656 -1.31683,0.74381c-0.27271,0.46725 -0.27271,1.04514 0,1.51238c0.27271,0.46725 0.77588,0.75146 1.31683,0.74381h4.13867c2.4675,0 4.5,-2.0325 4.5,-4.5v-7.58594c0,-1.04988 -0.6902,-1.95542 -1.54297,-2.30859c-0.31979,-0.13244 -0.67825,-0.19374 -1.04102,-0.17969z"></path></g></g></svg>