<svg xmlns="http://www.w3.org/2000/svg" xmlns:xlink="http://www.w3.org/1999/xlink" viewBox="0,0,256,256" width="48px" height="48px" fill-rule="nonzero"><g fill-opacity="0" fill="#dddddd" fill-rule="nonzero" stroke="none" stroke-width="1" stroke-linecap="butt" stroke-linejoin="miter" stroke-miterlimit="10" stroke-dasharray="" stroke-dashoffset="0" font-family="none" font-weight="none" font-size="none" text-anchor="none" style="mix-blend-mode: normal"><path d="M0,256v-256h256v256z" id="bgRectangle"></path></g><g fill="none" fill-rule="nonzero" stroke="#ffffff" stroke-width="3" stroke-linecap="round" stroke-linejoin="round" stroke-miterlimit="10" stroke-dasharray="" stroke-dashoffset="0" font-family="none" font-weight="none" font-size="none" text-anchor="none" style="mix-blend-mode: normal"><g transform="scale(5.33333,5.33333)"><path d="M42.5,29.1v2.4c0,1.7 -1.3,3 -3,3h-5"></path><path d="M5.5,19.2v-1.7c0,-2.8 2.2,-5 5,-5h27c2.8,0 5,2.2 5,5v6.6"></path><path d="M13.5,34.5h-5c-1.7,0 -3,-1.3 -3,-3v-7.2"></path><path d="M13.5,8.5c0,-1.7 1.3,-3 3,-3h15c1.7,0 3,1.3 3,3"></path><path d="M21.7,26.5h9.8c1.7,0 3,1.3 3,3v9c0,1.7 -1.3,3 -3,3h-15c-1.7,0 -3,-1.3 -3,-3v-9c0,-1.7 1.3,-3 3,-3v0"></path><path d="M36.5,18.5h-1"></path></g></g></svg>