<svg xmlns="http://www.w3.org/2000/svg" xmlns:xlink="http://www.w3.org/1999/xlink" viewBox="0,0,256,256" width="25px" height="25px" fill-rule="nonzero"><g fill-opacity="0" fill="#dddddd" fill-rule="nonzero" stroke="none" stroke-width="1" stroke-linecap="butt" stroke-linejoin="miter" stroke-miterlimit="10" stroke-dasharray="" stroke-dashoffset="0" font-family="none" font-weight="none" font-size="none" text-anchor="none" style="mix-blend-mode: normal"><path d="M0,256v-256h256v256z" id="bgRectangle"></path></g><g fill="none" fill-rule="nonzero" stroke="#ffffff" stroke-width="3" stroke-linecap="round" stroke-linejoin="round" stroke-miterlimit="10" stroke-dasharray="" stroke-dashoffset="0" font-family="none" font-weight="none" font-size="none" text-anchor="none" style="mix-blend-mode: normal"><g transform="scale(5.33333,5.33333)"><path d="M12.6,15.2l4.2,-4c1.1,-1.1 2.6,-1.7 4.2,-1.7h16.6c2.8,0 5,2.2 5,5v19c0,2.8 -2.2,5 -5,5h-7.2"></path><path d="M22.5,38.5h-1.6c-1.6,0 -3.1,-0.6 -4.2,-1.7l-9.9,-9.6c-1.8,-1.8 -1.8,-4.7 0,-6.5l0.9,-0.9"></path><path d="M34.5,17.5l-13,13"></path><path d="M21.5,17.5l13,13"></path></g></g></svg>