<svg xmlns="http://www.w3.org/2000/svg" xmlns:xlink="http://www.w3.org/1999/xlink" viewBox="0,0,256,256" width="48px" height="48px" fill-rule="nonzero"><g fill-opacity="0" fill="#ffffff" fill-rule="nonzero" stroke="none" stroke-width="1" stroke-linecap="butt" stroke-linejoin="miter" stroke-miterlimit="10" stroke-dasharray="" stroke-dashoffset="0" font-family="none" font-weight="none" font-size="none" text-anchor="none" style="mix-blend-mode: normal"><path d="M0,256v-256h256v256z" id="bgRectangle"></path></g><g fill="none" fill-rule="nonzero" stroke="#ffffff" stroke-width="3" stroke-linecap="round" stroke-linejoin="round" stroke-miterlimit="10" stroke-dasharray="" stroke-dashoffset="0" font-family="none" font-weight="none" font-size="none" text-anchor="none" style="mix-blend-mode: normal"><g transform="scale(5.33333,5.33333)"><path d="M4.5,6.443h1.996c3.574,0 6.573,2.697 6.949,6.252l1.987,18.748c0.174,1.64 1.557,2.884 3.206,2.884h21.454"></path><path d="M28.569,29.448l-13.19,1.49"></path><path d="M29.804,13.381h12.663c0.657,0 1.148,0.616 1.01,1.27l-2.029,9.628c-0.479,2.272 -2.334,3.978 -4.605,4.235l-0.341,0.039"></path><path d="M14.026,13.381h6.387"></path><path d="M17.926,38.458c0,-1.711 1.387,-3.098 3.098,-3.098c1.711,0 3.098,1.387 3.098,3.098c0,1.711 -1.387,3.098 -3.098,3.098"></path><path d="M38.581,38.458c0,1.711 -1.387,3.098 -3.098,3.098c-1.711,0 -3.098,-1.387 -3.098,-3.098c0,-1.711 1.387,-3.098 3.098,-3.098"></path></g></g></svg>