<svg xmlns="http://www.w3.org/2000/svg" xmlns:xlink="http://www.w3.org/1999/xlink" viewBox="0,0,256,256" width="48px" height="48px" fill-rule="nonzero"><g fill-opacity="0" fill="#dddddd" fill-rule="nonzero" stroke="none" stroke-width="1" stroke-linecap="butt" stroke-linejoin="miter" stroke-miterlimit="10" stroke-dasharray="" stroke-dashoffset="0" font-family="none" font-weight="none" font-size="none" text-anchor="none" style="mix-blend-mode: normal"><path d="M0,256v-256h256v256z" id="bgRectangle"></path></g><g fill="none" fill-rule="none" stroke="none" stroke-width="1" stroke-linecap="butt" stroke-linejoin="miter" stroke-miterlimit="10" stroke-dasharray="" stroke-dashoffset="0" font-family="none" font-weight="none" font-size="none" text-anchor="none" style="mix-blend-mode: normal"><g transform="scale(5.33333,5.33333)"><path d="M3.995,25l-0.003,-2h40.007l-0.007,2c0,11.04 -8.959,20 -19.999,20c-11.04,0 -19.998,-8.96 -19.998,-20z" fill="#000000" fill-rule="nonzero"></path><path d="M23.995,4c10.488,0 19,8.52 19,19c0,10.493 -8.512,19 -19,19c-10.488,0 -19,-8.507 -19,-19c0,-10.48 8.512,-19 19,-19z" fill="#ffffff" fill-rule="evenodd"></path><path d="M3.995,23c0,-11.04 8.959,-20 20,-20c11.04,0 20,8.96 20,20c0,11.04 -8.96,20 -20,20c-11.041,0 -20,-8.96 -20,-20zM41.995,23c0,-9.933 -8.065,-18 -18,-18c-9.936,0 -18,8.067 -18,18c0,9.933 8.064,18 18,18c9.935,0 18,-8.067 18,-18z" fill="#000000" fill-rule="evenodd"></path><path d="M17.998,27v-8c0,-2.76 2.236,-5 5,-5h2c2.763,0 5,2.24 5,5v8c0,2.76 -2.237,5 -5,5h-2c-2.764,0 -5,-2.24 -5,-5zM27.998,27v-8c0,-1.653 -1.343,-3 -3,-3h-2c-1.659,0 -3,1.347 -3,3v8c0,1.653 1.341,3 3,3h2c1.657,0 3,-1.347 3,-3z" fill="#000000" fill-rule="evenodd"></path><path d="M21.998,31c0,-0.547 0.448,-1 1,-1h8c0.551,0 1,0.453 1,1c0,0.547 -0.449,1 -1,1h-8c-0.552,0 -1,-0.453 -1,-1z" fill="#000000" fill-rule="evenodd"></path></g></g></svg>