<svg xmlns="http://www.w3.org/2000/svg" xmlns:xlink="http://www.w3.org/1999/xlink" viewBox="0,0,256,256" width="48px" height="48px" fill-rule="nonzero"><g fill-opacity="0" fill="#dddddd" fill-rule="nonzero" stroke="none" stroke-width="1" stroke-linecap="butt" stroke-linejoin="miter" stroke-miterlimit="10" stroke-dasharray="" stroke-dashoffset="0" font-family="none" font-weight="none" font-size="none" text-anchor="none" style="mix-blend-mode: normal"><path d="M0,256v-256h256v256z" id="bgRectangle"></path></g><g fill="#ffffff" fill-rule="nonzero" stroke="none" stroke-width="1" stroke-linecap="butt" stroke-linejoin="miter" stroke-miterlimit="10" stroke-dasharray="" stroke-dashoffset="0" font-family="none" font-weight="none" font-size="none" text-anchor="none" style="mix-blend-mode: normal"><g transform="scale(5.33333,5.33333)"><path d="M10.5,6c-2.4675,0 -4.5,2.0325 -4.5,4.5v7c0,2.4675 2.0325,4.5 4.5,4.5h7c2.4675,0 4.5,-2.0325 4.5,-4.5v-7c0,-2.4675 -2.0325,-4.5 -4.5,-4.5zM30.5,6c-2.4675,0 -4.5,2.0325 -4.5,4.5v7c0,2.4675 2.0325,4.5 4.5,4.5h7c2.4675,0 4.5,-2.0325 4.5,-4.5v-7c0,-2.4675 -2.0325,-4.5 -4.5,-4.5zM10.5,9h7c0.8465,0 1.5,0.6535 1.5,1.5v7c0,0.8465 -0.6535,1.5 -1.5,1.5h-7c-0.8465,0 -1.5,-0.6535 -1.5,-1.5v-7c0,-0.8465 0.6535,-1.5 1.5,-1.5zM30.5,9h7c0.8465,0 1.5,0.6535 1.5,1.5v7c0,0.8465 -0.6535,1.5 -1.5,1.5h-7c-0.8465,0 -1.5,-0.6535 -1.5,-1.5v-7c0,-0.8465 0.6535,-1.5 1.5,-1.5zM12,12v4h4v-4zM32,12v4h4v-4zM10.5,26c-2.4675,0 -4.5,2.0325 -4.5,4.5v7c0,2.4675 2.0325,4.5 4.5,4.5h7c2.4675,0 4.5,-2.0325 4.5,-4.5v-7c0,-2.4675 -2.0325,-4.5 -4.5,-4.5zM26,26v5.5h5.5v-5.5zM31.5,31.5v5h5v-5zM36.5,31.5h5.5v-5.5h-5.5zM36.5,36.5v5.5h5.5v-5.5zM31.5,36.5h-5.5v5.5h5.5zM10.5,29h7c0.8465,0 1.5,0.6535 1.5,1.5v7c0,0.8465 -0.6535,1.5 -1.5,1.5h-7c-0.8465,0 -1.5,-0.6535 -1.5,-1.5v-7c0,-0.8465 0.6535,-1.5 1.5,-1.5zM12,32v4h4v-4z"></path></g></g></svg>