<svg xmlns="http://www.w3.org/2000/svg" xmlns:xlink="http://www.w3.org/1999/xlink" viewBox="0,0,256,256" width="50px" height="50px" fill-rule="nonzero"><g fill-opacity="0" fill="#dddddd" fill-rule="nonzero" stroke="none" stroke-width="1" stroke-linecap="butt" stroke-linejoin="miter" stroke-miterlimit="10" stroke-dasharray="" stroke-dashoffset="0" font-family="none" font-weight="none" font-size="none" text-anchor="none" style="mix-blend-mode: normal"><path d="M0,256v-256h256v256z" id="bgRectangle"></path></g><g fill="#ffffff" fill-rule="nonzero" stroke="none" stroke-width="1" stroke-linecap="butt" stroke-linejoin="miter" stroke-miterlimit="10" stroke-dasharray="" stroke-dashoffset="0" font-family="none" font-weight="none" font-size="none" text-anchor="none" style="mix-blend-mode: normal"><g transform="scale(5.12,5.12)"><path d="M35.18945,0.07031c-6.578,0 -11.92969,4.68064 -11.92969,10.43164c0,3.153 1.64845,6.14619 4.43945,8.11719c-0.108,0.575 -0.41253,1.63166 -1.26953,2.84766l-1.02734,1.45703l1.7832,0.00781h0.0293c2.651,0 4.51392,-1.49567 5.29492,-2.26367c0.875,0.175 1.77369,0.26367 2.67969,0.26367c6.578,0 11.92969,-4.67869 11.92969,-10.42969c0,-5.751 -5.35069,-10.43164 -11.92969,-10.43164zM35.71875,5.27344c2.09,0 3.48438,1.20362 3.48438,2.89063c0.001,1.166 -0.57823,1.98356 -1.61523,2.60156c-1,0.587 -1.28125,0.97647 -1.28125,1.73047v0.4375h-1.77148l-0.00781,-0.52149c-0.068,-1.145 0.37473,-1.82926 1.42773,-2.44727c0.946,-0.571 1.26758,-0.97842 1.26758,-1.73242c0,-0.793 -0.64252,-1.36523 -1.60352,-1.36523c-0.984,0 -1.61769,0.59539 -1.67969,1.52539h-1.79297c0.062,-1.808 1.30627,-3.11914 3.57227,-3.11914zM15.5,12.5c-3.309,0 -6,2.691 -6,6c0,3.309 2.691,6 6,6c3.309,0 6,-2.691 6,-6c0,-3.309 -2.691,-6 -6,-6zM35.50586,14.13867c0.778,0 1.26563,0.4797 1.26563,1.2207c-0.001,0.732 -0.48763,1.21289 -1.26562,1.21289c-0.763,0 -1.26758,-0.47989 -1.26758,-1.21289c0,-0.74 0.50458,-1.2207 1.26758,-1.2207zM11.12695,27.5c-3.102,0 -5.625,2.52395 -5.625,5.62695v13.87305c0,0.276 0.224,0.5 0.5,0.5h3.49805v-10.5c0,-0.276 0.224,-0.5 0.5,-0.5c0.276,0 0.5,0.224 0.5,0.5l-0.00195,10.5h12.5c0.276,0 0.5,-0.224 0.5,-0.5l0.00195,-8.79297l2.83789,2.83594c0.918,0.917 2.40598,0.9745 3.45898,0.0625l4.42188,-5.5332c1.017,-1.394 1.88022,-1.80477 2.57422,-2.13477c0.843,-0.399 1.57008,-0.74448 1.70508,-2.39648c0.012,-0.139 -0.03686,-0.27786 -0.13086,-0.38086c-0.095,-0.102 -0.22719,-0.16016 -0.36719,-0.16016h-4.55859c-1.068,0 -2.06537,0.4785 -2.73437,1.3125l-2.68945,3.36523l-4.74414,-6.48437c-0.664,-0.759 -1.62381,-1.19336 -2.63281,-1.19336z"></path></g></g></svg>