<svg xmlns="http://www.w3.org/2000/svg" xmlns:xlink="http://www.w3.org/1999/xlink" viewBox="0,0,256,256" width="48px" height="48px" fill-rule="nonzero"><g fill-opacity="0" fill="#dddddd" fill-rule="nonzero" stroke="none" stroke-width="1" stroke-linecap="butt" stroke-linejoin="miter" stroke-miterlimit="10" stroke-dasharray="" stroke-dashoffset="0" font-family="none" font-weight="none" font-size="none" text-anchor="none" style="mix-blend-mode: normal"><path d="M0,256v-256h256v256z" id="bgRectangle"></path></g><g fill="#ffffff" fill-rule="nonzero" stroke="none" stroke-width="1" stroke-linecap="butt" stroke-linejoin="miter" stroke-miterlimit="10" stroke-dasharray="" stroke-dashoffset="0" font-family="none" font-weight="none" font-size="none" text-anchor="none" style="mix-blend-mode: normal"><g transform="scale(5.33333,5.33333)"><path d="M24,3.99805c-11.02771,0 -20,8.97229 -20,20c0,3.27532 0.86271,6.33681 2.26172,9.06641l-2.16797,7.76172c-0.50495,1.8034 1.27818,3.58644 3.08203,3.08203l8.24023,-2.30078c0.52942,-0.13237 0.94519,-0.5418 1.08569,-1.06912c0.1405,-0.52732 -0.01644,-1.08934 -0.40981,-1.46758c-0.39337,-0.37824 -0.96111,-0.51303 -1.48252,-0.35197l-7.38672,2.06055l2.0625,-7.38281c0.10655,-0.38122 0.05811,-0.7891 -0.13477,-1.13477c-1.36674,-2.4502 -2.15039,-5.25915 -2.15039,-8.26367c0,-9.40629 7.59371,-17 17,-17c0.45446,0 0.90248,0.01786 1.3457,0.05273c0.54113,0.05489 1.06958,-0.18741 1.38111,-0.63325c0.31153,-0.44585 0.35733,-1.02539 0.11971,-1.51464c-0.23763,-0.48925 -0.72145,-0.81155 -1.26449,-0.84234c-0.52278,-0.04113 -1.05049,-0.0625 -1.58203,-0.0625zM31.06055,5.39063c-0.72165,-0.00446 -1.3442,0.50554 -1.48186,1.21395c-0.13767,0.70841 0.24857,1.41444 0.91936,1.68058c6.16153,2.55039 10.50195,8.61184 10.50195,15.71289c0,9.40629 -7.59371,17 -17,17c-0.22892,0 -0.45695,-0.0045 -0.68359,-0.01367c-0.53561,-0.02173 -1.04211,0.24397 -1.32868,0.69699c-0.28657,0.45302 -0.30965,1.02452 -0.06055,1.49917c0.2491,0.47466 0.73252,0.78034 1.26814,0.80188c0.26736,0.01082 0.53561,0.01563 0.80469,0.01563c11.02771,0 20,-8.97229 20,-20c0,-8.32496 -5.099,-15.48076 -12.35547,-18.48438c-0.18446,-0.07971 -0.38305,-0.12156 -0.58398,-0.12305zM15.5,18.99805c-0.54095,-0.00765 -1.04412,0.27656 -1.31683,0.74381c-0.27271,0.46725 -0.27271,1.04514 0,1.51238c0.27271,0.46725 0.77588,0.75146 1.31683,0.74381h17c0.54095,0.00765 1.04412,-0.27656 1.31683,-0.74381c0.27271,-0.46725 0.27271,-1.04514 0,-1.51238c-0.27271,-0.46725 -0.77588,-0.75146 -1.31683,-0.74381zM15.5,25.99805c-0.54095,-0.00765 -1.04412,0.27656 -1.31683,0.74381c-0.27271,0.46725 -0.27271,1.04514 0,1.51238c0.27271,0.46725 0.77588,0.75146 1.31683,0.74381h13c0.54095,0.00765 1.04412,-0.27656 1.31683,-0.74381c0.27271,-0.46725 0.27271,-1.04514 0,-1.51238c-0.27271,-0.46725 -0.77588,-0.75146 -1.31683,-0.74381z"></path></g></g></svg>