<svg xmlns="http://www.w3.org/2000/svg" xmlns:xlink="http://www.w3.org/1999/xlink" viewBox="0,0,256,256" width="25px" height="25px" fill-rule="nonzero"><defs><clipPath id="clip-1"><path d="M0,256v-256h256v256zM193.46877,197.41761l10.40181,-9.6313c1.73363,-1.54101 2.69676,-3.85252 2.69676,-6.35666c0,-2.50414 -0.96313,-4.81565 -2.69676,-6.35666l-10.59443,-9.6313c-1.54101,-1.34838 -3.46727,-2.11889 -5.39353,-2.11889c-1.15576,0 -2.11889,0.19263 -3.27464,0.57788c-2.11889,0.96313 -3.65989,2.69676 -4.4304,4.81565h-15.41008c-4.81565,0 -8.66817,3.85252 -8.66817,8.66817v7.70504c0,4.81565 3.85252,8.66817 8.66817,8.66817h15.41008c0.7705,2.11889 2.31151,3.85252 4.4304,4.81565c1.15576,0.57788 2.11889,0.7705 3.27464,0.7705c1.92626,0 3.85252,-0.57788 5.58616,-1.92626z" id="overlayBgMask" fill="none"></path></clipPath></defs><g fill-opacity="0" fill="#dddddd" fill-rule="nonzero" stroke="none" stroke-width="1" stroke-linecap="butt" stroke-linejoin="miter" stroke-miterlimit="10" stroke-dasharray="" stroke-dashoffset="0" font-family="none" font-weight="none" font-size="none" text-anchor="none" style="mix-blend-mode: normal"><path d="M0,256v-256h256v256z" id="bgRectangle"></path></g><g clip-path="url(#clip-1)" fill="none" fill-rule="nonzero" stroke="none" stroke-width="1" stroke-linecap="butt" stroke-linejoin="miter" stroke-miterlimit="10" stroke-dasharray="" stroke-dashoffset="0" font-family="none" font-weight="none" font-size="none" text-anchor="none" style="mix-blend-mode: normal"><g transform="scale(5.33333,5.33333)" fill="#ffffff"><path d="M10.5,6c-3.01818,0 -5.5,2.48182 -5.5,5.5v18.80078c-0.00765,0.54095 0.27656,1.04412 0.74381,1.31683c0.46725,0.27271 1.04514,0.27271 1.51238,0c0.46725,-0.27271 0.75146,-0.77588 0.74381,-1.31683v-18.80078c0,-1.38182 1.11818,-2.5 2.5,-2.5h27c1.38182,0 2.5,1.11818 2.5,2.5v4.5h-28.09961c-0.54095,-0.00765 -1.04412,0.27656 -1.31683,0.74381c-0.27271,0.46725 -0.27271,1.04514 0,1.51238c0.27271,0.46725 0.77588,0.75146 1.31683,0.74381h28.09961v4.12891c-0.00765,0.54095 0.27656,1.04412 0.74381,1.31683c0.46725,0.27271 1.04514,0.27271 1.51238,0c0.46725,-0.27271 0.75146,-0.77588 0.74381,-1.31683v-5.38281c0.02645,-0.16103 0.02645,-0.3253 0,-0.48633v-5.75977c0,-3.01818 -2.48182,-5.5 -5.5,-5.5zM31.5,11c-0.82843,0 -1.5,0.67157 -1.5,1.5c0,0.82843 0.67157,1.5 1.5,1.5c0.82843,0 1.5,-0.67157 1.5,-1.5c0,-0.82843 -0.67157,-1.5 -1.5,-1.5zM36.5,11c-0.82843,0 -1.5,0.67157 -1.5,1.5c0,0.82843 0.67157,1.5 1.5,1.5c0.82843,0 1.5,-0.67157 1.5,-1.5c0,-0.82843 -0.67157,-1.5 -1.5,-1.5zM33.5,25c-0.54095,-0.00765 -1.04412,0.27656 -1.31683,0.74381c-0.27271,0.46725 -0.27271,1.04514 0,1.51238c0.27271,0.46725 0.77588,0.75146 1.31683,0.74381c3.10513,0 5.5,2.39487 5.5,5.5c0,3.10513 -2.39487,5.5 -5.5,5.5c-3.10513,0 -5.5,-2.39487 -5.5,-5.5c0,-0.55714 0.0859,-1.11513 0.22266,-1.52539c0.18055,-0.51127 0.07115,-1.08018 -0.28613,-1.48803c-0.35728,-0.40785 -0.90685,-0.59117 -1.43743,-0.47947c-0.53058,0.11169 -0.9596,0.50101 -1.12214,1.01828c-0.26325,0.78974 -0.37695,1.63175 -0.37695,2.47461c0,4.69487 3.80513,8.5 8.5,8.5c1.79697,0 3.36938,-0.6853 4.74219,-1.63672l6.19727,6.19727c0.37623,0.39185 0.9349,0.54969 1.46055,0.41265c0.52565,-0.13704 0.93616,-0.54754 1.07319,-1.07319c0.13704,-0.52565 -0.0208,-1.08432 -0.41265,-1.46055l-6.19727,-6.19727c0.95142,-1.3728 1.63672,-2.94522 1.63672,-4.74219c0,-4.69487 -3.80513,-8.5 -8.5,-8.5zM6.47656,34.97852c-0.82766,0.01293 -1.48844,0.69381 -1.47656,1.52148c0,3.01818 2.48182,5.5 5.5,5.5h14.20117c0.54095,0.00765 1.04412,-0.27656 1.31683,-0.74381c0.27271,-0.46725 0.27271,-1.04514 0,-1.51238c-0.27271,-0.46725 -0.77588,-0.75146 -1.31683,-0.74381h-14.20117c-1.38182,0 -2.5,-1.11818 -2.5,-2.5c0.00582,-0.40562 -0.15288,-0.7963 -0.43991,-1.08296c-0.28703,-0.28666 -0.67792,-0.44486 -1.08353,-0.43852z"></path></g></g><g fill="#ffffff" fill-rule="nonzero" stroke="none" stroke-width="1" stroke-linecap="butt" stroke-linejoin="miter" stroke-miterlimit="10" stroke-dasharray="" stroke-dashoffset="0" font-family="none" font-weight="none" font-size="none" text-anchor="none" style="mix-blend-mode: normal"><g transform="translate(160,166.98269) scale(1.92626,1.92626)" id="overlay"><path d="M0,9.4v-4c0,-1.4 1.1,-2.5 2.5,-2.5h9.8v-0.8c0,-0.8 0.5,-1.6 1.3,-1.9c0.8,-0.3 1.7,-0.2 2.3,0.4l5.5,5c1,0.9 1,2.8 0,3.7l-5.5,5v0c-0.6,0.6 -1.5,0.7 -2.3,0.4c-0.8,-0.3 -1.3,-1.1 -1.3,-1.9v-0.7h-9.8c-1.4,-0.2 -2.5,-1.4 -2.5,-2.7zM3,5.9v3h10.8c0.8,0 1.5,0.7 1.5,1.5v0.3l3.6,-3.3l-3.6,-3.3v0.3c0,0.8 -0.7,1.5 -1.5,1.5z"></path></g></g></svg>