<svg xmlns="http://www.w3.org/2000/svg" xmlns:xlink="http://www.w3.org/1999/xlink" viewBox="0,0,256,256" width="48px" height="48px" fill-rule="nonzero"><g fill-opacity="0" fill="#dddddd" fill-rule="nonzero" stroke="none" stroke-width="1" stroke-linecap="butt" stroke-linejoin="miter" stroke-miterlimit="10" stroke-dasharray="" stroke-dashoffset="0" font-family="none" font-weight="none" font-size="none" text-anchor="none" style="mix-blend-mode: normal"><path d="M0,256v-256h256v256z" id="bgRectangle"></path></g><g fill="#ffffff" fill-rule="nonzero" stroke="none" stroke-width="1" stroke-linecap="butt" stroke-linejoin="miter" stroke-miterlimit="10" stroke-dasharray="" stroke-dashoffset="0" font-family="none" font-weight="none" font-size="none" text-anchor="none" style="mix-blend-mode: normal"><g transform="scale(5.33333,5.33333)"><path d="M20,3c-9.37738,0 -17,7.62262 -17,17c0,9.37738 7.62262,17 17,17c2.06616,0 4.05012,-0.36978 5.88477,-1.04687c0.51831,-0.19093 0.7837,-0.76587 0.59277,-1.28418c-0.19093,-0.51831 -0.76587,-0.7837 -1.28418,-0.59277c-1.61735,0.5969 -3.36552,0.92383 -5.19336,0.92383c-8.29662,0 -15,-6.70338 -15,-15c0,-8.29662 6.70338,-15 15,-15c8.29662,0 15,6.70338 15,15c0,5.10728 -2.54517,9.60561 -6.43555,12.31641c-0.24265,0.16935 -0.39786,0.43746 -0.42386,0.73222c-0.02601,0.29476 0.07985,0.5859 0.2891,0.79513l10.0957,10.0957c1.35829,1.35829 3.59012,1.35961 4.94922,0.00195c0,-0.00065 0,-0.0013 0,-0.00195l0.46484,-0.46289c1.35829,-1.35829 1.35771,-3.59208 0,-4.95117l-7.23242,-7.23242c-0.25082,-0.26124 -0.62327,-0.36648 -0.97371,-0.27512c-0.35044,0.09136 -0.62411,0.36503 -0.71547,0.71547c-0.09136,0.35044 0.01388,0.72289 0.27512,0.97371l7.23242,7.23242c0.5943,0.5949 0.59371,1.52934 0,2.12305l-0.46484,0.46289c-0.5949,0.5943 -1.52739,0.59371 -2.12109,0l-9.35156,-9.35156c3.86982,-3.11669 6.41211,-7.82509 6.41211,-13.17383c0,-9.37738 -7.62262,-17 -17,-17z"></path></g></g></svg>