<svg xmlns="http://www.w3.org/2000/svg" xmlns:xlink="http://www.w3.org/1999/xlink" viewBox="0,0,256,256" width="60px" height="60px" fill-rule="nonzero"><g fill-opacity="0" fill="#dddddd" fill-rule="nonzero" stroke="none" stroke-width="1" stroke-linecap="butt" stroke-linejoin="miter" stroke-miterlimit="10" stroke-dasharray="" stroke-dashoffset="0" font-family="none" font-weight="none" font-size="none" text-anchor="none" style="mix-blend-mode: normal"><path d="M0,256v-256h256v256z" id="bgRectangle"></path></g><g fill="#ffffff" fill-rule="nonzero" stroke="none" stroke-width="1" stroke-linecap="butt" stroke-linejoin="miter" stroke-miterlimit="10" stroke-dasharray="" stroke-dashoffset="0" font-family="none" font-weight="none" font-size="none" text-anchor="none" style="mix-blend-mode: normal"><g transform="scale(4.26667,4.26667)"><path d="M1.0293,0c-0.552,0 -1,0.448 -1,1v50v4c0,0.552 0.448,1 1,1h1v2h-1c-0.552,0 -1,0.448 -1,1c0,0.552 0.448,1 1,1h4c0.552,0 1,-0.448 1,-1c0,-0.552 -0.448,-1 -1,-1h-1v-2h1c0.552,0 1,-0.448 1,-1v-4v-2h48v2v4c0,0.552 0.448,1 1,1h1v2h-1c-0.552,0 -1,0.448 -1,1c0,0.552 0.448,1 1,1h4c0.552,0 1,-0.448 1,-1c0,-0.552 -0.448,-1 -1,-1h-1v-2h1c0.552,0 1,-0.448 1,-1v-4v-50c0,-0.552 -0.448,-1 -1,-1h-4c-0.552,0 -1,0.448 -1,1v18h-2v-13c0,-0.552 -0.448,-1 -1,-1h-4v5c0,0.552 -0.448,1 -1,1h-6c-0.552,0 -1,-0.448 -1,-1v-5h-4c-0.552,0 -1,0.448 -1,1v7h-2v-1c0,-0.552 -0.448,-1 -1,-1h-5v-7c0,-0.552 -0.448,-1 -1,-1h-4v5c0,0.552 -0.448,1 -1,1h-6c-0.552,0 -1,-0.448 -1,-1v-5h-4c-0.552,0 -1,0.448 -1,1v15h-2v-18c0,-0.552 -0.448,-1 -1,-1zM15.0293,3v4h4v-4zM41.0293,5v4h4v-4zM20.0293,13h5h5v1v5h-10zM32.0293,15h3h11v4h-14zM6.0293,21h3h10h12h16h4h3v2h-48zM6.0293,25h48v18h-2v-15c0,-0.552 -0.448,-1 -1,-1h-9c-0.552,0 -1,0.448 -1,1v1h-5c-0.552,0 -1,0.448 -1,1v5h-1c-0.552,0 -1,0.448 -1,1v7h-2v-15c0,-0.552 -0.448,-1 -1,-1h-6v5c0,0.552 -0.448,1 -1,1c-0.552,0 -1,-0.448 -1,-1v-5h-6c-0.552,0 -1,0.448 -1,1v5h-6c-0.552,0 -1,0.448 -1,1v9h-2zM43.0293,29h7v14h-2v-7c0,-0.552 -0.448,-1 -1,-1h-3h-1v-5zM37.0293,31h4v4h-2h-2zM10.0293,35h6h2v8h-8zM37.0293,37h2v2h3v-2h2v3c0,0.552 -0.448,1 -1,1h-5c-0.552,0 -1,-0.448 -1,-1zM6.0293,45h3h10h11h4h13h4h3v2h-48z"></path></g></g></svg>