<svg xmlns="http://www.w3.org/2000/svg" xmlns:xlink="http://www.w3.org/1999/xlink" viewBox="0,0,256,256" width="48px" height="48px" fill-rule="nonzero"><g fill-opacity="0" fill="#dddddd" fill-rule="nonzero" stroke="none" stroke-width="1" stroke-linecap="butt" stroke-linejoin="miter" stroke-miterlimit="10" stroke-dasharray="" stroke-dashoffset="0" font-family="none" font-weight="none" font-size="none" text-anchor="none" style="mix-blend-mode: normal"><path d="M0,256v-256h256v256z" id="bgRectangle"></path></g><g fill="#ffffff" fill-rule="nonzero" stroke="none" stroke-width="1" stroke-linecap="butt" stroke-linejoin="miter" stroke-miterlimit="10" stroke-dasharray="" stroke-dashoffset="0" font-family="none" font-weight="none" font-size="none" text-anchor="none" style="mix-blend-mode: normal"><g transform="scale(5.33333,5.33333)"><path d="M22.77148,8c-12.52984,0 -17.66406,12.94336 -17.66406,12.94336c-0.21437,0.50068 -0.14055,1.07821 0.19288,1.50886c0.33343,0.43065 0.87407,0.64675 1.41247,0.56459c0.53841,-0.08216 0.98999,-0.44968 1.1798,-0.96017c0,0 4.43875,-11.05664 14.87891,-11.05664c7.51603,0 12.42237,5.76335 14.58984,9h-4.86133c-0.54095,-0.00765 -1.04412,0.27656 -1.31683,0.74381c-0.27271,0.46725 -0.27271,1.04514 0,1.51238c0.27271,0.46725 0.77588,0.75146 1.31683,0.74381h7.46289h1.53711c0.82839,-0.00008 1.49992,-0.67161 1.5,-1.5v-9c0.00582,-0.40562 -0.15288,-0.7963 -0.43991,-1.08296c-0.28703,-0.28666 -0.67792,-0.44486 -1.08353,-0.43852c-0.82766,0.01293 -1.48843,0.69381 -1.47656,1.52148v6.02344c-2.41184,-3.70037 -8.08926,-10.52344 -17.22852,-10.52344zM7.5,28c-1.91495,0 -3.5,1.58505 -3.5,3.5v5c0,1.91495 1.58505,3.5 3.5,3.5h5c1.91496,0 3.5,-1.58505 3.5,-3.5v-5c0,-1.91495 -1.58504,-3.5 -3.5,-3.5c-0.54095,-0.00765 -1.04412,0.27656 -1.31683,0.74381c-0.27271,0.46725 -0.27271,1.04514 0,1.51238c0.27271,0.46725 0.77588,0.75146 1.31683,0.74381c0.29505,0 0.5,0.20496 0.5,0.5v5c0,0.29505 -0.20495,0.5 -0.5,0.5h-5c-0.29505,0 -0.5,-0.20495 -0.5,-0.5v-5c0,-0.29504 0.20495,-0.5 0.5,-0.5c0.54095,0.00765 1.04412,-0.27656 1.31683,-0.74381c0.27271,-0.46725 0.27271,-1.04514 0,-1.51238c-0.27271,-0.46725 -0.77588,-0.75146 -1.31683,-0.74381zM21.5,28c-1.91495,0 -3.5,1.58505 -3.5,3.5v5c0,1.91495 1.58505,3.5 3.5,3.5c0.54095,0.00765 1.04412,-0.27656 1.31683,-0.74381c0.27271,-0.46725 0.27271,-1.04514 0,-1.51238c-0.27271,-0.46725 -0.77588,-0.75146 -1.31683,-0.74381c-0.29504,0 -0.5,-0.20495 -0.5,-0.5v-5c0,-0.29504 0.20496,-0.5 0.5,-0.5h5c0.29504,0 0.5,0.20496 0.5,0.5v5c0,0.29505 -0.20496,0.5 -0.5,0.5c-0.54095,-0.00765 -1.04412,0.27656 -1.31683,0.74381c-0.27271,0.46725 -0.27271,1.04514 0,1.51238c0.27271,0.46725 0.77588,0.75146 1.31683,0.74381c1.91495,0 3.5,-1.58505 3.5,-3.5v-5c0,-1.91495 -1.58505,-3.5 -3.5,-3.5zM35.5,28c-1.91495,0 -3.5,1.58505 -3.5,3.5v5c0,1.91495 1.58505,3.5 3.5,3.5h5c1.91495,0 3.5,-1.58505 3.5,-3.5v-5c0,-1.91495 -1.58505,-3.5 -3.5,-3.5c-0.54095,-0.00765 -1.04412,0.27656 -1.31683,0.74381c-0.27271,0.46725 -0.27271,1.04514 0,1.51238c0.27271,0.46725 0.77588,0.75146 1.31683,0.74381c0.29505,0 0.5,0.20496 0.5,0.5v5c0,0.29505 -0.20495,0.5 -0.5,0.5h-5c-0.29505,0 -0.5,-0.20495 -0.5,-0.5v-5c0,-0.29504 0.20495,-0.5 0.5,-0.5c0.54095,0.00765 1.04412,-0.27656 1.31683,-0.74381c0.27271,-0.46725 0.27271,-1.04514 0,-1.51238c-0.27271,-0.46725 -0.77588,-0.75146 -1.31683,-0.74381z"></path></g></g></svg>