<svg xmlns="http://www.w3.org/2000/svg" xmlns:xlink="http://www.w3.org/1999/xlink" viewBox="0,0,256,256" width="32px" height="32px" fill-rule="nonzero"><g fill-opacity="0" fill="#dddddd" fill-rule="nonzero" stroke="none" stroke-width="1" stroke-linecap="butt" stroke-linejoin="miter" stroke-miterlimit="10" stroke-dasharray="" stroke-dashoffset="0" font-family="none" font-weight="none" font-size="none" text-anchor="none" style="mix-blend-mode: normal"><path d="M0,256v-256h256v256z" id="bgRectangle"></path></g><g fill="#ffffff" fill-rule="nonzero" stroke="none" stroke-width="1" stroke-linecap="butt" stroke-linejoin="miter" stroke-miterlimit="10" stroke-dasharray="" stroke-dashoffset="0" font-family="none" font-weight="none" font-size="none" text-anchor="none" style="mix-blend-mode: normal"><g transform="scale(8,8)"><path d="M5,5v1v5h6v-6zM13,5v1v5h6v-6zM21,5v1v5h6v-6zM7,7h2v2h-2zM15,7h2v2h-2zM23,7h2v2h-2zM5,13v1v5h6v-6zM13,13v1v5h6v-6zM21,13v1v5h6v-6zM7,15h2v2h-2zM15,15h2v2h-2zM23,15h2v2h-2zM5,21v1v5h6v-6zM13,21v1v5h6v-6zM21,21v1v5h6v-6zM7,23h2v2h-2zM15,23h2v2h-2zM23,23h2v2h-2z"></path></g></g></svg>