<svg xmlns="http://www.w3.org/2000/svg" xmlns:xlink="http://www.w3.org/1999/xlink" viewBox="0,0,256,256" width="64px" height="64px" fill-rule="nonzero"><g fill-opacity="0" fill="#161616" fill-rule="nonzero" stroke="none" stroke-width="1" stroke-linecap="butt" stroke-linejoin="miter" stroke-miterlimit="10" stroke-dasharray="" stroke-dashoffset="0" font-family="none" font-weight="none" font-size="none" text-anchor="none" style="mix-blend-mode: normal"><path d="M0,256v-256h256v256z" id="bgRectangle"></path></g><g fill="#161616" fill-rule="nonzero" stroke="none" stroke-width="1" stroke-linecap="butt" stroke-linejoin="miter" stroke-miterlimit="10" stroke-dasharray="" stroke-dashoffset="0" font-family="none" font-weight="none" font-size="none" text-anchor="none" style="mix-blend-mode: normal"><path d="M64,256c-35.34622,0 -64,-28.65378 -64,-64v-128c0,-35.34622 28.65378,-64 64,-64h128c35.34622,0 64,28.65378 64,64v128c0,35.34622 -28.65378,64 -64,64z" id="shape"></path></g><g fill="none" fill-rule="nonzero" stroke="none" stroke-width="1" stroke-linecap="butt" stroke-linejoin="miter" stroke-miterlimit="10" stroke-dasharray="" stroke-dashoffset="0" font-family="none" font-weight="none" font-size="none" text-anchor="none" style="mix-blend-mode: normal"><g transform="scale(2,2)"><path d="M121.8,52.9l-9.9,9.9l0.1,-24.8c0,-1.1 -0.6,-2.1 -1.5,-2.6l-45,-26c-0.9,-0.5 -2.1,-0.5 -3,0l-45,26c-1.4,0.8 -1.9,2.7 -1.1,4.1c0.8,1.4 2.7,1.9 4.1,1.1l43.5,-25.1l42,24.3v23l-9.9,-9.9c-1.2,-1.2 -3.1,-1.2 -4.2,0c-1.2,1.2 -1.2,3.1 0,4.2l15,15c0.6,0.6 1.4,0.9 2.1,0.9c0.2,0 0.4,0 0.6,-0.1c0.1,0 0.2,-0.1 0.3,-0.1c0.1,0 0.2,-0.1 0.3,-0.1c0.1,0 0.2,-0.1 0.3,-0.2c0.1,0 0.1,-0.1 0.2,-0.1c0.2,-0.1 0.3,-0.2 0.5,-0.4v0l15,-15c1.2,-1.2 1.2,-3.1 0,-4.2c-1.3,-1.1 -3.2,-1.1 -4.4,0.1z" fill="#fcc419"></path><path d="M107.5,87.4l-43.5,25.1l-42,-24.2v-23l9.9,9.9c0.6,0.6 1.4,0.9 2.1,0.9c0.7,0 1.5,-0.3 2.1,-0.9c1.2,-1.2 1.2,-3.1 0,-4.2l-15,-15c-1.2,-1.2 -3.1,-1.2 -4.2,0l-15,15c-1.2,1.2 -1.2,3.1 0,4.2c1.2,1.2 3.1,1.2 4.2,0l9.9,-9.9v24.7c0,1.1 0.6,2.1 1.5,2.6l45,26c0.5,0.3 1,0.4 1.5,0.4c0.5,0 1,-0.1 1.5,-0.4l45,-26c1.4,-0.8 1.9,-2.7 1.1,-4.1c-0.8,-1.4 -2.6,-1.9 -4.1,-1.1z" fill="#ffffff"></path></g></g><g fill="#ffffff" fill-rule="nonzero" stroke="none" stroke-width="1" stroke-linecap="butt" stroke-linejoin="miter" stroke-miterlimit="10" stroke-dasharray="" stroke-dashoffset="0" font-family="none" font-weight="none" font-size="none" text-anchor="none" style="mix-blend-mode: normal"><g><path d="M165.22,87.72v19.85h-10.92l-2.71,-15.23c-2.19333,-1.85333 -5.12,-3.39333 -8.78,-4.62c-3.66667,-1.22 -7.91667,-1.83 -12.75,-1.83v0c-7.66667,0 -13.55,1.62333 -17.65,4.87c-4.1,3.25333 -6.15,7.49 -6.15,12.71v0c0,4.64 2.08667,8.51 6.26,11.61c4.17333,3.1 10.92333,5.82333 20.25,8.17v0c11.23333,2.78 19.76667,6.88 25.6,12.3c5.83333,5.42 8.75,12.13333 8.75,20.14v0c0,8.59333 -3.50333,15.50333 -10.51,20.73c-7.00667,5.22667 -16.17333,7.84 -27.5,7.84v0c-8.20667,0 -15.49333,-1.34333 -21.86,-4.03c-6.37333,-2.68667 -11.56333,-6.20333 -15.57,-10.55v0v-19.85h10.84l2.79,15.31c2.78,2.29333 6.1,4.17333 9.96,5.64c3.85333,1.46667 8.46667,2.2 13.84,2.2v0c7.27333,0 13.02333,-1.54 17.25,-4.62c4.22,-3.07333 6.33,-7.24667 6.33,-12.52v0c0,-4.88 -1.83,-8.97 -5.49,-12.27c-3.66,-3.29333 -10.13,-6.06333 -19.41,-8.31v0c-11.28,-2.68667 -20.09333,-6.64333 -26.44,-11.87c-6.34667,-5.22 -9.52,-11.78667 -9.52,-19.7v0c0,-8.34667 3.54,-15.29333 10.62,-20.84c7.08,-5.54 16.28333,-8.31 27.61,-8.31v0c7.47333,0 14.27333,1.28333 20.4,3.85c6.12667,2.56 11.04667,5.67 14.76,9.33z"></path></g></g></svg>