<svg xmlns="http://www.w3.org/2000/svg" xmlns:xlink="http://www.w3.org/1999/xlink" viewBox="0,0,256,256" width="128px" height="128px" fill-rule="nonzero"><g fill-opacity="0" fill="#dddddd" fill-rule="nonzero" stroke="none" stroke-width="1" stroke-linecap="butt" stroke-linejoin="miter" stroke-miterlimit="10" stroke-dasharray="" stroke-dashoffset="0" font-family="none" font-weight="none" font-size="none" text-anchor="none" style="mix-blend-mode: normal"><path d="M0,256v-256h256v256z" id="bgRectangle"></path></g><g fill="#ffffff" fill-rule="nonzero" stroke="none" stroke-width="1" stroke-linecap="butt" stroke-linejoin="miter" stroke-miterlimit="10" stroke-dasharray="" stroke-dashoffset="0" font-family="none" font-weight="none" font-size="none" text-anchor="none" style="mix-blend-mode: normal"><g transform="scale(2,2)"><path d="M121.8,52.9l-9.9,9.9l0.1,-24.8c0,-1.1 -0.6,-2.1 -1.5,-2.6l-45,-26c-0.9,-0.5 -2.1,-0.5 -3,0l-45,26c-1.4,0.8 -1.9,2.7 -1.1,4.1c0.8,1.4 2.7,1.9 4.1,1.1l43.5,-25.1l42,24.3v23l-9.9,-9.9c-1.2,-1.2 -3.1,-1.2 -4.2,0c-1.2,1.2 -1.2,3.1 0,4.2l15,15c0.6,0.6 1.4,0.9 2.1,0.9c0.2,0 0.4,0 0.6,-0.1c0.1,0 0.2,-0.1 0.3,-0.1c0.1,0 0.2,-0.1 0.3,-0.1c0.1,0 0.2,-0.1 0.3,-0.2c0.1,0 0.1,-0.1 0.2,-0.1c0.2,-0.1 0.3,-0.2 0.5,-0.4v0l15,-15c1.2,-1.2 1.2,-3.1 0,-4.2c-1.3,-1.1 -3.2,-1.1 -4.4,0.1z"></path><path d="M107.5,87.4l-43.5,25.1l-42,-24.2v-23l9.9,9.9c0.6,0.6 1.4,0.9 2.1,0.9c0.7,0 1.5,-0.3 2.1,-0.9c1.2,-1.2 1.2,-3.1 0,-4.2l-15,-15c-1.2,-1.2 -3.1,-1.2 -4.2,0l-15,15c-1.2,1.2 -1.2,3.1 0,4.2c1.2,1.2 3.1,1.2 4.2,0l9.9,-9.9v24.7c0,1.1 0.6,2.1 1.5,2.6l45,26c0.5,0.3 1,0.4 1.5,0.4c0.5,0 1,-0.1 1.5,-0.4l45,-26c1.4,-0.8 1.9,-2.7 1.1,-4.1c-0.8,-1.4 -2.6,-1.9 -4.1,-1.1z"></path></g></g><g fill="#ffffff" fill-rule="nonzero" stroke="none" stroke-width="1" stroke-linecap="butt" stroke-linejoin="miter" stroke-miterlimit="10" stroke-dasharray="" stroke-dashoffset="0" font-family="none" font-weight="none" font-size="none" text-anchor="none" style="mix-blend-mode: normal"><g><path d="M149.03038,156.245v0c0,-4.39333 -1.55,-8.14 -4.65,-11.24c-3.1,-3.1 -8.24,-5.87 -15.42,-8.31v0c-9.86,-2.98 -17.30333,-6.96 -22.33,-11.94c-5.03333,-4.98 -7.55,-11.62333 -7.55,-19.93v0c0,-8.05333 2.32,-14.62 6.96,-19.7c4.64,-5.07333 11.01333,-8.12333 19.12,-9.15v0v-16.19h11.57v16.26c8.15333,1.17333 14.48667,4.67667 19,10.51c4.52,5.83333 6.78,13.66 6.78,23.48v0h-14.36c0,-6.64667 -1.52333,-12.02 -4.57,-16.12c-3.05333,-4.1 -7.31333,-6.15 -12.78,-6.15v0c-5.76667,0 -10.09,1.5 -12.97,4.5c-2.88,3.00667 -4.32,7.12333 -4.32,12.35v0c0,4.73333 1.49,8.56333 4.47,11.49c2.98,2.93333 8.32667,5.71667 16.04,8.35v0c9.96,3.22667 17.35667,7.24333 22.19,12.05c4.83333,4.81333 7.25,11.34333 7.25,19.59v0c0,8.4 -2.51333,15.09 -7.54,20.07c-5.03333,4.98 -11.94333,7.93667 -20.73,8.87v0v13.98h-11.43v-13.98c-8.39333,-0.88 -15.27667,-3.94667 -20.65,-9.2c-5.37333,-5.24667 -7.96,-12.94667 -7.76,-23.1v0l0.14,-0.37h13.92c0,7.52 1.89,12.88 5.67,16.08c3.78667,3.19333 8.44,4.79 13.96,4.79v0c6.3,0 11.20667,-1.5 14.72,-4.5c3.51333,-3.00667 5.27,-7.17 5.27,-12.49z"></path></g></g></svg>