<svg xmlns="http://www.w3.org/2000/svg" xmlns:xlink="http://www.w3.org/1999/xlink" viewBox="0,0,256,256" width="48px" height="48px" fill-rule="nonzero"><g fill-opacity="0" fill="#dddddd" fill-rule="nonzero" stroke="none" stroke-width="1" stroke-linecap="butt" stroke-linejoin="miter" stroke-miterlimit="10" stroke-dasharray="" stroke-dashoffset="0" font-family="none" font-weight="none" font-size="none" text-anchor="none" style="mix-blend-mode: normal"><path d="M0,256v-256h256v256z" id="bgRectangle"></path></g><g fill="none" fill-rule="nonzero" stroke="#ffffff" stroke-width="3" stroke-linecap="none" stroke-linejoin="none" stroke-miterlimit="10" stroke-dasharray="" stroke-dashoffset="0" font-family="none" font-weight="none" font-size="none" text-anchor="none" style="mix-blend-mode: normal"><g transform="scale(5.33333,5.33333)"><path d="M28.6,40.5h-18.1c-2.2,0 -4,-1.8 -4,-4v-25c0,-2.2 1.8,-4 4,-4h2" stroke-linecap="round" stroke-linejoin="round"></path><path d="M18.1,7.5h19.4c2.2,0 4,1.8 4,4v25c0,2.2 -1.8,4 -4,4h-3.6" stroke-linecap="round" stroke-linejoin="round"></path><path d="M6.5,15.5h35" stroke-linecap="butt" stroke-linejoin="miter"></path><path d="M12.5,22.5h12" stroke-linecap="round" stroke-linejoin="miter"></path><path d="M12.5,31.5h12" stroke-linecap="round" stroke-linejoin="miter"></path><path d="M29.5,22.5l2,2l4,-4" stroke-linecap="round" stroke-linejoin="round"></path><path d="M29.5,31l2,2l4,-4" stroke-linecap="round" stroke-linejoin="round"></path></g></g></svg>