<svg xmlns="http://www.w3.org/2000/svg" xmlns:xlink="http://www.w3.org/1999/xlink" viewBox="0,0,256,256" width="25px" height="25px" fill-rule="nonzero"><g fill-opacity="0" fill="#dddddd" fill-rule="nonzero" stroke="none" stroke-width="1" stroke-linecap="butt" stroke-linejoin="miter" stroke-miterlimit="10" stroke-dasharray="" stroke-dashoffset="0" font-family="none" font-weight="none" font-size="none" text-anchor="none" style="mix-blend-mode: normal"><path d="M0,256v-256h256v256z" id="bgRectangle"></path></g><g fill="none" fill-rule="nonzero" stroke="#ffffff" stroke-width="3" stroke-linecap="round" stroke-linejoin="round" stroke-miterlimit="10" stroke-dasharray="" stroke-dashoffset="0" font-family="none" font-weight="none" font-size="none" text-anchor="none" style="mix-blend-mode: normal"><g transform="scale(5.33333,5.33333)"><path d="M27,33.213v-21.713h7.5v2.032c0,0.552 0.448,1 1,1h4c0.552,0 1,-0.448 1,-1v-7.032c0,-0.552 -0.448,-1 -1,-1h-23.564"></path><path d="M10.064,5.5h-1.564c-0.552,0 -1,0.448 -1,1v6.958c0,0.552 0.448,1 1,1h4c0.552,0 1,-0.448 1,-1v-1.958h7.5v26h-2.5c-0.552,0 -1,0.448 -1,1v4c0,0.552 0.448,1 1,1h11c0.552,0 1,-0.448 1,-1v-4c0,-0.552 -0.448,-1 -1,-1h-2.5"></path></g></g></svg>