<svg xmlns="http://www.w3.org/2000/svg" xmlns:xlink="http://www.w3.org/1999/xlink" viewBox="0,0,256,256" width="32px" height="32px" fill-rule="nonzero"><g transform=""><g fill-opacity="0" fill="#dddddd" fill-rule="nonzero" stroke="none" stroke-width="1" stroke-linecap="butt" stroke-linejoin="miter" stroke-miterlimit="10" stroke-dasharray="" stroke-dashoffset="0" font-family="none" font-weight="none" font-size="none" text-anchor="none" style="mix-blend-mode: normal"><path d="M0,256v-256h256v256z" id="bgRectangle"></path></g><g fill="#ffffff" fill-rule="nonzero" stroke="none" stroke-width="1" stroke-linecap="butt" stroke-linejoin="miter" stroke-miterlimit="10" stroke-dasharray="" stroke-dashoffset="0" font-family="none" font-weight="none" font-size="none" text-anchor="none" style="mix-blend-mode: normal"><g transform="scale(8,8)"><path d="M13,4c-1.105,0 -2,0.895 -2,2v2h-7c-1.105,0 -2,0.895 -2,2v2.11328c2.133,0.727 3.33489,0.88672 3.96289,0.88672h2.03711v-1c0,-0.276 0.224,-0.5 0.5,-0.5h1c0.276,0 0.5,0.224 0.5,0.5v1h12v-1c0,-0.276 0.224,-0.5 0.5,-0.5h1c0.276,0 0.5,0.224 0.5,0.5v1h2.03711c0.628,0 1.82989,-0.15972 3.96289,-0.88672v-2.11328c0,-1.105 -0.895,-2 -2,-2h-7v-2c0,-1.105 -0.895,-2 -2,-2zM13,6h6v2h-6zM2,14.21094v11.79102c0,1.105 0.895,2 2,2h6.63086c-0.177,-0.317 -0.32445,-0.64361 -0.43945,-0.97461c-0.038,-0.109 -0.13109,-0.18622 -0.24609,-0.19922l-1.67773,-0.18359c-0.152,-0.016 -0.26758,-0.14388 -0.26758,-0.29687v-2.69336c0,-0.154 0.11558,-0.28178 0.26758,-0.30078l1.68359,-0.18359c0.114,-0.013 0.20809,-0.09122 0.24609,-0.19922c0.251,-0.722 0.63258,-1.40019 1.14258,-1.99219c0.074,-0.086 0.09483,-0.20655 0.04883,-0.31055l-0.67969,-1.54492c-0.061,-0.14 -0.008,-0.30386 0.125,-0.38086l2.33203,-1.3457c0.133,-0.077 0.30158,-0.04097 0.39258,0.08203l0.99609,1.36133c0.067,0.092 0.18097,0.13428 0.29297,0.11328c0.767,-0.145 1.54683,-0.13619 2.29883,0.00781c0.113,0.022 0.22497,-0.02128 0.29297,-0.11328l1.00195,-1.36719c0.091,-0.123 0.25958,-0.15903 0.39258,-0.08203l2.33203,1.3457c0.133,0.077 0.187,0.24086 0.125,0.38086l-0.67969,1.54492c-0.046,0.105 -0.02617,0.2255 0.04883,0.3125c0.248,0.287 0.47392,0.59945 0.66992,0.93945c0.196,0.34 0.35452,0.69278 0.47852,1.05078c0.038,0.109 0.13109,0.18622 0.24609,0.19922l1.67773,0.18359c0.152,0.016 0.26758,0.14388 0.26758,0.29688v2.69336c0,0.153 -0.11463,0.28183 -0.26562,0.29883l-1.68555,0.18359c-0.114,0.013 -0.20614,0.09122 -0.24414,0.19922c-0.117,0.336 -0.27036,0.65966 -0.44336,0.97266h6.63867c1.105,0 2,-0.895 2,-2v-11.78906c-1.624,0.514 -2.96789,0.78906 -3.96289,0.78906h-2.03711v1c0,0.276 -0.224,0.5 -0.5,0.5h-1c-0.276,0 -0.5,-0.224 -0.5,-0.5v-1h-12v1c0,0.276 -0.224,0.5 -0.5,0.5h-1c-0.276,0 -0.5,-0.224 -0.5,-0.5v-1h-2.03711c-0.995,0 -2.33889,-0.27506 -3.96289,-0.78906zM16,22c-1.657,0 -3,1.343 -3,3c0,1.657 1.343,3 3,3c1.657,0 3,-1.343 3,-3c0,-1.657 -1.343,-3 -3,-3z"></path></g></g></g></svg>