<svg xmlns="http://www.w3.org/2000/svg" xmlns:xlink="http://www.w3.org/1999/xlink" viewBox="0,0,256,256" width="50px" height="50px" fill-rule="nonzero"><g fill-opacity="0" fill="#dddddd" fill-rule="nonzero" stroke="none" stroke-width="1" stroke-linecap="butt" stroke-linejoin="miter" stroke-miterlimit="10" stroke-dasharray="" stroke-dashoffset="0" font-family="none" font-weight="none" font-size="none" text-anchor="none" style="mix-blend-mode: normal"><path d="M0,256v-256h256v256z" id="bgRectangle"></path></g><g fill="#ffffff" fill-rule="nonzero" stroke="none" stroke-width="1" stroke-linecap="butt" stroke-linejoin="miter" stroke-miterlimit="10" stroke-dasharray="" stroke-dashoffset="0" font-family="none" font-weight="none" font-size="none" text-anchor="none" style="mix-blend-mode: normal"><g transform="scale(5.12,5.12)"><path d="M9,0c-6.54297,0 -8.8125,4.375 -8.90625,4.5625c-0.24609,0.49219 -0.02344,1.09766 0.46875,1.34375c0.49609,0.24609 1.09766,0.02344 1.34375,-0.46875c0.01563,-0.03125 1.60938,-3.13672 6.40625,-3.40625l16.875,42.78125c0.15625,0.39453 0.53906,0.625 0.9375,0.625c0.12109,0 0.25781,-0.01562 0.375,-0.0625l22.375,-8.75c0.51563,-0.19922 0.76172,-0.76562 0.5625,-1.28125c-0.20312,-0.51562 -0.76953,-0.79297 -1.28125,-0.59375l-21.46875,8.40625l-16.75,-42.53125c-0.14844,-0.38281 -0.52734,-0.625 -0.9375,-0.625zM37.1875,0c-0.12891,0 -0.28125,0.01172 -0.40625,0.0625l-20.4375,8.15625c-0.51172,0.20313 -0.76562,0.76953 -0.5625,1.28125l5.53125,13.90625l22.3125,-8.875l-5.53125,-13.90625c-0.09766,-0.24609 -0.28906,-0.42578 -0.53125,-0.53125c-0.12109,-0.05078 -0.24609,-0.09375 -0.375,-0.09375zM32.15625,6.3125c0.39063,0.00781 0.75391,0.23828 0.90625,0.625c0.20313,0.51172 -0.05078,1.10938 -0.5625,1.3125l-7.4375,2.9375c-0.12109,0.04688 -0.25391,0.09375 -0.375,0.09375c-0.39844,0 -0.75,-0.26562 -0.90625,-0.65625c-0.20312,-0.51172 0.05078,-1.07812 0.5625,-1.28125l7.4375,-2.96875c0.12891,-0.05078 0.24609,-0.06641 0.375,-0.0625zM44.375,16.40625l-22.3125,8.84375l5.5625,13.96875c0.09766,0.24609 0.28906,0.45703 0.53125,0.5625c0.125,0.05469 0.26953,0.09375 0.40625,0.09375c0.125,0 0.25781,-0.04687 0.375,-0.09375l20.4375,-8.125c0.51172,-0.20312 0.76563,-0.79687 0.5625,-1.3125zM38.09375,21.15625c0.39063,0.00781 0.75391,0.23828 0.90625,0.625c0.20313,0.51172 -0.05078,1.10938 -0.5625,1.3125l-7.4375,2.96875c-0.12109,0.05078 -0.25391,0.0625 -0.375,0.0625c-0.39844,0 -0.78125,-0.23437 -0.9375,-0.625c-0.20312,-0.51172 0.05078,-1.10937 0.5625,-1.3125l7.4375,-2.9375c0.12891,-0.05078 0.27734,-0.09766 0.40625,-0.09375zM19,40c-2.75781,0 -5,2.24219 -5,5c0,2.75781 2.24219,5 5,5c2.75781,0 5,-2.24219 5,-5c0,-2.75781 -2.24219,-5 -5,-5z"></path></g></g></svg>