<svg xmlns="http://www.w3.org/2000/svg" xmlns:xlink="http://www.w3.org/1999/xlink" viewBox="0,0,256,256" width="25px" height="25px" fill-rule="nonzero"><g fill-opacity="0" fill="#dddddd" fill-rule="nonzero" stroke="none" stroke-width="1" stroke-linecap="butt" stroke-linejoin="miter" stroke-miterlimit="10" stroke-dasharray="" stroke-dashoffset="0" font-family="none" font-weight="none" font-size="none" text-anchor="none" style="mix-blend-mode: normal"><path d="M0,256v-256h256v256z" id="bgRectangle"></path></g><g fill="#ffffff" fill-rule="nonzero" stroke="none" stroke-width="1" stroke-linecap="butt" stroke-linejoin="miter" stroke-miterlimit="10" stroke-dasharray="" stroke-dashoffset="0" font-family="none" font-weight="none" font-size="none" text-anchor="none" style="mix-blend-mode: normal"><g transform="scale(5.33333,5.33333)"><path d="M24,4c-1.06797,0 -2.10385,0.16879 -3.07422,0.48242c-0.52262,0.15467 -0.92024,0.58062 -1.03862,1.11263c-0.11838,0.53201 0.06109,1.08638 0.46881,1.44807c0.40772,0.36169 0.97953,0.47379 1.49363,0.29281c0.67563,-0.21837 1.39636,-0.33594 2.15039,-0.33594c3.88318,0 7,3.11682 7,7c0,3.88318 -3.11682,7 -7,7c-3.88318,0 -7,-3.11682 -7,-7c0.00765,-0.54095 -0.27656,-1.04412 -0.74381,-1.31683c-0.46725,-0.27271 -1.04514,-0.27271 -1.51238,0c-0.46725,0.27271 -0.75146,0.77588 -0.74381,1.31683c0,5.50482 4.49518,10 10,10c5.50482,0 10,-4.49518 10,-10c0,-5.50482 -4.49518,-10 -10,-10zM13.5,28c-3.01977,0 -5.5,2.48023 -5.5,5.5c0,3.60417 2.27927,6.39223 5.30664,8.0625c3.02737,1.67027 6.86146,2.4375 10.69336,2.4375c3.8319,0 7.66599,-0.76723 10.69336,-2.4375c2.8909,-1.59498 5.04112,-4.23259 5.23438,-7.60352c0.04844,-0.14821 0.07348,-0.30306 0.07422,-0.45898c0,-3.01977 -2.48023,-5.5 -5.5,-5.5h-2.31055c-0.54095,-0.00765 -1.04412,0.27656 -1.31683,0.74381c-0.27271,0.46725 -0.27271,1.04514 0,1.51238c0.27271,0.46725 0.77588,0.75146 1.31683,0.74381h2.31055c1.39664,0 2.49555,1.10013 2.49805,2.49609c0,0.0013 0,0.0026 0,0.00391c0,2.39583 -1.34573,4.10777 -3.75586,5.4375c-2.41013,1.32973 -5.82604,2.0625 -9.24414,2.0625c-3.4181,0 -6.83401,-0.73277 -9.24414,-2.0625c-2.41013,-1.32973 -3.75586,-3.04167 -3.75586,-5.4375c0,-1.39823 1.10177,-2.5 2.5,-2.5h11.79883c0.54095,0.00765 1.04412,-0.27656 1.31683,-0.74381c0.27271,-0.46725 0.27271,-1.04514 0,-1.51238c-0.27271,-0.46725 -0.77588,-0.75146 -1.31683,-0.74381z"></path></g></g></svg>