<svg xmlns="http://www.w3.org/2000/svg" xmlns:xlink="http://www.w3.org/1999/xlink" viewBox="0,0,256,256" width="25px" height="25px" fill-rule="nonzero"><g fill-opacity="0" fill="#dddddd" fill-rule="nonzero" stroke="none" stroke-width="1" stroke-linecap="butt" stroke-linejoin="miter" stroke-miterlimit="10" stroke-dasharray="" stroke-dashoffset="0" font-family="none" font-weight="none" font-size="none" text-anchor="none" style="mix-blend-mode: normal"><path d="M0,256v-256h256v256z" id="bgRectangle"></path></g><g fill="#ffffff" fill-rule="nonzero" stroke="none" stroke-width="1" stroke-linecap="butt" stroke-linejoin="miter" stroke-miterlimit="10" stroke-dasharray="" stroke-dashoffset="0" font-family="none" font-weight="none" font-size="none" text-anchor="none" style="mix-blend-mode: normal"><g transform="scale(5.33333,5.33333)"><path d="M8.5,6c-2.4675,0 -4.5,2.0325 -4.5,4.5v20c0,2.4675 2.0325,4.5 4.5,4.5h5.43555c0.54095,0.00765 1.04412,-0.27656 1.31683,-0.74381c0.27271,-0.46725 0.27271,-1.04514 0,-1.51238c-0.27271,-0.46725 -0.77588,-0.75146 -1.31683,-0.74381h-5.43555c-0.8465,0 -1.5,-0.6535 -1.5,-1.5v-20c0,-0.8465 0.6535,-1.5 1.5,-1.5h19.81836c0.54095,0.00765 1.04412,-0.27656 1.31683,-0.74381c0.27271,-0.46725 0.27271,-1.04514 0,-1.51238c-0.27271,-0.46725 -0.77588,-0.75146 -1.31683,-0.74381zM36.10547,6c-0.54095,-0.00765 -1.04412,0.27656 -1.31683,0.74381c-0.27271,0.46725 -0.27271,1.04514 0,1.51238c0.27271,0.46725 0.77588,0.75146 1.31683,0.74381h3.39453c0.8465,0 1.5,0.6535 1.5,1.5v20c0,0.8465 -0.6535,1.5 -1.5,1.5h-14.42969l-6.15234,-17.92187c-0.20077,-0.58473 -0.7397,-0.98641 -1.35742,-1.01172c-0.1801,-0.00738 -0.36006,0.01776 -0.53125,0.07422c-2.70186,0.89382 -5.2655,2.3226 -7.51563,4.28516c-0.59899,0.52322 -0.68553,1.42298 -0.19727,2.05078l6.78125,8.72656c0.26404,0.33951 0.66111,0.54936 1.09037,0.57626c0.42926,0.0269 0.84942,-0.13174 1.15377,-0.43564c0.5548,-0.5548 1.24659,-0.82319 1.89844,-1.17969l1.66016,4.83594h-3.40039c-0.45508,-0.00601 -0.88829,0.19491 -1.17767,0.54619c-0.28938,0.35128 -0.40364,0.81494 -0.31061,1.26045c-0.00807,0.06413 -0.01198,0.12872 -0.01172,0.19336v6h-3.5c-0.54095,-0.00765 -1.04412,0.27656 -1.31683,0.74381c-0.27271,0.46725 -0.27271,1.04514 0,1.51238c0.27271,0.46725 0.77588,0.75146 1.31683,0.74381h21c0.54095,0.00765 1.04412,-0.27656 1.31683,-0.74381c0.27271,-0.46725 0.27271,-1.04514 0,-1.51238c-0.27271,-0.46725 -0.77588,-0.75146 -1.31683,-0.74381h-3.5v-5h8.5c2.4675,0 4.5,-2.0325 4.5,-4.5v-20c0,-2.4675 -2.0325,-4.5 -4.5,-4.5zM23.46289,12.02734c-0.5468,-0.00342 -1.05215,0.29095 -1.31891,0.76828c-0.26676,0.47733 -0.25267,1.062 0.03678,1.52592c0.28945,0.46392 0.80839,0.73361 1.3544,0.70384c4.17653,-0.10042 8.33454,1.22754 11.82617,3.83594l-4.92187,6.33398c-1.10202,-0.80547 -2.27904,-1.46589 -3.54687,-1.81055c-0.51745,-0.14037 -1.07047,0.00601 -1.45071,0.384c-0.38024,0.37798 -0.52991,0.93013 -0.39262,1.4484c0.13729,0.51827 0.54068,0.92391 1.05818,1.06409c1.30109,0.35369 2.52324,1.03496 3.54883,2.06055c0.30409,0.30412 0.72408,0.4631 1.15333,0.43657c0.42925,-0.02652 0.82647,-0.236 1.09081,-0.57524l6.7832,-8.72656c0.48779,-0.6283 0.40038,-1.52811 -0.19922,-2.05078c-4.27383,-3.7266 -9.67058,-5.52709 -15.02148,-5.39844zM16.61133,16.5918l2.60156,7.58008c-0.58172,0.28293 -1.13566,0.61305 -1.66992,1.00391l-4.90234,-6.30664c1.24885,-0.93322 2.57449,-1.69109 3.9707,-2.27734zM20,35h3.62109c0.25892,0.07077 0.53209,0.07077 0.79102,0h3.58789v5h-8z"></path></g></g></svg>